<svg width="24" height="24" viewBox="0 0 24 24" fill="none" xmlns="http://www.w3.org/2000/svg">
<g clip-path="url(#clip0_9029_12125)">
<path d="M13.35 0.832441C10.1325 0.449941 6.915 1.46244 4.5225 3.59244C2.1225 5.72994 0.75 8.78994 0.75 11.9999C0.75 18.2024 5.7975 23.2499 12 23.2499C12.6225 23.2499 13.125 22.7474 13.125 22.1249C13.125 21.5024 12.6225 20.9999 12 20.9999C7.035 20.9999 3 16.9649 3 11.9999C3 9.43494 4.1025 6.98244 6.015 5.27244C7.965 3.53994 10.4775 2.75994 13.095 3.05994C17.04 3.52494 20.3175 6.69744 20.895 10.6049C21.105 12.0299 21 13.4174 20.5725 14.7449C20.3025 15.6149 19.5525 15.5999 19.245 15.5474C19.065 15.5174 18.15 15.3299 18.15 14.3024L18.1575 11.9999C18.1575 8.60244 15.3975 5.84244 12 5.84244C8.6025 5.84244 5.8425 8.60244 5.8425 11.9999C5.8425 15.3974 8.6025 18.1574 12 18.1574C13.6875 18.1574 15.315 17.4449 16.4625 16.2224C16.98 17.0324 17.8425 17.6099 18.9 17.7749C20.3625 17.9999 22.1025 17.3624 22.7175 15.4274C23.25 13.7699 23.385 12.0449 23.1225 10.2824C22.4025 5.37744 18.2925 1.40244 13.35 0.832441ZM16.2787 11.9999V12.0682C16.2688 12.648 16.1399 13.2195 15.9 13.7474C15.8475 13.8824 15.78 14.0099 15.705 14.1374C15.3293 14.7881 14.7894 15.3287 14.1392 15.7051C13.489 16.0816 12.7513 16.2806 12 16.2824C9.6375 16.2824 7.7175 14.3624 7.7175 11.9999C7.7175 9.63744 9.6375 7.71744 12 7.71744C14.1 7.71744 15.855 9.23994 16.2075 11.2424C16.2593 11.4779 16.281 11.7277 16.2817 11.9849C16.2817 11.9902 16.2787 11.9947 16.2787 11.9999Z" fill="#84C000"/>
</g>
<defs>
<clipPath id="clip0_9029_12125">
<rect width="24" height="24" fill="white"/>
</clipPath>
</defs>
</svg>
