<svg width="20" height="20" viewBox="0 0 20 20" fill="none" xmlns="http://www.w3.org/2000/svg">
<path d="M9.99999 0.588257C7.05881 0.588257 4.70587 2.9412 4.70587 5.88237V8.23532C3.70587 8.23532 2.94116 9.00002 2.94116 10V17.6471C2.94116 18.6471 3.70587 19.4118 4.70587 19.4118H15.2941C16.2941 19.4118 17.0588 18.6471 17.0588 17.6471V10C17.0588 9.00002 16.2941 8.23532 15.2941 8.23532V5.88237C15.2941 2.9412 12.9412 0.588257 9.99999 0.588257ZM15.8823 10V17.6471C15.8823 18 15.647 18.2353 15.2941 18.2353H4.70587C4.35293 18.2353 4.11763 18 4.11763 17.6471V10C4.11763 9.64708 4.35293 9.41179 4.70587 9.41179H15.2941C15.647 9.41179 15.8823 9.64708 15.8823 10ZM5.88234 8.23532V5.88237C5.88234 3.58826 7.70587 1.76473 9.99999 1.76473C12.2941 1.76473 14.1176 3.58826 14.1176 5.88237V8.23532H5.88234Z" fill="#84C000"/>
<path d="M10.0001 11.1765C9.00006 11.1765 8.23535 11.9412 8.23535 12.9412C8.23535 13.7059 8.70594 14.353 9.41182 14.5883V15.8824C9.41182 16.2353 9.64712 16.4706 10.0001 16.4706C10.353 16.4706 10.5883 16.2353 10.5883 15.8824V14.5883C11.2942 14.353 11.7648 13.7059 11.7648 12.9412C11.7648 11.9412 11.0001 11.1765 10.0001 11.1765ZM10.0001 13.5295C9.64712 13.5295 9.41182 13.2942 9.41182 12.9412C9.41182 12.5883 9.64712 12.353 10.0001 12.353C10.353 12.353 10.5883 12.5883 10.5883 12.9412C10.5883 13.2942 10.353 13.5295 10.0001 13.5295Z" fill="#84C000"/>
</svg>
