<svg width="20" height="20" viewBox="0 0 20 20" fill="none" xmlns="http://www.w3.org/2000/svg">
<path d="M1.66652 10L1.01652 9.47917L0.599854 10L1.01652 10.5208L1.66652 10ZM9.16652 10.8333C9.38753 10.8333 9.59949 10.7455 9.75578 10.5893C9.91206 10.433 9.99985 10.221 9.99985 10C9.99985 9.77899 9.91206 9.56702 9.75578 9.41074C9.59949 9.25446 9.38753 9.16667 9.16652 9.16667V10.8333ZM4.34985 5.3125L1.01652 9.47917L2.31652 10.5208L5.64985 6.35417L4.34985 5.3125ZM1.01652 10.5208L4.34985 14.6875L5.64985 13.6458L2.31652 9.47917L1.01652 10.5208ZM1.66652 10.8333H9.16652V9.16667H1.66652V10.8333Z" fill="#84C000"/>
<path d="M8.3335 6.77665V6.15749C8.3335 4.80832 8.3335 4.13415 8.7285 3.66832C9.1235 3.20249 9.7885 3.09082 11.1185 2.86832L12.5118 2.63665C15.2143 2.18665 16.5652 1.96165 17.4493 2.70999C18.3335 3.45915 18.3335 4.82915 18.3335 7.56832V12.4308C18.3335 15.1708 18.3335 16.5408 17.4502 17.2892C16.5652 18.0392 15.2143 17.8142 12.5118 17.3633L11.1185 17.1308C9.7885 16.9092 9.1235 16.7983 8.7285 16.3325C8.3335 15.8658 8.3335 15.1908 8.3335 13.8417V13.3875" stroke="#84C000" stroke-width="2"/>
</svg>
