<svg width="26" height="26" viewBox="0 0 26 26" fill="none" xmlns="http://www.w3.org/2000/svg">
<g clip-path="url(#clip0_9026_940)">
<path d="M1.625 0.8125H19.5C20.3974 0.8125 21.125 1.54009 21.125 2.4375V24.375C21.125 25.2724 20.3974 26 19.5 26H1.625C0.727594 26 0 25.2724 0 24.375V2.4375C0 1.54009 0.727594 0.8125 1.625 0.8125Z" fill="#ECCE93"/>
<path d="M1.625 19.0239V2.4375H19.5V24.375H6.97607L1.625 19.0239Z" fill="#EFEFEF"/>
<path d="M6.97607 19.0239V24.375L1.625 19.0239H6.97607ZM6.5 3.25V0H14.625V3.25C14.625 4.14741 13.8974 4.875 13 4.875H8.125C7.22759 4.875 6.5 4.14741 6.5 3.25Z" fill="#E76E54"/>
<path d="M26 18.6875C26 22.726 22.726 26 18.6875 26C14.649 26 11.375 22.726 11.375 18.6875C11.375 14.649 14.649 11.375 18.6875 11.375C22.726 11.375 26 14.649 26 18.6875Z" fill="#84C000"/>
<path d="M17.0121 21.818L15.4375 20.2426C15.1203 19.9252 15.1203 19.4109 15.4375 19.0937C15.7546 18.7765 16.269 18.7765 16.5864 19.0937L17.1128 19.6194L20.7927 16.5522C21.1375 16.2646 21.6503 16.3112 21.9375 16.6562C22.2251 17.001 22.1785 17.5137 21.8335 17.801L17.0121 21.818Z" fill="white"/>
<path d="M8.9375 6.5H15.4375C15.8862 6.5 16.25 6.8638 16.25 7.3125C16.25 7.7612 15.8862 8.125 15.4375 8.125H8.9375C8.4888 8.125 8.125 7.7612 8.125 7.3125C8.125 6.8638 8.4888 6.5 8.9375 6.5ZM4.875 6.5H6.5V8.125H4.875V6.5ZM4.875 9.75H6.5V11.375H4.875V9.75ZM4.875 13H6.5V14.625H4.875V13ZM4.875 16.25H6.5V17.875H4.875V16.25ZM8.9375 9.75H13.8125C14.2612 9.75 14.625 10.1138 14.625 10.5625C14.625 11.0112 14.2612 11.375 13.8125 11.375H8.9375C8.4888 11.375 8.125 11.0112 8.125 10.5625C8.125 10.1138 8.4888 9.75 8.9375 9.75ZM8.9375 13H10.5625C11.0112 13 11.375 13.3638 11.375 13.8125C11.375 14.2612 11.0112 14.625 10.5625 14.625H8.9375C8.4888 14.625 8.125 14.2612 8.125 13.8125C8.125 13.3638 8.4888 13 8.9375 13Z" fill="#77959E"/>
</g>
<defs>
<clipPath id="clip0_9026_940">
<rect width="26" height="26" fill="white"/>
</clipPath>
</defs>
</svg>
