<svg width="280" height="280" viewBox="0 0 280 280" fill="none" xmlns="http://www.w3.org/2000/svg">
<path d="M142.57 273.482C213.17 273.482 270.402 240.439 270.402 199.679C270.402 158.919 213.17 125.877 142.57 125.877C71.9712 125.877 14.7393 158.919 14.7393 199.679C14.7393 240.439 71.9712 273.482 142.57 273.482Z" fill="#F7FFEF"/>
<path d="M123.676 189.353C138.132 189.353 149.85 182.586 149.85 174.238C149.85 165.891 138.132 159.124 123.676 159.124C109.22 159.124 97.5015 165.891 97.5015 174.238C97.5015 182.586 109.22 189.353 123.676 189.353Z" fill="#E0E0E0"/>
<path d="M224.661 217.28C238.734 225.406 238.734 238.56 224.661 246.702C210.588 254.845 187.768 254.834 173.701 246.702C159.634 238.571 159.628 225.422 173.701 217.274C187.774 209.126 210.588 209.143 224.661 217.28Z" fill="#E0E0E0"/>
<path d="M93.2289 163.862L167.149 206.528C167.444 206.698 167.69 206.942 167.861 207.237C168.031 207.532 168.121 207.867 168.121 208.208C168.121 208.549 168.031 208.884 167.861 209.178C167.69 209.473 167.444 209.718 167.149 209.888L123.536 235.088C122.632 235.61 121.607 235.886 120.562 235.886C119.518 235.886 118.493 235.61 117.589 235.088L43.6801 192.394C43.3832 192.225 43.1362 191.981 42.9644 191.686C42.7927 191.39 42.7021 191.055 42.7021 190.714C42.7021 190.372 42.7927 190.037 42.9644 189.742C43.1362 189.447 43.3832 189.202 43.6801 189.034L87.2985 163.834C88.2025 163.317 89.2264 163.048 90.2674 163.053C91.3084 163.058 92.3298 163.337 93.2289 163.862Z" fill="#E0E0E0"/>
<path d="M64.7416 195.608L115.97 226.066C116.154 226.174 116.306 226.328 116.412 226.513C116.518 226.697 116.573 226.906 116.573 227.119C116.573 227.332 116.518 227.541 116.412 227.726C116.306 227.91 116.154 228.064 115.97 228.172L88.5304 244.003C87.9624 244.33 87.3184 244.503 86.6628 244.503C86.0073 244.503 85.3632 244.33 84.7952 244.003L33.6 213.545C33.4151 213.438 33.2615 213.285 33.1547 213.1C33.0479 212.915 32.9917 212.705 32.9917 212.492C32.9917 212.279 33.0479 212.069 33.1547 211.884C33.2615 211.699 33.4151 211.546 33.6 211.439L61.04 195.608C61.604 195.287 62.2418 195.118 62.8908 195.118C63.5398 195.118 64.1776 195.287 64.7416 195.608Z" fill="#E0E0E0"/>
<path d="M158.872 133.398L246.792 184.134C247.416 184.494 248.124 184.684 248.845 184.684C249.565 184.684 250.273 184.494 250.897 184.134L256.419 180.947C256.635 180.823 256.815 180.644 256.94 180.428C257.065 180.212 257.131 179.967 257.131 179.718C257.131 179.469 257.065 179.224 256.94 179.008C256.815 178.792 256.635 178.613 256.419 178.489L168.56 127.786C167.921 127.415 167.194 127.22 166.455 127.22C165.715 127.22 164.989 127.415 164.349 127.786L158.883 130.939C158.666 131.062 158.486 131.24 158.36 131.456C158.234 131.671 158.167 131.916 158.166 132.165C158.164 132.415 158.229 132.66 158.353 132.876C158.477 133.093 158.656 133.273 158.872 133.398Z" fill="#E0E0E0"/>
<path d="M165.362 130.822L250.796 180.146C251.101 180.323 251.448 180.417 251.801 180.417C252.153 180.418 252.5 180.326 252.806 180.15C253.112 179.974 253.366 179.72 253.543 179.415C253.72 179.11 253.814 178.763 253.814 178.41V65.884C253.813 64.9237 253.559 63.9806 253.078 63.1491C252.598 62.3177 251.907 61.6271 251.076 61.1464L169.445 14C169.031 13.7611 168.562 13.6353 168.084 13.6354C167.606 13.6354 167.137 13.7612 166.723 14.0002C166.309 14.2391 165.966 14.5828 165.727 14.9966C165.488 15.4104 165.362 15.8798 165.362 16.3576V130.822Z" fill="#84C000"/>
<path opacity="0.5" d="M165.362 130.822L250.796 180.146C251.101 180.323 251.448 180.417 251.801 180.417C252.153 180.418 252.5 180.326 252.806 180.15C253.112 179.974 253.366 179.72 253.543 179.415C253.72 179.11 253.814 178.763 253.814 178.41V65.884C253.813 64.9237 253.559 63.9806 253.078 63.1491C252.598 62.3177 251.907 61.6271 251.076 61.1464L169.445 14C169.031 13.7611 168.562 13.6353 168.084 13.6354C167.606 13.6354 167.137 13.7612 166.723 14.0002C166.309 14.2391 165.966 14.5828 165.727 14.9966C165.488 15.4104 165.362 15.8798 165.362 16.3576V130.822Z" fill="white"/>
<path d="M167.781 135.99L246.12 181.216V66.8696L167.781 21.644V135.99Z" fill="#84C000"/>
<path opacity="0.8" d="M167.781 135.99L246.12 181.216V66.8696L167.781 21.644V135.99Z" fill="white"/>
<path d="M160.132 126.857L238.47 172.082L246.12 66.8696L167.781 21.644L160.132 126.857Z" fill="#84C000"/>
<path opacity="0.9" d="M160.132 126.857L238.47 172.082L246.12 66.8696L167.781 21.644L160.132 126.857Z" fill="white"/>
<path d="M167.781 21.644L246.12 66.8696L249.088 65.156L170.749 19.9248L167.781 21.644Z" fill="#84C000"/>
<path opacity="0.7" d="M167.781 21.644L246.12 66.8696L249.088 65.156L170.749 19.9248L167.781 21.644Z" fill="white"/>
<path d="M249.088 65.156V179.066L246.12 181.216V66.8696L249.088 65.156Z" fill="#84C000"/>
<path d="M249.088 65.156V179.066L246.12 181.216V66.8696L249.088 65.156Z" fill="#84C000"/>
<path opacity="0.7" d="M249.088 65.156V179.066L246.12 181.216V66.8696L249.088 65.156Z" fill="white"/>
<path d="M224.56 81.7097C224.491 81.7182 224.421 81.7182 224.353 81.7097C224.234 81.6775 224.125 81.6182 224.034 81.5366C223.942 81.4549 223.871 81.3531 223.826 81.2393L221.497 75.3873C221.421 75.1934 221.425 74.9775 221.508 74.7867C221.591 74.5958 221.746 74.4454 221.939 74.3681C222.034 74.329 222.137 74.3094 222.24 74.3103C222.343 74.3112 222.445 74.3325 222.54 74.3732C222.635 74.4138 222.721 74.4729 222.792 74.547C222.864 74.6211 222.921 74.7088 222.958 74.8049L224.896 79.6713L236.045 70.8177C236.126 70.7506 236.22 70.7004 236.321 70.6702C236.421 70.6401 236.527 70.6304 236.631 70.6419C236.736 70.6534 236.837 70.6858 236.929 70.7371C237.021 70.7885 237.101 70.8578 237.165 70.9409C237.231 71.0224 237.28 71.1161 237.309 71.2166C237.339 71.3171 237.348 71.4224 237.336 71.5264C237.325 71.6305 237.293 71.7313 237.243 71.823C237.192 71.9147 237.124 71.9955 237.042 72.0609L225.064 81.5809C224.915 81.6803 224.738 81.7258 224.56 81.7097Z" fill="#84C000"/>
<path d="M211.54 69.0928C211.403 69.0926 211.268 69.058 211.148 68.992L178.164 49.952C177.983 49.8473 177.852 49.6752 177.798 49.4736C177.745 49.2719 177.774 49.0573 177.878 48.8768C177.983 48.6964 178.155 48.5649 178.357 48.5114C178.558 48.4578 178.773 48.4865 178.953 48.5912L211.937 67.6312C212.089 67.7168 212.209 67.8506 212.276 68.0115C212.344 68.1724 212.355 68.3512 212.31 68.5196C212.264 68.688 212.164 68.8364 212.024 68.9412C211.885 69.046 211.714 69.1014 211.54 69.0984V69.0928Z" fill="#84C000"/>
<path d="M210.784 75.8632C210.646 75.8636 210.511 75.8268 210.392 75.7568L177.408 56.7168C177.227 56.6121 177.096 56.44 177.042 56.2384C176.989 56.0367 177.018 55.8221 177.122 55.6416C177.227 55.4612 177.399 55.3297 177.601 55.2761C177.802 55.2226 178.017 55.2513 178.198 55.356L211.182 74.396C211.334 74.4815 211.453 74.6154 211.52 74.7763C211.588 74.9372 211.6 75.116 211.554 75.2844C211.508 75.4528 211.408 75.6011 211.268 75.706C211.129 75.8108 210.958 75.8661 210.784 75.8632Z" fill="#84C000"/>
<path d="M229.818 90.2833C229.461 90.283 229.11 90.1904 228.799 90.0145L218.601 84.3753C217.866 83.9723 217.263 83.3648 216.865 82.6264C216.468 81.888 216.293 81.0503 216.361 80.2145L217.33 68.8409C217.362 68.4892 217.482 68.1513 217.679 67.8581C217.876 67.5649 218.143 67.3257 218.456 67.1625C218.769 66.9992 219.118 66.9171 219.472 66.9237C219.825 66.9303 220.17 67.0253 220.477 67.2001L231.201 73.3937C231.71 73.6905 232.126 74.1235 232.402 74.6439C232.678 75.1644 232.803 75.7515 232.764 76.3393L231.89 88.3288C231.864 88.6781 231.75 89.0151 231.559 89.3088C231.368 89.6024 231.107 89.8432 230.798 90.0089C230.498 90.178 230.162 90.2722 229.818 90.2833ZM219.452 68.4937C219.32 68.4931 219.191 68.5421 219.093 68.6312C218.995 68.7204 218.933 68.8431 218.92 68.9753L217.952 80.3489C217.906 80.8795 218.014 81.4122 218.265 81.8823C218.515 82.3524 218.897 82.7398 219.363 82.9977L229.56 88.6424C229.639 88.6828 229.727 88.7038 229.815 88.7038C229.904 88.7038 229.991 88.6828 230.07 88.6424C230.148 88.6003 230.214 88.5392 230.262 88.4648C230.31 88.3904 230.338 88.3051 230.344 88.2169L231.218 76.2272C231.237 75.9345 231.175 75.6422 231.037 75.3831C230.9 75.1239 230.693 74.9082 230.44 74.7601L219.71 68.5665C219.633 68.518 219.543 68.4928 219.452 68.4937Z" fill="#84C000"/>
<path d="M209.21 97.1152C209.072 97.115 208.937 97.0783 208.818 97.0088L175.834 77.9688C175.654 77.864 175.522 77.6919 175.469 77.4903C175.415 77.2887 175.444 77.074 175.549 76.8936C175.653 76.7131 175.825 76.5816 176.027 76.5281C176.229 76.4745 176.443 76.5033 176.624 76.608L209.608 95.648C209.76 95.7335 209.879 95.8673 209.947 96.0282C210.014 96.1891 210.026 96.3679 209.98 96.5363C209.935 96.7047 209.834 96.8531 209.695 96.9579C209.555 97.0628 209.385 97.1181 209.21 97.1152Z" fill="#84C000"/>
<path d="M208.454 103.88C208.317 103.88 208.181 103.843 208.062 103.774L175.078 84.7336C174.989 84.6818 174.911 84.6129 174.848 84.5308C174.785 84.4487 174.739 84.355 174.713 84.2552C174.686 84.1554 174.68 84.0513 174.693 83.9489C174.707 83.8465 174.741 83.7478 174.793 83.6584C174.845 83.5691 174.914 83.4908 174.996 83.4281C175.078 83.3654 175.171 83.3195 175.271 83.293C175.371 83.2664 175.475 83.2599 175.578 83.2736C175.68 83.2873 175.779 83.321 175.868 83.3728L208.852 102.413C209.004 102.498 209.123 102.632 209.191 102.793C209.258 102.954 209.27 103.133 209.224 103.301C209.179 103.47 209.078 103.618 208.939 103.723C208.799 103.828 208.629 103.883 208.454 103.88Z" fill="#84C000"/>
<path d="M227.489 118.3C227.132 118.298 226.782 118.208 226.469 118.037L216.272 112.392C215.536 111.99 214.933 111.382 214.535 110.644C214.137 109.905 213.963 109.067 214.032 108.231L215.04 96.88C215.071 96.5277 215.19 96.1889 215.387 95.8948C215.583 95.6007 215.85 95.3609 216.164 95.1974C216.478 95.0339 216.827 94.952 217.181 94.9593C217.534 94.9666 217.881 95.0629 218.187 95.2392L228.911 101.433C229.42 101.728 229.836 102.16 230.112 102.68C230.388 103.199 230.513 103.786 230.473 104.373L229.6 116.351C229.56 116.88 229.323 117.375 228.934 117.736C228.546 118.097 228.036 118.299 227.505 118.3H227.489ZM217.123 96.5104C217.037 96.5118 216.953 96.5328 216.877 96.572C216.796 96.6123 216.728 96.6726 216.678 96.7472C216.628 96.8218 216.598 96.908 216.591 96.9976L215.6 108.366C215.554 108.896 215.663 109.429 215.913 109.899C216.164 110.369 216.545 110.757 217.011 111.014L227.209 116.659C227.286 116.704 227.374 116.727 227.463 116.727C227.553 116.727 227.641 116.704 227.718 116.659C227.798 116.619 227.865 116.558 227.913 116.483C227.961 116.409 227.989 116.322 227.993 116.234L228.866 104.244C228.886 103.951 228.823 103.659 228.686 103.4C228.548 103.141 228.341 102.925 228.088 102.777L217.358 96.5832C217.288 96.5387 217.207 96.5136 217.123 96.5104Z" fill="#84C000"/>
<path d="M222.527 109.469C222.458 109.477 222.389 109.477 222.32 109.469C222.201 109.437 222.092 109.377 222.001 109.296C221.91 109.214 221.839 109.112 221.793 108.998L219.464 103.152C219.403 102.961 219.418 102.755 219.505 102.575C219.592 102.395 219.744 102.255 219.931 102.184C220.117 102.112 220.324 102.114 220.509 102.19C220.694 102.266 220.843 102.41 220.925 102.592L222.88 107.408L234.013 98.56C234.177 98.449 234.378 98.4042 234.574 98.4345C234.77 98.4648 234.948 98.5679 235.072 98.7234C235.195 98.8788 235.256 99.0751 235.241 99.2731C235.226 99.4711 235.138 99.6564 234.993 99.792L223.014 109.312C222.874 109.417 222.702 109.472 222.527 109.469Z" fill="#84C000"/>
<path d="M206.886 125.132C206.748 125.132 206.613 125.096 206.494 125.026L173.504 105.986C173.331 105.877 173.207 105.705 173.158 105.507C173.109 105.309 173.138 105.099 173.241 104.922C173.343 104.745 173.51 104.614 173.706 104.558C173.903 104.502 174.113 104.524 174.294 104.619L207.278 123.659C207.43 123.745 207.549 123.878 207.616 124.038C207.684 124.199 207.696 124.377 207.651 124.545C207.606 124.713 207.507 124.861 207.368 124.967C207.23 125.072 207.06 125.128 206.886 125.126V125.132Z" fill="#84C000"/>
<path d="M206.13 131.902C205.991 131.902 205.854 131.865 205.733 131.796L172.749 112.756C172.659 112.704 172.581 112.635 172.518 112.553C172.456 112.471 172.41 112.377 172.383 112.278C172.357 112.178 172.35 112.074 172.364 111.971C172.378 111.869 172.411 111.77 172.463 111.681C172.515 111.591 172.584 111.513 172.666 111.45C172.748 111.388 172.842 111.342 172.942 111.315C173.041 111.289 173.146 111.282 173.248 111.296C173.35 111.31 173.449 111.343 173.538 111.395L206.522 130.435C206.672 130.522 206.79 130.656 206.856 130.816C206.922 130.976 206.934 131.154 206.89 131.321C206.845 131.489 206.746 131.637 206.609 131.743C206.472 131.849 206.304 131.907 206.13 131.908V131.902Z" fill="#84C000"/>
<path d="M225.159 146.317C224.804 146.319 224.455 146.228 224.146 146.054L213.92 140.409C213.185 140.006 212.582 139.398 212.184 138.66C211.787 137.922 211.612 137.084 211.68 136.248L212.654 124.88C212.683 124.528 212.801 124.189 212.997 123.895C213.193 123.601 213.461 123.362 213.774 123.2C214.088 123.037 214.438 122.956 214.791 122.964C215.144 122.972 215.49 123.068 215.796 123.245L226.52 129.438C227.028 129.736 227.443 130.169 227.718 130.689C227.994 131.21 228.118 131.797 228.077 132.384L227.203 144.374C227.176 144.723 227.062 145.059 226.871 145.353C226.68 145.646 226.419 145.887 226.111 146.054C225.819 146.215 225.493 146.305 225.159 146.317ZM214.794 124.533C214.708 124.533 214.624 124.552 214.547 124.589C214.469 124.632 214.403 124.693 214.353 124.767C214.303 124.841 214.272 124.926 214.262 125.014L213.293 136.382C213.246 136.913 213.355 137.446 213.605 137.916C213.856 138.387 214.237 138.774 214.704 139.031L224.907 144.676C224.984 144.72 225.071 144.744 225.159 144.745C225.248 144.746 225.335 144.724 225.413 144.682C225.491 144.64 225.557 144.579 225.605 144.505C225.652 144.43 225.68 144.344 225.686 144.256L226.559 132.261C226.58 131.968 226.518 131.675 226.38 131.416C226.243 131.156 226.035 130.941 225.781 130.794L215.04 124.6C214.964 124.559 214.88 124.536 214.794 124.533Z" fill="#84C000"/>
<path d="M224.61 60.396C224.021 60.3983 223.442 60.2458 222.93 59.9536L208.88 52.0184C208.724 51.9307 208.604 51.7923 208.538 51.6264C207.859 49.8738 206.647 48.379 205.072 47.3536C204.512 47.0176 203.044 46.3512 202.272 47.4768C202.158 47.6345 201.99 47.7449 201.8 47.7872C201.61 47.8295 201.411 47.8008 201.241 47.7064L189.134 40.908C188.454 40.5152 187.889 39.9503 187.495 39.2702C187.102 38.59 186.895 37.8184 186.894 37.0328V28.42C186.895 27.4854 187.163 26.5706 187.667 25.7836C188.171 24.9967 188.89 24.3705 189.739 23.9792C189.853 23.9264 189.978 23.9019 190.104 23.9077C190.23 23.9136 190.352 23.9496 190.461 24.0128L229.359 46.6144C229.485 46.6867 229.589 46.7927 229.658 46.9207C229.728 47.0486 229.76 47.1933 229.752 47.3386C229.744 47.4839 229.696 47.6241 229.612 47.7435C229.529 47.8628 229.414 47.9566 229.28 48.0144C228.911 48.1766 228.596 48.443 228.375 48.7812C228.154 49.1194 228.037 49.5145 228.037 49.9184V56.9856C228.043 57.5805 227.89 58.1661 227.595 58.6827C227.3 59.1992 226.872 59.6281 226.357 59.9256C225.828 60.2368 225.224 60.3994 224.61 60.396ZM209.865 50.7808L223.708 58.5816C223.987 58.7393 224.302 58.8211 224.623 58.8189C224.943 58.8167 225.257 58.7305 225.534 58.569C225.81 58.4075 226.039 58.1763 226.199 57.8984C226.358 57.6206 226.442 57.3058 226.441 56.9856V49.9184C226.441 48.9609 226.817 48.0416 227.488 47.3592L190.024 25.592C189.548 25.8895 189.154 26.3017 188.878 26.7909C188.602 27.28 188.454 27.8305 188.445 28.392V37.0328C188.446 37.542 188.581 38.042 188.838 38.4818C189.095 38.9216 189.464 39.2853 189.907 39.536L201.426 46.0264C202.518 45.0632 204.17 45.0296 205.839 45.9928C207.644 47.1341 209.05 48.8068 209.865 50.7808Z" fill="#84C000"/>
<path d="M127.742 150.282L121.022 191.374C120.973 191.675 120.818 191.948 120.586 192.145C120.355 192.342 120.06 192.45 119.756 192.45C119.576 192.45 119.397 192.412 119.233 192.339C119.068 192.265 118.92 192.158 118.8 192.024C118.679 191.89 118.588 191.731 118.533 191.56C118.478 191.388 118.46 191.207 118.479 191.027L123.206 148.635L127.742 150.282Z" fill="#263238"/>
<path d="M104.496 136.461L97.7759 177.554C97.728 177.853 97.5748 178.126 97.3439 178.323C97.113 178.52 96.8195 178.629 96.5159 178.629C96.3355 178.629 96.1571 178.591 95.9923 178.518C95.8275 178.445 95.68 178.337 95.5595 178.203C95.439 178.069 95.3482 177.911 95.293 177.739C95.2378 177.567 95.2194 177.386 95.2391 177.206L99.9655 134.809L104.496 136.461Z" fill="#263238"/>
<path d="M138.079 140.672L144.726 176.086C144.788 176.355 144.95 176.59 145.179 176.744C145.408 176.897 145.687 176.957 145.959 176.911C146.231 176.865 146.476 176.717 146.642 176.497C146.808 176.277 146.884 176.002 146.854 175.728L141.949 142.906L138.079 140.672Z" fill="#263238"/>
<path d="M114.57 127.462L121.178 162.658C121.224 162.906 121.356 163.13 121.551 163.291C121.745 163.451 121.99 163.538 122.242 163.537C122.397 163.536 122.55 163.502 122.691 163.437C122.832 163.372 122.957 163.278 123.058 163.161C123.159 163.044 123.234 162.906 123.278 162.758C123.322 162.609 123.333 162.453 123.312 162.299L118.44 129.69L114.57 127.462Z" fill="#263238"/>
<path d="M116.48 124.785C118.01 124.114 119.335 123.048 120.319 121.697C121.303 120.346 121.911 118.759 122.08 117.096C123.15 106.316 126.946 84.0953 139.821 91.4929C155.702 100.621 150.019 127.137 147.706 135.638C147.189 137.553 146.183 139.301 144.788 140.711C141.915 143.606 135.974 148.585 125.871 152.818C124.63 153.341 123.247 153.424 121.951 153.054C116.911 151.626 103.818 147.23 97.2777 138.869C96.9065 138.394 96.7382 137.792 96.8095 137.194C96.8809 136.596 97.1861 136.051 97.6585 135.677C100.285 133.571 106.266 129.36 116.48 124.785Z" fill="#84C000"/>
<path opacity="0.5" d="M116.48 124.785C118.01 124.114 119.335 123.048 120.319 121.697C121.303 120.346 121.911 118.759 122.08 117.096C123.15 106.316 126.946 84.0953 139.821 91.4929C155.702 100.621 150.019 127.137 147.706 135.638C147.189 137.553 146.183 139.301 144.788 140.711C141.915 143.606 135.974 148.585 125.871 152.818C124.63 153.341 123.247 153.424 121.951 153.054C116.911 151.626 103.818 147.23 97.2777 138.869C96.9065 138.394 96.7382 137.792 96.8095 137.194C96.8809 136.596 97.1861 136.051 97.6585 135.677C100.285 133.571 106.266 129.36 116.48 124.785Z" fill="black"/>
<path d="M96.7846 137.351C96.7507 137.898 96.918 138.437 97.255 138.869C97.6078 139.317 97.9774 139.748 98.375 140.174C98.5822 140.403 98.8006 140.633 99.019 140.857C99.2374 141.081 99.4614 141.299 99.6854 141.512L100.374 142.15C100.609 142.363 100.85 142.57 101.091 142.778C104.798 145.891 109.301 148.26 113.321 149.974L114.066 150.282L114.145 150.315L114.828 150.59L114.951 150.64L115.589 150.892L115.735 150.948L116.334 151.172L116.502 151.234C116.693 151.306 116.872 151.374 117.062 151.435L117.258 151.508L117.768 151.687L117.981 151.76L118.451 151.922L118.675 152.001L119.101 152.141L119.341 152.219L119.728 152.342L119.985 152.426L120.316 152.527L120.596 152.617L120.87 152.701L121.212 152.802L121.385 152.852L121.867 152.992C123.162 153.362 124.545 153.279 125.787 152.757C135.867 148.523 141.831 143.545 144.704 140.65C146.099 139.24 147.104 137.491 147.621 135.576C149.934 127.075 155.618 100.559 139.737 91.4312C139.451 91.2688 139.177 91.1232 138.902 90.9944C138.844 90.9612 138.784 90.9313 138.723 90.9048C138.454 90.776 138.191 90.664 137.933 90.5632L137.855 90.5352C137.603 90.44 137.362 90.3616 137.116 90.2888L137.004 90.2552C136.746 90.1824 136.489 90.1264 136.237 90.076H136.169C135.667 89.9843 135.156 89.9467 134.646 89.964C134.159 89.9808 133.676 90.056 133.207 90.188C135.744 89.068 138.841 89.1184 141.909 90.8824C157.797 100.01 152.107 126.521 149.8 135.027L149.408 136.483C148.639 139.451 146.906 142.079 144.48 143.954L140.358 147.106C135.901 150.471 131.028 153.245 125.86 155.361C124.618 155.883 123.236 155.968 121.94 155.602C116.9 154.174 103.801 149.783 97.2606 141.417C96.9816 141.06 96.8176 140.626 96.7902 140.174V137.374L96.7846 137.351Z" fill="#84C000"/>
<path opacity="0.6" d="M96.7846 137.351C96.7507 137.898 96.918 138.437 97.255 138.869C97.6078 139.317 97.9774 139.748 98.375 140.174C98.5822 140.403 98.8006 140.633 99.019 140.857C99.2374 141.081 99.4614 141.299 99.6854 141.512L100.374 142.15C100.609 142.363 100.85 142.57 101.091 142.778C104.798 145.891 109.301 148.26 113.321 149.974L114.066 150.282L114.145 150.315L114.828 150.59L114.951 150.64L115.589 150.892L115.735 150.948L116.334 151.172L116.502 151.234C116.693 151.306 116.872 151.374 117.062 151.435L117.258 151.508L117.768 151.687L117.981 151.76L118.451 151.922L118.675 152.001L119.101 152.141L119.341 152.219L119.728 152.342L119.985 152.426L120.316 152.527L120.596 152.617L120.87 152.701L121.212 152.802L121.385 152.852L121.867 152.992C123.162 153.362 124.545 153.279 125.787 152.757C135.867 148.523 141.831 143.545 144.704 140.65C146.099 139.24 147.104 137.491 147.621 135.576C149.934 127.075 155.618 100.559 139.737 91.4312C139.451 91.2688 139.177 91.1232 138.902 90.9944C138.844 90.9612 138.784 90.9313 138.723 90.9048C138.454 90.776 138.191 90.664 137.933 90.5632L137.855 90.5352C137.603 90.44 137.362 90.3616 137.116 90.2888L137.004 90.2552C136.746 90.1824 136.489 90.1264 136.237 90.076H136.169C135.667 89.9843 135.156 89.9467 134.646 89.964C134.159 89.9808 133.676 90.056 133.207 90.188C135.744 89.068 138.841 89.1184 141.909 90.8824C157.797 100.01 152.107 126.521 149.8 135.027L149.408 136.483C148.639 139.451 146.906 142.079 144.48 143.954L140.358 147.106C135.901 150.471 131.028 153.245 125.86 155.361C124.618 155.883 123.236 155.968 121.94 155.602C116.9 154.174 103.801 149.783 97.2606 141.417C96.9816 141.06 96.8176 140.626 96.7902 140.174V137.374L96.7846 137.351Z" fill="black"/>
<path d="M117.667 231.93C118.077 232.137 118.53 232.245 118.989 232.245C119.448 232.245 119.901 232.137 120.31 231.93C121.044 231.51 121.044 230.81 120.31 230.406C119.901 230.197 119.448 230.087 118.989 230.087C118.529 230.087 118.076 230.197 117.667 230.406C116.939 230.826 116.939 231.51 117.667 231.93Z" fill="#37474F"/>
<path d="M117.113 231.123H120.854V186.122H117.113V231.123Z" fill="#37474F"/>
<path d="M160.16 206.97C160.57 207.178 161.022 207.286 161.481 207.286C161.941 207.286 162.393 207.178 162.803 206.97C163.537 206.545 163.537 205.85 162.803 205.442C162.393 205.234 161.941 205.126 161.481 205.126C161.022 205.126 160.57 205.234 160.16 205.442C159.449 205.862 159.449 206.545 160.16 206.97Z" fill="#263238"/>
<path d="M159.628 206.164H163.369V161.162H159.628V206.164Z" fill="#263238"/>
<path d="M47.9806 191.554C48.3895 191.763 48.8425 191.873 49.3022 191.873C49.7618 191.873 50.2148 191.763 50.6238 191.554C51.3574 191.134 51.3574 190.434 50.6238 190.03C50.214 189.823 49.7613 189.715 49.3022 189.715C48.843 189.715 48.3903 189.823 47.9806 190.03C47.2526 190.45 47.2526 191.134 47.9806 191.554Z" fill="#37474F"/>
<path d="M47.4262 190.753H51.167L51.167 145.751H47.4262L47.4262 190.753Z" fill="#37474F"/>
<path d="M93.6825 157.5C94.0491 157.688 94.455 157.786 94.8669 157.786C95.2788 157.786 95.6847 157.688 96.0513 157.5C96.1936 157.451 96.3171 157.359 96.4045 157.237C96.492 157.114 96.539 156.967 96.539 156.817C96.539 156.666 96.492 156.52 96.4045 156.397C96.3171 156.275 96.1936 156.183 96.0513 156.134C95.6847 155.946 95.2788 155.848 94.8669 155.848C94.455 155.848 94.0491 155.946 93.6825 156.134C93.5402 156.183 93.4167 156.275 93.3293 156.397C93.2418 156.52 93.1948 156.666 93.1948 156.817C93.1948 156.967 93.2418 157.114 93.3293 157.237C93.4167 157.359 93.5402 157.451 93.6825 157.5Z" fill="#455A64"/>
<path d="M93.1837 156.783H96.5381V119.23H93.1837V156.783Z" fill="#455A64"/>
<path d="M163.369 153.709V162.663L118.983 188.289V179.334L163.369 153.709Z" fill="#263238"/>
<path d="M47.4316 138.023L118.983 179.334V188.289L47.4316 146.978V138.023Z" fill="#37474F"/>
<path d="M91.8172 112.398L163.368 153.709L118.983 179.334L47.4316 138.023L91.8172 112.398Z" fill="#455A64"/>
<path opacity="0.2" d="M92.0413 156.682L59.1301 137.682C59.0511 137.636 58.9854 137.57 58.9398 137.491C58.8941 137.412 58.8701 137.322 58.8701 137.231C58.8701 137.139 58.8941 137.05 58.9398 136.971C58.9854 136.891 59.0511 136.826 59.1301 136.78L65.4637 133.123C65.544 133.081 65.6334 133.059 65.7241 133.059C65.8148 133.059 65.9042 133.081 65.9845 133.123L98.8957 152.124C98.9735 152.17 99.0379 152.236 99.0827 152.314C99.1274 152.393 99.151 152.482 99.151 152.572C99.151 152.662 99.1274 152.751 99.0827 152.83C99.0379 152.908 98.9735 152.974 98.8957 153.02L92.5565 156.682C92.4778 156.727 92.3891 156.75 92.2989 156.75C92.2087 156.75 92.12 156.727 92.0413 156.682Z" fill="black"/>
<path d="M123.553 171.64L104.356 160.44C104.313 160.415 104.277 160.379 104.253 160.336C104.228 160.292 104.215 160.243 104.215 160.194C104.215 160.144 104.228 160.095 104.253 160.052C104.277 160.008 104.313 159.972 104.356 159.947L125.636 146.832L123.553 171.64Z" fill="#84C000"/>
<path opacity="0.4" d="M123.553 171.64L104.356 160.44C104.313 160.415 104.277 160.379 104.253 160.336C104.228 160.292 104.215 160.243 104.215 160.194C104.215 160.144 104.228 160.095 104.253 160.052C104.277 160.008 104.313 159.972 104.356 159.947L125.636 146.832L123.553 171.64Z" fill="black"/>
<path d="M123.553 171.64L144.956 159.247V153.614L123.553 165.956V171.64Z" fill="#84C000"/>
<path opacity="0.2" d="M123.553 171.64L144.956 159.247V153.614L123.553 165.956V171.64Z" fill="black"/>
<path d="M140.778 160.115L132.328 164.993C131.768 165.318 131.309 164.993 131.309 164.226C131.315 163.845 131.411 163.47 131.588 163.133C131.765 162.796 132.018 162.504 132.328 162.282L140.778 157.399C141.338 157.074 141.797 157.399 141.797 158.172C141.792 158.553 141.697 158.928 141.52 159.265C141.343 159.603 141.089 159.894 140.778 160.115Z" fill="#E6E6E6"/>
<path d="M130.071 164.942C130.05 165.35 129.932 165.747 129.728 166.1C129.523 166.454 129.238 166.754 128.895 166.975C128.246 167.35 127.719 167.048 127.719 166.298C127.741 165.89 127.86 165.494 128.064 165.14C128.268 164.787 128.553 164.487 128.895 164.265C129.545 163.89 130.071 164.192 130.071 164.942Z" fill="#E6E6E6"/>
<path d="M123.553 165.956L104.434 156.968C104.387 156.945 104.347 156.911 104.318 156.867C104.289 156.824 104.272 156.774 104.269 156.721C104.267 156.669 104.278 156.617 104.302 156.571C104.326 156.525 104.362 156.486 104.406 156.458L124.919 144.262C125.034 144.193 125.165 144.154 125.299 144.149C125.433 144.144 125.566 144.173 125.686 144.234L144.956 153.614L123.553 165.956Z" fill="#84C000"/>
<path d="M105.667 157.545V159.964L121.503 168.924V164.993L105.667 157.545Z" fill="#F5F5F5"/>
<path d="M121.503 168.924L123.553 167.642V165.956L121.503 164.993V168.924Z" fill="#E0E0E0"/>
<path d="M104.266 154.638V148.4H139.171C139.289 148.4 143.035 150.354 144.693 151.2C144.767 151.241 144.83 151.301 144.873 151.375C144.916 151.448 144.939 151.532 144.939 151.617C144.939 151.702 144.916 151.786 144.873 151.86C144.83 151.933 144.767 151.993 144.693 152.034L124.023 163.744C123.877 163.824 123.714 163.868 123.547 163.873C123.381 163.878 123.216 163.843 123.065 163.772L104.266 154.638Z" fill="#84C000"/>
<path opacity="0.4" d="M104.266 154.638V148.4H139.171C139.289 148.4 143.035 150.354 144.693 151.2C144.767 151.241 144.83 151.301 144.873 151.375C144.916 151.448 144.939 151.532 144.939 151.617C144.939 151.702 144.916 151.786 144.873 151.86C144.83 151.933 144.767 151.993 144.693 152.034L124.023 163.744C123.877 163.824 123.714 163.868 123.547 163.873C123.381 163.878 123.216 163.843 123.065 163.772L104.266 154.638Z" fill="black"/>
<path d="M123.553 162.266L143.354 151.133V148.714L123.553 159.247V162.266Z" fill="#E0E0E0"/>
<path d="M104.266 154.638L109.446 151.609L104.266 148.389V154.638Z" fill="#84C000"/>
<path opacity="0.6" d="M104.266 154.638L109.446 151.609L104.266 148.389V154.638Z" fill="black"/>
<path d="M107.537 150.422V153.871L123.553 162.266V159.247L107.537 150.422Z" fill="#F5F5F5"/>
<path d="M104.266 148.4L122.886 159.499C123.09 159.621 123.321 159.689 123.559 159.695C123.796 159.702 124.031 159.648 124.241 159.538L144.765 148.786C144.838 148.747 144.899 148.69 144.943 148.62C144.986 148.55 145.011 148.47 145.015 148.387C145.018 148.305 145 148.223 144.962 148.149C144.924 148.076 144.868 148.014 144.799 147.969L126.061 135.789L104.266 148.4Z" fill="#84C000"/>
<path d="M112 135.296V136.584L103.757 141.238V139.95L112 135.296Z" fill="#84C000"/>
<path opacity="0.2" d="M112 135.296V136.584L103.757 141.238V139.95L112 135.296Z" fill="white"/>
<path d="M84.9463 129.08L103.757 139.95V141.238L84.9463 130.368V129.08Z" fill="#84C000"/>
<path opacity="0.4" d="M84.9463 129.08L103.757 139.95V141.238L84.9463 130.368V129.08Z" fill="white"/>
<path d="M93.1895 124.426L112 135.296L103.757 139.95L84.9463 129.08L93.1895 124.426Z" fill="#84C000"/>
<path opacity="0.6" d="M93.1895 124.426L112 135.296L103.757 139.95L84.9463 129.08L93.1895 124.426Z" fill="white"/>
<path d="M96.9077 147.403L97.7477 147.89V149.425C98.2897 149.428 98.8223 149.283 99.2877 149.005L99.3493 148.966C99.5425 148.85 99.7104 148.697 99.8432 148.515C99.9759 148.333 100.071 148.126 100.122 147.907C100.152 147.813 100.167 147.715 100.167 147.616V145.522L96.9077 147.403Z" fill="#E0E0E0"/>
<path d="M60.312 90.8264L60.3792 90.7872C60.8458 90.5121 61.3776 90.367 61.9192 90.3672C62.0904 90.3642 62.2591 90.4088 62.4064 90.496L98.7 111.362C99.1459 111.62 99.5161 111.99 99.7736 112.437C100.031 112.883 100.167 113.389 100.167 113.904V145.522L96.908 147.403L62.4344 127.585C61.9885 127.327 61.6183 126.956 61.3608 126.51C61.1033 126.064 60.9676 125.558 60.9672 125.042V92.26H59.5C59.5008 91.9714 59.576 91.6879 59.7182 91.4368C59.8604 91.1857 60.0649 90.9755 60.312 90.8264Z" fill="#E6E6E6"/>
<path d="M99.8534 112.588C100.059 112.996 100.166 113.447 100.167 113.904V145.522L96.9078 147.403L95.687 146.72V115.192L99.8534 112.588Z" fill="#E0E0E0"/>
<path d="M98.7 146.367V148.467C98.6991 148.636 98.6539 148.801 98.569 148.947C98.484 149.093 98.3624 149.213 98.2161 149.297C98.0698 149.381 97.9041 149.425 97.7355 149.425C97.5668 149.425 97.4012 149.38 97.2552 149.296L60.9672 128.43C60.5213 128.172 60.1511 127.802 59.8936 127.355C59.6361 126.909 59.5004 126.403 59.5 125.888V123.76L98.7 146.367Z" fill="#F0F0F0"/>
<path d="M59.5 92.176C59.5 92.0069 59.5444 91.8407 59.629 91.6943C59.7135 91.5478 59.8351 91.4262 59.9815 91.3416C60.1279 91.2571 60.294 91.2125 60.4631 91.2125C60.6322 91.2125 60.7984 91.257 60.9448 91.3416L97.2328 112.213C97.6794 112.47 98.0503 112.84 98.3079 113.287C98.5655 113.733 98.7008 114.24 98.7 114.755V146.367L59.5 123.738" fill="#F0F0F0"/>
<path d="M80.3935 129.074L73.4775 125.58L75.1687 124.426L81.8271 127.926L80.3935 129.074Z" fill="#E0E0E0"/>
<path d="M73.4775 125.574L69.4791 141.467C69.4177 141.714 69.4392 141.973 69.5405 142.206C69.6417 142.439 69.817 142.632 70.0391 142.755L78.3047 147.403C78.3047 147.403 80.8751 129.315 80.3991 129.074L73.4775 125.574Z" fill="#E6E6E6"/>
<path d="M82.6558 143.847L79.811 142.122L79.2622 145.981L82.6558 143.847Z" fill="#F0F0F0"/>
<path d="M80.3936 129.074L77.84 146.535C77.8157 146.694 77.8386 146.857 77.9057 147.003C77.9729 147.149 78.0813 147.272 78.2177 147.357C78.3541 147.443 78.5125 147.486 78.6733 147.482C78.834 147.478 78.9901 147.428 79.1224 147.336L82.404 145.096C82.5229 145.017 82.6203 144.909 82.6877 144.783C82.7552 144.657 82.7904 144.516 82.7904 144.374V144.038C82.7906 143.991 82.7781 143.946 82.7542 143.906C82.7303 143.866 82.6959 143.834 82.6548 143.813C82.6137 143.791 82.5675 143.781 82.5213 143.785C82.4751 143.788 82.4306 143.804 82.3928 143.83L79.2792 145.964L81.844 127.915L80.3936 129.074Z" fill="#E0E0E0"/>
<path d="M80.2142 120.176C80.2142 121.705 79.139 122.326 77.8118 121.559C77.1145 121.103 76.5343 120.489 76.118 119.767C75.7016 119.046 75.4608 118.236 75.415 117.404C75.415 115.875 76.4902 115.254 77.8118 116.021C78.5108 116.476 79.0926 117.089 79.51 117.811C79.9275 118.533 80.1687 119.343 80.2142 120.176Z" fill="#E0E0E0"/>
<path d="M53.1663 206.875L75.1575 194.281L57.6967 184.654L36.4727 197.148L53.1663 206.875Z" fill="white"/>
<path d="M53.9277 204.775C53.8924 204.774 53.8579 204.764 53.8269 204.747L41.0589 197.305C41.0333 197.294 41.0104 197.278 40.9916 197.257C40.9728 197.237 40.9586 197.213 40.9498 197.186C40.9411 197.16 40.9381 197.132 40.941 197.104C40.9439 197.077 40.9526 197.05 40.9666 197.026C40.9806 197.002 40.9996 196.981 41.0222 196.965C41.0448 196.949 41.0706 196.938 41.0979 196.932C41.1252 196.927 41.1533 196.927 41.1803 196.934C41.2074 196.94 41.2328 196.952 41.2549 196.969L54.0229 204.4C54.0454 204.413 54.0652 204.43 54.081 204.45C54.0969 204.471 54.1086 204.494 54.1153 204.519C54.1221 204.544 54.1238 204.57 54.1205 204.596C54.1171 204.622 54.1087 204.646 54.0957 204.669C54.0797 204.7 54.0557 204.726 54.0262 204.745C53.9966 204.764 53.9626 204.774 53.9277 204.775Z" fill="#E0E0E0"/>
<path d="M55.9997 203.504C55.9685 203.512 55.9357 203.512 55.9045 203.504L43.1533 196.034C43.1314 196.021 43.1123 196.004 43.0971 195.984C43.0818 195.964 43.0708 195.941 43.0645 195.916C43.0583 195.892 43.0569 195.866 43.0607 195.841C43.0644 195.816 43.073 195.792 43.0861 195.77C43.0983 195.748 43.1149 195.728 43.1349 195.713C43.1549 195.697 43.1778 195.685 43.2023 195.678C43.2269 195.672 43.2525 195.67 43.2778 195.673C43.303 195.676 43.3273 195.685 43.3493 195.698L56.1229 203.14C56.1674 203.167 56.1995 203.21 56.2121 203.26C56.2247 203.311 56.2168 203.364 56.1901 203.409C56.1715 203.442 56.1434 203.469 56.1095 203.485C56.0755 203.502 56.0373 203.509 55.9997 203.504Z" fill="#E0E0E0"/>
<path d="M58.0606 202.289C58.0294 202.297 57.9966 202.297 57.9654 202.289L45.1918 194.824C45.1472 194.797 45.1151 194.754 45.1025 194.704C45.0899 194.653 45.0979 194.6 45.1246 194.555C45.1368 194.533 45.1534 194.513 45.1734 194.497C45.1933 194.482 45.2162 194.47 45.2408 194.463C45.2653 194.456 45.291 194.455 45.3162 194.458C45.3415 194.461 45.3658 194.47 45.3878 194.482L58.1614 201.93C58.1999 201.951 58.2303 201.984 58.2474 202.024C58.2646 202.064 58.2676 202.108 58.2558 202.15C58.244 202.192 58.2182 202.229 58.1826 202.254C58.1471 202.279 58.104 202.292 58.0606 202.289Z" fill="#E0E0E0"/>
<path d="M60.1604 201.04C60.1251 201.039 60.0906 201.029 60.0596 201.012L47.2916 193.57C47.2472 193.543 47.2149 193.5 47.2013 193.45C47.1878 193.4 47.194 193.346 47.2188 193.301C47.2315 193.278 47.2487 193.258 47.2693 193.243C47.2899 193.227 47.3135 193.215 47.3387 193.209C47.3639 193.203 47.3901 193.202 47.4157 193.206C47.4413 193.21 47.4658 193.22 47.4876 193.234L60.2556 200.676C60.2779 200.688 60.2976 200.705 60.3134 200.725C60.3292 200.745 60.3408 200.768 60.3476 200.792C60.3544 200.817 60.3562 200.842 60.3529 200.868C60.3496 200.893 60.3413 200.917 60.3284 200.939C60.3117 200.969 60.2874 200.994 60.2579 201.012C60.2284 201.03 60.1948 201.039 60.1604 201.04Z" fill="#E0E0E0"/>
<path d="M62.2549 199.752C62.2213 199.751 62.1884 199.742 62.1597 199.724L49.3861 192.282C49.3416 192.255 49.3095 192.212 49.2969 192.161C49.2843 192.111 49.2922 192.057 49.3189 192.013C49.331 191.99 49.3477 191.971 49.3678 191.955C49.3879 191.939 49.4111 191.928 49.4358 191.922C49.4605 191.915 49.4863 191.914 49.5115 191.918C49.5366 191.922 49.5607 191.932 49.5821 191.946L62.3557 199.388C62.3776 199.401 62.3967 199.418 62.4119 199.438C62.4272 199.458 62.4382 199.481 62.4445 199.506C62.4508 199.53 62.4521 199.556 62.4484 199.581C62.4447 199.606 62.436 199.63 62.4229 199.651C62.4062 199.681 62.3819 199.706 62.3524 199.724C62.3229 199.742 62.2893 199.751 62.2549 199.752Z" fill="#E0E0E0"/>
<path d="M64.3549 198.481C64.3196 198.479 64.2851 198.47 64.2541 198.453L51.4861 191.01C51.4606 191 51.4377 190.983 51.4189 190.963C51.4001 190.942 51.3858 190.918 51.3771 190.892C51.3684 190.865 51.3654 190.837 51.3683 190.81C51.3711 190.782 51.3799 190.756 51.3939 190.732C51.4079 190.708 51.4268 190.687 51.4495 190.671C51.4721 190.655 51.4979 190.643 51.5252 190.638C51.5524 190.633 51.5805 190.633 51.6076 190.639C51.6346 190.646 51.66 190.658 51.6821 190.674L64.4501 198.117C64.4725 198.129 64.4921 198.146 64.5079 198.166C64.5237 198.186 64.5354 198.209 64.5421 198.233C64.5489 198.258 64.5507 198.283 64.5474 198.309C64.5441 198.334 64.5358 198.358 64.5229 198.38C64.5058 198.41 64.4814 198.435 64.452 198.452C64.4226 198.47 64.3892 198.48 64.3549 198.481Z" fill="#E0E0E0"/>
<path d="M66.4492 197.21C66.4156 197.209 66.3827 197.199 66.354 197.182L53.5804 189.739C53.5359 189.713 53.5038 189.669 53.4912 189.619C53.4786 189.568 53.4865 189.515 53.5132 189.47C53.526 189.449 53.5429 189.429 53.5631 189.414C53.5832 189.399 53.6062 189.388 53.6308 189.382C53.6553 189.375 53.6808 189.374 53.7058 189.378C53.7308 189.381 53.7548 189.39 53.7764 189.403L66.55 196.846C66.5719 196.858 66.591 196.875 66.6063 196.895C66.6215 196.916 66.6326 196.939 66.6388 196.963C66.6451 196.988 66.6464 197.013 66.6427 197.038C66.639 197.063 66.6303 197.087 66.6172 197.109C66.6015 197.14 66.5774 197.166 66.5477 197.183C66.518 197.201 66.4839 197.21 66.4492 197.21Z" fill="#E0E0E0"/>
<path d="M68.5493 195.938C68.514 195.937 68.4795 195.927 68.4485 195.91L55.6805 188.468C55.6549 188.457 55.632 188.441 55.6132 188.42C55.5944 188.4 55.5802 188.376 55.5714 188.349C55.5627 188.323 55.5597 188.295 55.5626 188.267C55.5655 188.24 55.5742 188.213 55.5882 188.189C55.6022 188.165 55.6212 188.144 55.6438 188.128C55.6664 188.112 55.6922 188.101 55.7195 188.096C55.7467 188.09 55.7748 188.091 55.8019 188.097C55.829 188.103 55.8544 188.115 55.8765 188.132L68.6445 195.574C68.667 195.587 68.6868 195.604 68.7026 195.625C68.7185 195.645 68.7301 195.669 68.7369 195.694C68.7437 195.719 68.7454 195.745 68.7421 195.77C68.7387 195.796 68.7303 195.821 68.7173 195.843C68.6999 195.872 68.6752 195.896 68.6458 195.913C68.6164 195.93 68.5831 195.938 68.5493 195.938Z" fill="#E0E0E0"/>
<path d="M70.6441 194.667C70.6104 194.667 70.5776 194.657 70.5489 194.639L57.7753 187.197C57.7307 187.17 57.6986 187.127 57.686 187.076C57.6734 187.026 57.6814 186.973 57.7081 186.928C57.7208 186.906 57.7377 186.887 57.7579 186.872C57.7781 186.857 57.8011 186.846 57.8256 186.839C57.8501 186.833 57.8756 186.832 57.9006 186.835C57.9256 186.839 57.9496 186.848 57.9713 186.861L70.7449 194.32C70.7894 194.347 70.8215 194.39 70.8341 194.441C70.8467 194.491 70.8388 194.544 70.8121 194.589C70.7931 194.615 70.7677 194.636 70.7383 194.65C70.7089 194.664 70.6764 194.67 70.6441 194.667Z" fill="#E0E0E0"/>
<path d="M36.54 197.086L53.228 206.814V221.766L36.54 212.548V197.086Z" fill="#FAFAFA"/>
<path d="M53.228 206.814L75.2192 194.219V208.998L53.228 221.766V206.814Z" fill="#E6E6E6"/>
<path d="M49.6382 208.275L53.2278 210.37L60.995 205.923L53.2278 211.506L49.6382 208.275Z" fill="#E0E0E0"/>
<path d="M49.6382 213.478L53.2278 215.572L57.6182 213.063L53.2278 216.709L49.6382 213.478Z" fill="#E0E0E0"/>
<path d="M55.3169 211.07L58.0609 211.887L60.1609 208.712L55.3169 211.07Z" fill="#E0E0E0"/>
<path d="M55.3169 211.07L63.5993 206.354L59.4609 211.07H55.3169Z" fill="white"/>
<path d="M67.7148 200.934L69.658 201.516L71.142 199.265L67.7148 200.934Z" fill="#E0E0E0"/>
<path d="M67.7148 200.934L73.578 197.596L70.6436 200.934H67.7148Z" fill="white"/>
<path d="M63.5205 212.05L65.4637 212.632L66.9477 210.381L63.5205 212.05Z" fill="#E0E0E0"/>
<path d="M63.5205 212.05L69.3837 208.712L66.4493 212.05H63.5205Z" fill="white"/>
<path d="M87.2086 241.237L68.0118 230.037C67.9688 230.012 67.9332 229.976 67.9084 229.932C67.8836 229.889 67.8706 229.84 67.8706 229.79C67.8706 229.741 67.8836 229.692 67.9084 229.648C67.9332 229.605 67.9688 229.569 68.0118 229.544L89.2918 216.429L87.2086 241.237Z" fill="#84C000"/>
<path opacity="0.4" d="M87.2086 241.237L68.0118 230.037C67.9688 230.012 67.9332 229.976 67.9084 229.932C67.8836 229.889 67.8706 229.84 67.8706 229.79C67.8706 229.741 67.8836 229.692 67.9084 229.648C67.9332 229.605 67.9688 229.569 68.0118 229.544L89.2918 216.429L87.2086 241.237Z" fill="black"/>
<path d="M87.2085 241.237L108.612 228.844V223.21L87.2085 235.553V241.237Z" fill="#84C000"/>
<path opacity="0.2" d="M87.2085 241.237L108.612 228.844V223.21L87.2085 235.553V241.237Z" fill="black"/>
<path d="M104.434 229.712L95.984 234.595C95.424 234.92 94.9648 234.595 94.9648 233.822C94.97 233.441 95.065 233.067 95.2421 232.729C95.4192 232.391 95.6734 232.1 95.984 231.879L104.434 227.002C104.994 226.677 105.454 227.002 105.454 227.769C105.447 228.15 105.352 228.524 105.175 228.861C104.998 229.199 104.744 229.49 104.434 229.712Z" fill="#E6E6E6"/>
<path d="M93.7214 234.539C93.6992 234.947 93.5811 235.345 93.3768 235.699C93.1725 236.053 92.8877 236.354 92.5454 236.578C91.9014 236.953 91.375 236.645 91.375 235.9C91.3971 235.492 91.5144 235.096 91.7177 234.742C91.921 234.388 92.2045 234.086 92.5454 233.862C93.195 233.486 93.7214 233.789 93.7214 234.539Z" fill="#E6E6E6"/>
<path d="M87.2088 235.553L68.0848 226.565C68.0391 226.541 68.0009 226.504 67.9743 226.46C67.9477 226.415 67.9336 226.365 67.9336 226.313C67.9336 226.261 67.9477 226.21 67.9743 226.166C68.0009 226.122 68.0391 226.085 68.0848 226.061L88.592 213.864C88.7077 213.794 88.8391 213.754 88.9741 213.749C89.1091 213.743 89.2435 213.771 89.3648 213.83L108.64 223.21L87.2088 235.553Z" fill="#84C000"/>
<path d="M69.3169 227.147V229.561L85.1593 238.521V234.59L69.3169 227.147Z" fill="#F5F5F5"/>
<path d="M85.1592 238.521L87.2088 237.244V235.553L85.1592 234.59V238.521Z" fill="#E0E0E0"/>
<path d="M67.9224 224.235V217.991H102.822C102.945 217.991 106.691 219.94 108.349 220.791C108.423 220.833 108.485 220.894 108.529 220.968C108.572 221.042 108.595 221.126 108.595 221.211C108.595 221.297 108.572 221.381 108.529 221.455C108.485 221.528 108.423 221.589 108.349 221.631L87.668 233.324C87.5229 233.407 87.3596 233.453 87.1927 233.458C87.0257 233.462 86.86 233.426 86.7104 233.352L67.9224 224.235Z" fill="#84C000"/>
<path opacity="0.4" d="M67.9224 224.235V217.991H102.822C102.945 217.991 106.691 219.94 108.349 220.791C108.423 220.833 108.485 220.894 108.529 220.968C108.572 221.042 108.595 221.126 108.595 221.211C108.595 221.297 108.572 221.381 108.529 221.455C108.485 221.528 108.423 221.589 108.349 221.631L87.668 233.324C87.5229 233.407 87.3596 233.453 87.1927 233.458C87.0257 233.462 86.86 233.426 86.7104 233.352L67.9224 224.235Z" fill="black"/>
<path d="M87.2085 231.868L107.01 220.73V218.31L87.2085 228.844V231.868Z" fill="#E0E0E0"/>
<path d="M67.9224 224.235L73.1024 221.206L67.9224 217.991V224.235Z" fill="#84C000"/>
<path opacity="0.6" d="M67.9224 224.235L73.1024 221.206L67.9224 217.991V224.235Z" fill="black"/>
<path d="M71.1929 220.018V223.468L87.2089 231.868V228.844L71.1929 220.018Z" fill="#F5F5F5"/>
<path d="M67.9224 217.991L86.5424 229.085C86.7447 229.208 86.9754 229.276 87.212 229.283C87.4486 229.29 87.6829 229.235 87.892 229.124L108.422 218.4C108.492 218.358 108.551 218.298 108.592 218.226C108.632 218.155 108.654 218.074 108.654 217.991C108.654 217.909 108.632 217.828 108.592 217.756C108.551 217.685 108.492 217.625 108.422 217.582L89.6896 205.408L67.9224 217.991Z" fill="#84C000"/>
<path d="M87.2086 227.147L68.0118 215.947C67.9688 215.922 67.9332 215.886 67.9084 215.843C67.8836 215.8 67.8706 215.751 67.8706 215.701C67.8706 215.651 67.8836 215.602 67.9084 215.559C67.9332 215.516 67.9688 215.48 68.0118 215.454L89.2918 202.339L87.2086 227.147Z" fill="#84C000"/>
<path opacity="0.4" d="M87.2086 227.147L68.0118 215.947C67.9688 215.922 67.9332 215.886 67.9084 215.843C67.8836 215.8 67.8706 215.751 67.8706 215.701C67.8706 215.651 67.8836 215.602 67.9084 215.559C67.9332 215.516 67.9688 215.48 68.0118 215.454L89.2918 202.339L87.2086 227.147Z" fill="black"/>
<path d="M87.2085 227.147L108.612 214.754V209.121L87.2085 221.463V227.147Z" fill="#84C000"/>
<path opacity="0.2" d="M87.2085 227.147L108.612 214.754V209.121L87.2085 221.463V227.147Z" fill="black"/>
<path d="M104.434 215.6L95.984 220.478C95.424 220.802 94.9648 220.478 94.9648 219.71C94.97 219.329 95.065 218.955 95.2421 218.617C95.4192 218.279 95.6734 217.988 95.984 217.767L104.434 212.884C104.994 212.559 105.454 212.884 105.454 213.657C105.447 214.038 105.352 214.412 105.175 214.749C104.998 215.087 104.744 215.378 104.434 215.6Z" fill="#E6E6E6"/>
<path d="M93.7214 220.45C93.7001 220.857 93.5824 221.254 93.3779 221.607C93.1735 221.961 92.8882 222.261 92.5454 222.482C91.9014 222.858 91.375 222.555 91.375 221.805C91.397 221.398 91.5144 221.002 91.7178 220.649C91.9211 220.296 92.2046 219.995 92.5454 219.772C93.195 219.397 93.7214 219.699 93.7214 220.45Z" fill="#E6E6E6"/>
<path d="M87.2088 221.463L68.0848 212.475C68.0393 212.45 68.0013 212.413 67.9749 212.368C67.9485 212.324 67.9346 212.272 67.9346 212.22C67.9346 212.168 67.9485 212.117 67.9749 212.073C68.0013 212.028 68.0393 211.991 68.0848 211.966L88.592 199.769C88.7081 199.7 88.8398 199.661 88.9748 199.656C89.1099 199.651 89.2439 199.68 89.3648 199.741L108.64 209.121L87.2088 221.463Z" fill="#84C000"/>
<path d="M69.3169 213.052V215.471L85.1593 224.431V220.5L69.3169 213.052Z" fill="#F5F5F5"/>
<path d="M85.1592 224.431L87.2088 223.149V221.463L85.1592 220.5V224.431Z" fill="#E0E0E0"/>
<path d="M67.9502 209.737V203.487H102.849C102.967 203.487 106.713 205.442 108.371 206.287C108.446 206.328 108.508 206.389 108.551 206.462C108.595 206.536 108.618 206.619 108.618 206.705C108.618 206.79 108.595 206.873 108.551 206.947C108.508 207.02 108.446 207.081 108.371 207.122L87.6846 218.82C87.5373 218.896 87.3742 218.935 87.2086 218.935C87.043 218.935 86.8799 218.896 86.7326 218.82L67.9502 209.737Z" fill="#84C000"/>
<path opacity="0.4" d="M67.9502 209.737V203.487H102.849C102.967 203.487 106.713 205.442 108.371 206.287C108.446 206.328 108.508 206.389 108.551 206.462C108.595 206.536 108.618 206.619 108.618 206.705C108.618 206.79 108.595 206.873 108.551 206.947C108.508 207.02 108.446 207.081 108.371 207.122L87.6846 218.82C87.5373 218.896 87.3742 218.935 87.2086 218.935C87.043 218.935 86.8799 218.896 86.7326 218.82L67.9502 209.737Z" fill="black"/>
<path d="M87.231 217.364L107.038 206.226V203.806L87.231 214.346V217.364Z" fill="#E0E0E0"/>
<path d="M67.9502 209.737L73.1246 206.707L67.9502 203.487V209.737Z" fill="#84C000"/>
<path opacity="0.6" d="M67.9502 209.737L73.1246 206.707L67.9502 203.487V209.737Z" fill="black"/>
<path d="M71.2148 205.52V208.97L87.2308 217.364V214.346L71.2148 205.52Z" fill="#F5F5F5"/>
<path d="M67.9502 203.487L86.5702 214.586C86.7729 214.708 87.0035 214.776 87.2399 214.783C87.4762 214.79 87.7104 214.736 87.9198 214.626L108.449 203.874C108.522 203.834 108.582 203.776 108.626 203.706C108.669 203.636 108.693 203.555 108.696 203.473C108.699 203.39 108.68 203.309 108.642 203.236C108.603 203.163 108.547 203.101 108.477 203.056L89.7398 190.876L67.9502 203.487Z" fill="#84C000"/>
<path d="M87.2308 212.643L68.0396 201.443C67.9966 201.418 67.961 201.382 67.9362 201.339C67.9115 201.296 67.8984 201.247 67.8984 201.197C67.8984 201.147 67.9115 201.098 67.9362 201.055C67.961 201.012 67.9966 200.976 68.0396 200.95L89.3196 187.841L87.2308 212.643Z" fill="#84C000"/>
<path opacity="0.4" d="M87.2308 212.643L68.0396 201.443C67.9966 201.418 67.961 201.382 67.9362 201.339C67.9115 201.296 67.8984 201.247 67.8984 201.197C67.8984 201.147 67.9115 201.098 67.9362 201.055C67.961 201.012 67.9966 200.976 68.0396 200.95L89.3196 187.841L87.2308 212.643Z" fill="black"/>
<path d="M87.231 212.643L108.634 200.25V194.622L87.231 206.959V212.643Z" fill="#84C000"/>
<path opacity="0.2" d="M87.231 212.643L108.634 200.25V194.622L87.231 206.959V212.643Z" fill="black"/>
<path d="M104.462 201.124L96.0063 206.002C95.4463 206.326 94.9927 206.002 94.9927 205.234C94.9981 204.853 95.0925 204.478 95.2685 204.14C95.4445 203.802 95.6972 203.509 96.0063 203.286L104.462 198.408C105.022 198.083 105.476 198.408 105.476 199.175C105.47 199.557 105.376 199.931 105.2 200.27C105.024 200.608 104.771 200.901 104.462 201.124Z" fill="#E6E6E6"/>
<path d="M93.7495 205.951C93.7268 206.359 93.6085 206.755 93.4042 207.108C93.1999 207.461 92.9153 207.761 92.5735 207.984C91.9239 208.359 91.3975 208.057 91.3975 207.306C91.4197 206.898 91.5377 206.501 91.7421 206.147C91.9464 205.793 92.2312 205.492 92.5735 205.268C93.2231 204.898 93.7495 205.201 93.7495 205.951Z" fill="#E6E6E6"/>
<path d="M87.231 206.959L68.1126 197.999C68.0671 197.974 68.0292 197.937 68.0028 197.892C67.9763 197.848 67.9624 197.796 67.9624 197.744C67.9624 197.692 67.9763 197.641 68.0028 197.597C68.0292 197.552 68.0671 197.515 68.1126 197.49L88.6198 185.293C88.736 185.224 88.8673 185.185 89.002 185.18C89.1368 185.174 89.2709 185.201 89.3926 185.259L108.64 194.622L87.231 206.959Z" fill="#84C000"/>
<path d="M69.3447 198.554V200.967L85.1871 209.933V205.996L69.3447 198.554Z" fill="#F5F5F5"/>
<path d="M85.187 209.933L87.231 208.65V206.959L85.187 205.996V209.933Z" fill="#E0E0E0"/>
<path d="M86.699 190.73L108.69 178.136L91.2238 168.51L70.0054 181.003L86.699 190.73Z" fill="#FAFAFA"/>
<path d="M87.4551 188.625C87.4239 188.633 87.3912 188.633 87.3599 188.625L74.5919 181.16C74.5694 181.147 74.5496 181.13 74.5338 181.11C74.5179 181.089 74.5063 181.066 74.4995 181.041C74.4927 181.016 74.491 180.99 74.4943 180.964C74.4977 180.938 74.5061 180.914 74.5191 180.891C74.5318 180.869 74.5488 180.85 74.569 180.835C74.5891 180.82 74.6121 180.809 74.6366 180.802C74.6611 180.796 74.6866 180.795 74.7117 180.799C74.7367 180.802 74.7607 180.811 74.7823 180.824L87.5559 188.266C87.5783 188.279 87.5979 188.295 87.6137 188.315C87.6295 188.335 87.6412 188.358 87.6479 188.383C87.6547 188.407 87.6565 188.433 87.6532 188.458C87.6499 188.483 87.6416 188.508 87.6287 188.53C87.61 188.559 87.5844 188.583 87.554 188.599C87.5237 188.616 87.4897 188.625 87.4551 188.625Z" fill="#E0E0E0"/>
<path d="M89.5549 187.354C89.5238 187.362 89.4909 187.362 89.4597 187.354L76.6861 179.911C76.6418 179.884 76.6094 179.842 76.5959 179.791C76.5823 179.741 76.5886 179.688 76.6133 179.642C76.626 179.62 76.6432 179.6 76.6638 179.584C76.6845 179.569 76.7081 179.557 76.7332 179.551C76.7584 179.545 76.7846 179.543 76.8102 179.548C76.8358 179.552 76.8603 179.561 76.8821 179.575L89.6501 187.018C89.6881 187.038 89.7181 187.07 89.7352 187.11C89.7524 187.149 89.7558 187.193 89.7447 187.235C89.7337 187.276 89.7089 187.313 89.6745 187.338C89.64 187.364 89.5979 187.377 89.5549 187.376V187.354Z" fill="#E0E0E0"/>
<path d="M91.5933 186.144C91.5621 186.152 91.5293 186.152 91.4981 186.144L78.7245 178.702C78.6799 178.675 78.6478 178.632 78.6352 178.581C78.6226 178.531 78.6306 178.477 78.6573 178.433C78.67 178.411 78.6869 178.392 78.7071 178.377C78.7273 178.361 78.7503 178.35 78.7748 178.344C78.7993 178.338 78.8248 178.336 78.8498 178.34C78.8748 178.344 78.8988 178.353 78.9205 178.366L91.6941 185.808C91.7386 185.835 91.7707 185.878 91.7833 185.929C91.7959 185.979 91.788 186.032 91.7613 186.077C91.7411 186.101 91.7151 186.12 91.6858 186.132C91.6564 186.143 91.6247 186.148 91.5933 186.144Z" fill="#E0E0E0"/>
<path d="M93.6933 184.873C93.658 184.871 93.6235 184.862 93.5925 184.845L80.8245 177.403C80.8022 177.39 80.7825 177.374 80.7667 177.354C80.7509 177.334 80.7393 177.311 80.7325 177.286C80.7257 177.262 80.7239 177.236 80.7272 177.211C80.7305 177.186 80.7388 177.161 80.7517 177.139C80.7645 177.117 80.7816 177.097 80.8021 177.081C80.8225 177.065 80.8459 177.054 80.8709 177.047C80.8959 177.04 80.922 177.038 80.9477 177.042C80.9733 177.045 80.9981 177.054 81.0205 177.067L93.7885 184.509C93.8329 184.536 93.8652 184.579 93.8788 184.629C93.8923 184.679 93.8861 184.732 93.8613 184.778C93.8435 184.806 93.8188 184.83 93.7894 184.847C93.7601 184.863 93.727 184.872 93.6933 184.873Z" fill="#E0E0E0"/>
<path d="M95.7877 183.602C95.7537 183.604 95.72 183.594 95.6925 183.574L82.9189 176.131C82.8971 176.119 82.878 176.102 82.8627 176.081C82.8475 176.061 82.8364 176.038 82.8301 176.014C82.8239 175.989 82.8226 175.964 82.8263 175.939C82.83 175.914 82.8386 175.89 82.8517 175.868C82.864 175.846 82.8806 175.826 82.9005 175.81C82.9205 175.794 82.9434 175.783 82.968 175.776C82.9925 175.769 83.0181 175.767 83.0434 175.771C83.0686 175.774 83.093 175.782 83.1149 175.795L95.8885 183.238C95.9331 183.264 95.9652 183.308 95.9778 183.358C95.9904 183.409 95.9824 183.462 95.9557 183.506C95.9388 183.536 95.9142 183.56 95.8847 183.577C95.8552 183.594 95.8217 183.602 95.7877 183.602Z" fill="#E0E0E0"/>
<path d="M97.882 182.33C97.8511 182.34 97.8178 182.34 97.7868 182.33L85.0188 174.888C84.9965 174.876 84.9768 174.859 84.961 174.839C84.9452 174.819 84.9336 174.796 84.9268 174.772C84.92 174.747 84.9182 174.722 84.9215 174.696C84.9248 174.671 84.9332 174.647 84.946 174.625C84.9729 174.58 85.0158 174.548 85.0658 174.535C85.1159 174.521 85.1693 174.527 85.2148 174.552L97.9996 181.966C98.044 181.993 98.0763 182.036 98.0899 182.086C98.1035 182.136 98.0972 182.19 98.0724 182.235C98.0523 182.267 98.0239 182.292 97.9904 182.309C97.9569 182.326 97.9194 182.333 97.882 182.33Z" fill="#E0E0E0"/>
<path d="M99.9824 181.059C99.9483 181.061 99.9146 181.051 99.8872 181.031L87.1136 173.6C87.0912 173.588 87.0716 173.571 87.0558 173.551C87.04 173.531 87.0283 173.508 87.0215 173.484C87.0148 173.459 87.013 173.434 87.0163 173.408C87.0196 173.383 87.0279 173.359 87.0408 173.337C87.0676 173.293 87.1105 173.26 87.1606 173.247C87.2106 173.233 87.264 173.239 87.3096 173.264L100.078 180.707C100.1 180.719 100.12 180.736 100.136 180.757C100.152 180.777 100.163 180.801 100.17 180.826C100.177 180.851 100.179 180.877 100.175 180.902C100.172 180.928 100.163 180.953 100.15 180.975C100.132 181.003 100.107 181.025 100.077 181.039C100.048 181.054 100.015 181.061 99.9824 181.059Z" fill="#E0E0E0"/>
<path d="M102.082 179.788C102.049 179.796 102.015 179.796 101.982 179.788L89.2137 172.34C89.1913 172.328 89.1717 172.311 89.1559 172.291C89.1401 172.271 89.1284 172.248 89.1216 172.224C89.1149 172.199 89.1131 172.174 89.1164 172.148C89.1197 172.123 89.128 172.099 89.1408 172.077C89.1677 172.033 89.2106 172 89.2607 171.987C89.3107 171.973 89.3641 171.979 89.4097 172.004L102.178 179.446C102.222 179.473 102.254 179.516 102.268 179.566C102.281 179.616 102.275 179.67 102.25 179.715C102.23 179.74 102.204 179.759 102.175 179.772C102.146 179.785 102.114 179.79 102.082 179.788Z" fill="#E0E0E0"/>
<path d="M104.16 178.517C104.127 178.525 104.092 178.525 104.059 178.517L91.2913 171.074C91.2689 171.062 91.2492 171.044 91.2334 171.024C91.2176 171.003 91.206 170.98 91.1992 170.955C91.1925 170.93 91.1907 170.904 91.194 170.878C91.1973 170.853 91.2056 170.828 91.2185 170.806C91.2314 170.783 91.2485 170.763 91.269 170.748C91.2895 170.732 91.3129 170.72 91.3378 170.714C91.3628 170.707 91.3888 170.705 91.4145 170.708C91.4401 170.712 91.4649 170.72 91.4873 170.733L104.255 178.175C104.278 178.188 104.298 178.205 104.313 178.226C104.329 178.246 104.341 178.269 104.348 178.294C104.355 178.319 104.356 178.345 104.353 178.371C104.35 178.397 104.341 178.422 104.328 178.444C104.308 178.469 104.283 178.489 104.253 178.502C104.224 178.515 104.192 178.52 104.16 178.517Z" fill="#E0E0E0"/>
<path d="M70.0669 180.936L86.7605 190.669V205.621L70.0669 196.403V180.936Z" fill="#F0F0F0"/>
<path d="M86.7607 190.669L108.752 178.069V192.853L86.7607 205.621V190.669Z" fill="#E6E6E6"/>
<path d="M83.1709 192.13L86.7605 194.219L94.5277 189.773L86.7605 195.356L83.1709 192.13Z" fill="#E0E0E0"/>
<path d="M83.1709 197.333L86.7605 199.427L91.1453 196.913L86.7605 200.564L83.1709 197.333Z" fill="#E0E0E0"/>
<path d="M88.8496 194.925L91.5936 195.742L93.6936 192.567L88.8496 194.925Z" fill="#E0E0E0"/>
<path d="M88.8496 194.925L97.132 190.204L92.988 194.925H88.8496Z" fill="white"/>
<path d="M101.242 184.789L103.185 185.366L104.669 183.12L101.242 184.789Z" fill="#E0E0E0"/>
<path d="M101.242 184.789L107.105 181.446L104.177 184.789H101.242Z" fill="white"/>
<path d="M97.0532 195.905L98.9964 196.482L100.48 194.236L97.0532 195.905Z" fill="#E0E0E0"/>
<path d="M97.0532 195.905L102.916 192.567L99.982 195.905H97.0532Z" fill="white"/>
<path d="M76.0588 196.37L74.6364 196.795L73.5444 195.143L76.0588 196.37Z" fill="#E0E0E0"/>
<path d="M76.0591 196.37L71.7583 193.917L73.9087 196.37H76.0591Z" fill="white"/>
<path d="M81.6591 190.501L79.7159 191.078L78.2319 188.832L81.6591 190.501Z" fill="#E0E0E0"/>
<path d="M81.6591 190.501L75.7959 187.163L78.7303 190.501H81.6591Z" fill="white"/>
<path d="M218.383 220.814L216.519 220.035L217 217.773L218.383 220.814Z" fill="#37474F"/>
<path d="M220.483 214.726L221.278 218.282L218.383 220.814L217 217.773L220.483 214.726Z" fill="#455A64"/>
<path d="M212.498 211.036C211.946 212.51 211.551 214.038 211.322 215.594C210.936 217.802 209.912 219.848 208.376 221.48C207.015 222.734 204.585 225.624 208.802 226.139C213.164 226.699 216.821 223.07 216.877 221.071C216.933 219.072 217.465 217.504 218.557 216.591C219.649 215.678 220.5 214.743 220.5 214.743C220.5 214.743 218.557 207.766 216.894 208.158C215.231 208.55 212.498 211.036 212.498 211.036Z" fill="#263238"/>
<path d="M214.183 204.21C212.929 202.317 211.512 200.088 210.37 198.05C207.682 193.211 203.611 185.528 199.618 183.994V151.374L184.285 150.668C184.285 150.668 179.245 168.538 186.407 182.902C191.526 193.189 202.647 203.913 208.522 209.166C210.359 208.88 213.719 207.822 214.183 204.21Z" fill="#455A64"/>
<path d="M217.28 208.706C217.28 208.706 215.88 206.774 214.178 204.226C213.713 207.838 210.353 208.88 208.516 209.182C210.846 211.26 212.363 212.486 212.363 212.486C212.363 212.486 217.359 213.164 217.28 208.706Z" fill="#945959"/>
<path d="M185.831 181.642L189.941 161.358C189.941 161.358 186.872 159.566 186.872 154.829C186.872 154.829 186.486 159.398 188.552 162.702L185.019 179.659C185.265 180.32 185.539 180.986 185.831 181.642Z" fill="#37474F"/>
<path d="M199.618 183.977V182.801L197.68 184.055L194.107 189.582L193.771 193.922C195.177 195.653 196.644 197.333 198.106 198.923L198.397 191.811L201.085 184.789C200.634 184.455 200.14 184.182 199.618 183.977Z" fill="#37474F"/>
<path d="M185.511 237.815L183.619 236.74L185.511 234.231V237.815Z" fill="#37474F"/>
<path d="M188.266 233.005V236.18L185.511 237.815V234.231L188.266 233.005Z" fill="#455A64"/>
<path d="M182.286 226.274C182.286 226.274 181.211 225.837 180.186 229.572C179.161 233.307 174.916 235.732 173.841 236.382C172.766 237.031 169.921 239.742 173.841 241.142C177.761 242.542 182.751 240.481 183.921 238.123C185.091 235.766 185.691 234.332 188.261 233.005V228.239C188.261 227.321 187.298 226.654 186.687 226.498C186.077 226.341 182.286 226.274 182.286 226.274Z" fill="#263238"/>
<path d="M204.148 150.668L186.872 149.453V154.829C186.872 159.566 189.941 161.358 189.941 161.358L184.716 187.118C184.464 188.36 184.291 189.617 184.201 190.882L181.933 223.205C182.788 223.948 183.821 224.457 184.93 224.682C186.04 224.908 187.19 224.843 188.267 224.493C189.443 220.892 191.448 214.878 193.811 208.303C196.656 200.368 196.784 194.863 196.672 192.623C196.63 191.838 196.77 191.054 197.081 190.333C198.022 188.149 200.312 182.84 204.148 173.886C211.294 157.254 204.148 150.668 204.148 150.668Z" fill="#455A64"/>
<path d="M181.933 223.227L181.608 227.87C181.899 228.342 182.314 228.727 182.807 228.981C183.3 229.236 183.854 229.351 184.408 229.314C186.458 229.314 187.174 227.987 187.174 227.987C187.174 227.987 187.583 226.694 188.294 224.515C187.213 224.87 186.058 224.938 184.943 224.713C183.828 224.487 182.79 223.975 181.933 223.227Z" fill="#945959"/>
<path d="M188.591 125.787C188.591 125.787 183.764 125.972 182.078 129.511C180.393 133.05 177.985 140.202 177.985 140.202L184.458 141.658L188.591 125.787Z" fill="#84C000"/>
<path opacity="0.2" d="M188.591 125.787C188.591 125.787 183.764 125.972 182.078 129.511C180.393 133.05 177.985 140.202 177.985 140.202L184.458 141.658L188.591 125.787Z" fill="white"/>
<path d="M198.912 126.515L204.148 127.422V139.182L202.513 145.432C202.513 145.432 202.821 148.792 204.148 150.651C204.148 150.651 194.83 157.718 184.285 150.651C184.285 150.651 184.694 144.491 184.694 142.766C184.694 142.766 181.121 140.616 181.474 137.34C181.827 134.064 188.591 125.77 188.591 125.77L192.31 125.72L198.912 126.515Z" fill="#84C000"/>
<path opacity="0.4" d="M198.912 126.515L204.148 127.422V139.182L202.513 145.432C202.513 145.432 202.821 148.792 204.148 150.651C204.148 150.651 194.83 157.718 184.285 150.651C184.285 150.651 184.694 144.491 184.694 142.766C184.694 142.766 181.121 140.616 181.474 137.34C181.827 134.064 188.591 125.77 188.591 125.77L192.31 125.72L198.912 126.515Z" fill="white"/>
<path d="M189.913 102.48C189.913 102.48 185.388 100.912 184.285 105.543C183.182 110.174 186.586 114.666 181.485 116.183C181.485 116.183 184.492 118.686 187.135 114.016L189.375 123.536C189.375 123.536 189.375 124.057 188.586 124.454C188.586 124.454 201.466 127.31 203.902 120.898C204.244 121.268 204.478 121.725 204.576 122.219C204.675 122.714 204.636 123.225 204.462 123.698C204.462 123.698 208.253 122.164 207.189 117.253C207.189 117.253 210.185 117.169 210.896 114.727C210.896 114.727 206.102 114.957 206.13 109.687C206.164 103.572 202.944 104.457 202.944 104.457C202.944 104.457 199.007 98.5936 189.913 102.48Z" fill="#263238"/>
<path d="M192.31 121.654V125.737C192.31 125.737 188.642 132.059 190.07 132.457C192.803 133.224 198.884 126.504 198.884 126.504V117.88L192.31 121.654Z" fill="#945959"/>
<path d="M198.84 116.514V116.754C197.367 122.556 193.542 123.822 192.31 124.118L192.265 115.158L198.649 115.13L198.84 116.514Z" fill="#703838"/>
<path d="M192.724 103.6C190.288 103.802 185.22 105.582 185.141 112C185.063 118.418 186.049 123.329 189.381 123.53C192.713 123.732 200.161 120.73 200.502 112.386C200.844 104.042 195.104 103.393 192.724 103.6Z" fill="#945959"/>
<path d="M189.644 114.582L189.7 118.356L187.482 117.712L189.644 114.582Z" fill="#703838"/>
<path d="M192.959 114.481C192.943 114.674 192.855 114.853 192.712 114.984C192.57 115.115 192.383 115.188 192.189 115.188C191.996 115.188 191.809 115.115 191.667 114.984C191.524 114.853 191.436 114.674 191.419 114.481C191.418 114.276 191.497 114.079 191.64 113.933C191.782 113.786 191.977 113.701 192.181 113.697C192.284 113.695 192.387 113.715 192.482 113.754C192.578 113.792 192.664 113.85 192.737 113.923C192.81 113.997 192.867 114.084 192.905 114.179C192.943 114.275 192.962 114.378 192.959 114.481Z" fill="#263238"/>
<path d="M187.897 114.016C187.899 114.169 187.856 114.319 187.773 114.447C187.69 114.575 187.571 114.676 187.43 114.737C187.29 114.797 187.135 114.815 186.985 114.787C186.834 114.76 186.696 114.688 186.586 114.581C186.476 114.475 186.401 114.338 186.369 114.189C186.337 114.039 186.35 113.884 186.406 113.742C186.463 113.6 186.56 113.478 186.686 113.391C186.812 113.304 186.96 113.257 187.113 113.254C187.215 113.252 187.316 113.27 187.411 113.307C187.505 113.345 187.592 113.4 187.664 113.471C187.737 113.542 187.796 113.627 187.835 113.72C187.875 113.814 187.896 113.914 187.897 114.016Z" fill="#263238"/>
<path d="M186.167 112.437L187.656 111.524C187.656 111.524 187.096 110.93 186.503 111.3C186.338 111.433 186.218 111.613 186.158 111.816C186.098 112.019 186.101 112.236 186.167 112.437Z" fill="#84C000"/>
<path d="M186.167 112.437L187.656 111.524C187.656 111.524 187.096 110.93 186.503 111.3C186.338 111.433 186.218 111.613 186.158 111.816C186.098 112.019 186.101 112.236 186.167 112.437Z" fill="#263238"/>
<path d="M196.745 114.134C196.745 114.134 196.594 116.838 198.151 116.838H201.203V111.681C201.203 105.896 196.818 99.8536 187.483 104.63C187.483 104.63 187.04 112.353 196.745 114.134Z" fill="#263238"/>
<path d="M198.139 116.519C198.125 115.941 198.24 115.367 198.475 114.839C198.591 114.503 198.803 114.208 199.084 113.991C199.366 113.774 199.705 113.644 200.06 113.618C201.88 113.59 202.104 115.343 202.076 115.965C201.992 117.6 200.654 119.353 198.156 119.392L198.139 116.519Z" fill="#945959"/>
<path d="M191.666 119.549C191.666 119.674 191.628 119.796 191.559 119.9C191.489 120.004 191.391 120.086 191.275 120.133C191.159 120.181 191.032 120.194 190.909 120.169C190.787 120.145 190.674 120.085 190.585 119.996C190.497 119.908 190.436 119.795 190.412 119.672C190.388 119.55 190.4 119.422 190.448 119.307C190.496 119.191 190.577 119.092 190.681 119.023C190.785 118.953 190.908 118.916 191.033 118.916C191.201 118.916 191.361 118.983 191.48 119.101C191.599 119.22 191.666 119.381 191.666 119.549Z" fill="#703838"/>
<path d="M204.148 127.422C204.148 127.422 199.847 128.985 201.729 136.511C203.611 144.038 205.419 150.338 205.419 150.338L197.932 154.818C197.932 154.818 200.654 156.122 200.043 160.922C200.043 160.922 209.832 158.502 212.1 156.856C214.368 155.21 213.595 150.399 213.058 147.75C212.52 145.102 209.989 134.35 209.603 132.888C209.216 131.426 208.074 128.106 204.148 127.422Z" fill="#84C000"/>
<path opacity="0.2" d="M204.148 127.422C204.148 127.422 199.847 128.985 201.729 136.511C203.611 144.038 205.419 150.338 205.419 150.338L197.932 154.818C197.932 154.818 200.654 156.122 200.043 160.922C200.043 160.922 209.832 158.502 212.1 156.856C214.368 155.21 213.595 150.399 213.058 147.75C212.52 145.102 209.989 134.35 209.603 132.888C209.216 131.426 208.074 128.106 204.148 127.422Z" fill="white"/>
<path d="M205.42 150.338C206.902 150.212 208.385 150.576 209.642 151.374C209.085 150.706 208.39 150.166 207.606 149.791C206.821 149.416 205.964 149.214 205.095 149.201L205.42 150.338Z" fill="#84C000"/>
<path d="M174.558 168.386L155.361 157.186C155.318 157.161 155.282 157.125 155.258 157.082C155.233 157.039 155.22 156.99 155.22 156.94C155.22 156.89 155.233 156.841 155.258 156.798C155.282 156.755 155.318 156.719 155.361 156.694L176.641 143.578L174.558 168.386Z" fill="#84C000"/>
<path opacity="0.4" d="M174.558 168.386L155.361 157.186C155.318 157.161 155.282 157.125 155.258 157.082C155.233 157.039 155.22 156.99 155.22 156.94C155.22 156.89 155.233 156.841 155.258 156.798C155.282 156.755 155.318 156.719 155.361 156.694L176.641 143.578L174.558 168.386Z" fill="black"/>
<path d="M174.558 168.386L195.961 155.994V150.36L174.558 162.702V168.386Z" fill="#84C000"/>
<path opacity="0.2" d="M174.558 168.386L195.961 155.994V150.36L174.558 162.702V168.386Z" fill="black"/>
<path d="M191.783 156.862L183.333 161.745C182.773 162.07 182.313 161.745 182.313 160.972C182.319 160.591 182.414 160.216 182.591 159.879C182.768 159.541 183.022 159.25 183.333 159.029L191.783 154.151C192.343 153.826 192.802 154.151 192.802 154.918C192.796 155.299 192.7 155.674 192.523 156.011C192.346 156.348 192.093 156.64 191.783 156.862Z" fill="#E6E6E6"/>
<path d="M181.071 161.689C181.048 162.097 180.93 162.494 180.726 162.848C180.522 163.203 180.237 163.504 179.895 163.727C179.245 164.102 178.724 163.794 178.724 163.05C178.745 162.642 178.862 162.245 179.066 161.89C179.269 161.536 179.553 161.235 179.895 161.011C180.544 160.636 181.071 160.938 181.071 161.689Z" fill="#E6E6E6"/>
<path d="M174.558 162.702L155.434 153.714C155.388 153.69 155.35 153.654 155.323 153.609C155.297 153.565 155.283 153.514 155.283 153.462C155.283 153.411 155.297 153.36 155.323 153.315C155.35 153.271 155.388 153.235 155.434 153.21L175.941 141.014C176.057 140.944 176.188 140.904 176.323 140.898C176.458 140.892 176.593 140.92 176.714 140.98L195.984 150.36L174.558 162.702Z" fill="#84C000"/>
<path d="M156.666 154.291V156.71L172.508 165.67V161.739L156.666 154.291Z" fill="#F5F5F5"/>
<path d="M172.508 165.67L174.558 164.394V162.702L172.508 161.739V165.67Z" fill="#E0E0E0"/>
<path d="M200.043 160.933C200.043 160.933 191.643 162.742 190.865 162.932C190.086 163.122 186.026 164.394 182.683 163.66L190.938 158.9C190.938 158.9 186.726 157.87 187.331 156.559C187.561 156.061 195.395 156.33 195.395 156.33L197.932 154.829C197.932 154.829 202.423 155.406 200.043 160.933Z" fill="#945959"/>
<path d="M155.271 151.385V145.141H190.171C190.294 145.141 194.04 147.09 195.698 147.941C195.772 147.983 195.835 148.044 195.878 148.117C195.921 148.191 195.944 148.275 195.944 148.361C195.944 148.446 195.921 148.53 195.878 148.604C195.835 148.678 195.772 148.739 195.698 148.781L175.017 160.474C174.872 160.556 174.709 160.602 174.542 160.607C174.375 160.612 174.209 160.576 174.059 160.502L155.271 151.385Z" fill="#84C000"/>
<path opacity="0.4" d="M155.271 151.385V145.141H190.171C190.294 145.141 194.04 147.09 195.698 147.941C195.772 147.983 195.835 148.044 195.878 148.117C195.921 148.191 195.944 148.275 195.944 148.361C195.944 148.446 195.921 148.53 195.878 148.604C195.835 148.678 195.772 148.739 195.698 148.781L175.017 160.474C174.872 160.556 174.709 160.602 174.542 160.607C174.375 160.612 174.209 160.576 174.059 160.502L155.271 151.385Z" fill="black"/>
<path d="M174.558 159.012L194.359 147.879V145.46L174.558 155.994V159.012Z" fill="#E0E0E0"/>
<path d="M155.271 151.385L160.446 148.355L155.271 145.141V151.385Z" fill="#84C000"/>
<path opacity="0.6" d="M155.271 151.385L160.446 148.355L155.271 145.141V151.385Z" fill="black"/>
<path d="M158.542 147.168V150.618L174.558 159.012V155.994L158.542 147.168Z" fill="#F5F5F5"/>
<path d="M155.271 145.141L173.891 156.24C174.094 156.363 174.325 156.431 174.561 156.438C174.798 156.445 175.032 156.39 175.241 156.279L195.771 145.527C195.843 145.487 195.904 145.43 195.947 145.359C195.99 145.289 196.014 145.209 196.017 145.126C196.02 145.044 196.001 144.962 195.963 144.889C195.925 144.816 195.868 144.754 195.799 144.71L177.067 132.535L155.271 145.141Z" fill="#84C000"/>
<path d="M174.558 154.297L155.361 143.097C155.318 143.072 155.282 143.036 155.258 142.992C155.233 142.949 155.22 142.9 155.22 142.85C155.22 142.801 155.233 142.752 155.258 142.708C155.282 142.665 155.318 142.629 155.361 142.604L176.641 129.489L174.558 154.297Z" fill="#84C000"/>
<path opacity="0.4" d="M174.558 154.297L155.361 143.097C155.318 143.072 155.282 143.036 155.258 142.992C155.233 142.949 155.22 142.9 155.22 142.85C155.22 142.801 155.233 142.752 155.258 142.708C155.282 142.665 155.318 142.629 155.361 142.604L176.641 129.489L174.558 154.297Z" fill="black"/>
<path d="M174.558 154.291L195.961 141.904V136.27L174.558 148.613V154.291Z" fill="#84C000"/>
<path opacity="0.2" d="M174.558 154.291L195.961 141.904V136.27L174.558 148.613V154.291Z" fill="black"/>
<path d="M191.783 142.8L183.333 147.678C182.773 148.002 182.313 147.678 182.313 146.91C182.319 146.529 182.414 146.155 182.591 145.817C182.768 145.479 183.022 145.188 183.333 144.967L191.783 140.084C192.343 139.765 192.802 140.084 192.802 140.857C192.796 141.238 192.7 141.612 192.523 141.949C192.346 142.287 192.093 142.578 191.783 142.8Z" fill="#E6E6E6"/>
<path d="M181.071 147.599C181.049 148.007 180.931 148.404 180.727 148.757C180.523 149.11 180.237 149.41 179.895 149.632C179.245 150.007 178.724 149.705 178.724 148.954C178.746 148.547 178.863 148.151 179.066 147.798C179.27 147.445 179.553 147.145 179.895 146.922C180.544 146.546 181.071 146.849 181.071 147.599Z" fill="#E6E6E6"/>
<path d="M174.558 148.613L155.434 139.653C155.388 139.628 155.35 139.591 155.324 139.546C155.298 139.501 155.284 139.45 155.284 139.398C155.284 139.346 155.298 139.295 155.324 139.25C155.35 139.205 155.388 139.168 155.434 139.143L175.941 126.946C176.06 126.882 176.192 126.848 176.328 126.848C176.463 126.848 176.595 126.882 176.714 126.946L195.984 136.326L174.558 148.613Z" fill="#84C000"/>
<path d="M156.666 140.202V142.621L172.508 151.581V147.65L156.666 140.202Z" fill="#F5F5F5"/>
<path d="M172.508 151.581L174.558 150.298V148.613L172.508 147.65V151.581Z" fill="#E0E0E0"/>
</svg>
