<svg width="280" height="280" viewBox="0 0 280 280" fill="none" xmlns="http://www.w3.org/2000/svg">
<path d="M140 272.266C208.969 272.266 264.88 240.094 264.88 200.407C264.88 160.72 208.969 128.548 140 128.548C71.0308 128.548 15.1201 160.72 15.1201 200.407C15.1201 240.094 71.0308 272.266 140 272.266Z" fill="#F7FFEF"/>
<path d="M215.281 201.762C226.823 201.762 236.18 196.362 236.18 189.7C236.18 183.038 226.823 177.638 215.281 177.638C203.739 177.638 194.382 183.038 194.382 189.7C194.382 196.362 203.739 201.762 215.281 201.762Z" fill="#E0E0E0"/>
<path d="M107.128 258.227L75.7346 240.044C75.0234 239.63 75.0234 238.958 75.7346 238.543L150.937 195.126C151.339 194.922 151.783 194.816 152.233 194.816C152.684 194.816 153.128 194.922 153.53 195.126L184.974 213.282C185.685 213.69 185.685 214.362 184.974 214.777L109.71 258.227C109.31 258.431 108.868 258.537 108.419 258.537C107.97 258.537 107.528 258.431 107.128 258.227Z" fill="#E0E0E0"/>
<path d="M89.3088 220.797C89.3088 220.797 90.5296 212.582 88.2169 205.341C85.9041 198.1 81.4968 192.78 76.5072 191.022C71.5176 189.263 66.1809 192.842 70.7617 197.506C75.3425 202.171 84.1344 208.023 85.372 221.228L89.3088 220.797Z" fill="#84C000"/>
<g opacity="0.15">
<path d="M89.3088 220.797C89.3088 220.797 90.5296 212.582 88.2169 205.341C85.9041 198.1 81.4968 192.78 76.5072 191.022C71.5176 189.263 66.1809 192.842 70.7617 197.506C75.3425 202.171 84.1344 208.023 85.372 221.228L89.3088 220.797Z" fill="black"/>
</g>
<path d="M88.3738 218.327H88.4298C88.4667 218.323 88.5024 218.312 88.5348 218.294C88.5672 218.275 88.5957 218.251 88.6186 218.222C88.6416 218.193 88.6585 218.159 88.6683 218.124C88.6782 218.088 88.6809 218.05 88.6762 218.014C86.8338 203.37 78.0978 195.126 73.7298 192.814C73.6637 192.779 73.5865 192.772 73.5151 192.794C73.4436 192.816 73.3839 192.865 73.349 192.931C73.3141 192.997 73.3069 193.075 73.329 193.146C73.351 193.217 73.4005 193.277 73.4666 193.312C77.745 195.552 86.3074 203.672 88.1162 218.081C88.1239 218.145 88.1537 218.205 88.2007 218.25C88.2477 218.295 88.3089 218.322 88.3738 218.327Z" fill="white"/>
<path d="M63.9184 209.166C64.0808 210.286 65.0048 211.07 65.884 211.742C66.7632 212.414 67.7208 213.147 68.0008 214.217C68.5608 216.384 66.0632 218.512 66.7128 220.651C66.883 221.09 67.1405 221.489 67.4697 221.825C67.7989 222.161 68.193 222.427 68.628 222.606C69.328 222.947 70.0784 223.166 70.812 223.429C71.1703 223.518 71.5329 223.589 71.8984 223.642C73.0006 223.696 74.0539 224.114 74.8944 224.829C76.1432 226.072 76.076 228.071 76.5744 229.762C76.8941 230.769 77.4281 231.694 78.1397 232.474C78.8512 233.254 79.7233 233.871 80.696 234.282C82.3144 234.97 84.9352 235.295 85.5792 234.674C86.0664 234.203 85.5792 232.221 85.7192 231.566C86.1279 229.871 86.3791 228.143 86.4696 226.402C86.478 225.607 86.5833 224.815 86.7832 224.045C87.024 223.188 87.2648 222.331 87.5 221.469C87.7352 220.606 88.172 219.867 88.0992 218.842C87.9833 217.861 87.7209 216.902 87.3208 215.998C86.9698 215.098 86.6096 214.198 86.24 213.298C85.842 212.226 85.3135 211.207 84.6664 210.263C84.0664 209.467 83.3097 208.801 82.4429 208.308C81.5762 207.815 80.6176 207.505 79.6264 207.396C77.9968 207.222 76.2216 207.676 74.6312 207.155C73.0408 206.634 71.6688 205.8 70.0336 205.475C69.1809 205.262 68.291 205.246 67.4312 205.429C66.5715 205.611 65.7647 205.987 65.072 206.528C64.6798 206.841 64.3697 207.244 64.1687 207.704C63.9677 208.164 63.8818 208.665 63.9184 209.166Z" fill="#84C000"/>
<path d="M85.3553 230.126C85.4212 230.126 85.4844 230.101 85.5315 230.055C85.5786 230.009 85.6058 229.946 85.6073 229.88C85.7753 214.2 70.9801 207.805 67.3065 207.06C67.242 207.048 67.1755 207.062 67.1212 207.099C67.0668 207.136 67.0288 207.192 67.0153 207.256C67.008 207.288 67.0073 207.321 67.0133 207.354C67.0194 207.386 67.0319 207.417 67.0503 207.444C67.0687 207.471 67.0924 207.495 67.1201 207.512C67.1478 207.53 67.1788 207.542 67.2113 207.547C70.8009 208.275 85.2769 214.525 85.1313 229.874C85.1309 229.937 85.1536 229.997 85.195 230.043C85.2363 230.09 85.2934 230.119 85.3553 230.126Z" fill="white"/>
<path d="M70.3192 217.969C70.3702 217.975 70.4216 217.963 70.4648 217.935C72.2293 217.1 74.1563 216.663 76.1087 216.657C78.061 216.652 79.9906 217.076 81.76 217.902C81.7898 217.915 81.8218 217.922 81.8543 217.922C81.8868 217.923 81.919 217.917 81.9492 217.905C81.9794 217.893 82.0069 217.875 82.0302 217.852C82.0535 217.83 82.072 217.803 82.0848 217.773C82.1116 217.713 82.1137 217.644 82.0906 217.582C82.0676 217.521 82.0213 217.47 81.9616 217.442C80.1179 216.586 78.1077 216.147 76.0747 216.158C74.0418 216.168 72.0362 216.628 70.2016 217.504C70.173 217.52 70.1479 217.542 70.1278 217.568C70.1077 217.594 70.0931 217.624 70.0847 217.656C70.0764 217.688 70.0745 217.721 70.0792 217.754C70.0839 217.786 70.095 217.817 70.112 217.846C70.1322 217.883 70.1622 217.914 70.1986 217.936C70.2351 217.957 70.2768 217.969 70.3192 217.969Z" fill="white"/>
<path d="M161.767 70.7056C161.757 70.5775 161.71 70.455 161.633 70.3528L161.554 70.2744L161.465 70.2184C161.393 70.1848 161.314 70.1658 161.235 70.1624C161.116 70.1578 160.998 70.1788 160.888 70.224L153.658 73.108C153.544 73.156 153.42 73.1783 153.296 73.1733C153.172 73.1682 153.051 73.136 152.941 73.0788C152.831 73.0216 152.735 72.9409 152.659 72.8424C152.584 72.7439 152.531 72.63 152.505 72.5088C152.432 72.24 152.353 71.9768 152.269 71.7136C152.185 71.4504 152.124 71.2824 152.051 71.0752C151.945 70.7672 151.821 70.4648 151.693 70.1792C151.631 70.0336 151.564 69.888 151.502 69.748L151.301 69.3336C151.233 69.1936 151.161 69.0648 151.088 68.9304C151.008 68.7828 150.949 68.6243 150.914 68.46C150.816 68.04 150.866 67.5991 151.054 67.2112L152.533 64.5288L156.201 57.8928C156.328 57.6567 156.362 57.3817 156.297 57.1216C156.231 56.8616 156.071 56.6353 155.848 56.4872L150.808 53.284L144.418 49.2072L139.44 46.0152C139.405 45.9866 139.365 45.9639 139.322 45.948L139.221 45.9088H139.182C139.139 45.9038 139.096 45.9038 139.053 45.9088C138.974 45.8978 138.893 45.8978 138.813 45.9088H138.717C138.711 45.9049 138.703 45.9028 138.695 45.9028C138.687 45.9028 138.679 45.9049 138.673 45.9088H138.589C138.572 45.904 138.555 45.904 138.538 45.9088H138.471H138.437H138.404C138.358 45.9269 138.316 45.9535 138.281 45.9872C138.245 46.0107 138.213 46.039 138.185 46.0712L138.096 46.172L133.616 52.2928L128.458 49L128.363 48.9328L126.801 47.936L124.684 46.5864C124.664 46.569 124.641 46.5556 124.617 46.5472H124.577C124.54 46.5418 124.503 46.5418 124.465 46.5472H124.258C124.188 46.568 124.121 46.5961 124.057 46.6312L115.741 50.96H115.707C115.689 50.9661 115.673 50.9779 115.662 50.9936H115.629L115.511 51.0776L115.449 51.1224L115.41 51.1672C115.41 51.1672 115.41 51.1672 115.377 51.1672L115.293 51.2456C115.269 51.2651 115.248 51.2877 115.231 51.3128L115.147 51.4136L115.063 51.52C115.024 51.5753 114.988 51.6333 114.957 51.6936C114.949 51.724 114.936 51.7525 114.917 51.7776V51.8112C114.917 51.8112 114.917 51.8112 114.917 51.8448C114.915 51.8671 114.915 51.8896 114.917 51.912C114.917 51.9736 114.867 52.0464 114.845 52.1192C114.84 52.1489 114.84 52.1791 114.845 52.2088C114.842 52.248 114.842 52.2872 114.845 52.3264L113.652 61.152C113.652 61.2304 113.618 61.3088 113.601 61.3872C113.591 61.429 113.578 61.4702 113.562 61.5104C113.545 61.5524 113.53 61.5954 113.517 61.6392C113.348 62.0649 113.086 62.4474 112.75 62.7592C112.347 63.1008 111.949 63.448 111.557 63.8064C111.261 64.0696 110.969 64.3664 110.673 64.624L109.687 65.52C109.396 65.8056 109.127 66.08 108.83 66.3936C108.533 66.7072 108.27 66.9872 107.99 67.2952C107.957 67.3348 107.919 67.3705 107.878 67.4016C107.841 67.4381 107.8 67.47 107.755 67.4968C107.71 67.5294 107.661 67.5557 107.609 67.5752C107.571 67.6046 107.527 67.6256 107.481 67.6368C107.443 67.6549 107.404 67.668 107.363 67.676H107.307H107.229C107.182 67.6813 107.135 67.6813 107.089 67.676C107.089 67.676 107.055 67.676 107.044 67.676C107.014 67.6838 106.984 67.6838 106.954 67.676C106.923 67.6843 106.89 67.6843 106.859 67.676C106.777 67.6845 106.695 67.6845 106.613 67.676C106.568 67.6708 106.525 67.6595 106.484 67.6424H106.422L101.382 65.6264C101.321 65.6018 101.257 65.5849 101.192 65.576H101.013C100.796 65.5583 100.578 65.5982 100.381 65.6916C100.185 65.785 100.016 65.9286 99.8926 66.108L93.587 75.9864C93.5493 76.0478 93.5192 76.1136 93.4974 76.1824V76.216C93.4747 76.2835 93.4578 76.3528 93.447 76.4232C93.447 76.4232 93.447 76.4232 93.447 76.468C93.4444 76.4978 93.4444 76.5278 93.447 76.5576C93.447 76.6248 93.447 76.692 93.447 76.7536C93.456 76.8238 93.471 76.8931 93.4918 76.9608C93.5258 77.083 93.5767 77.1999 93.643 77.308L93.7158 77.4088C93.7447 77.4433 93.7765 77.4751 93.811 77.504L97.731 81.2224C97.7702 81.2672 97.8094 81.3064 97.843 81.3512C97.8679 81.3757 97.8887 81.4041 97.9046 81.4352C97.9382 81.48 97.9662 81.536 97.9998 81.592C98.0334 81.648 98.039 81.6872 98.0558 81.7376C98.0584 81.7486 98.0584 81.7602 98.0558 81.7712C98.0893 81.8557 98.1119 81.9442 98.123 82.0344C98.1282 82.0546 98.1282 82.0758 98.123 82.096C98.1258 82.1221 98.1258 82.1483 98.123 82.1744C98.123 82.2024 98.123 82.2304 98.123 82.264C98.123 82.2976 98.123 82.3536 98.123 82.3984C98.123 82.4432 98.123 82.516 98.123 82.572V82.628C98.1103 82.6894 98.0915 82.7495 98.067 82.8072C97.2263 84.7886 96.5191 86.8241 95.9502 88.9C95.91 89.0432 95.8556 89.182 95.7878 89.3144C95.768 89.3614 95.7436 89.4065 95.715 89.4488V89.4824C95.715 89.5328 95.659 89.5832 95.6254 89.6336C95.6174 89.6491 95.6059 89.6625 95.5918 89.6728C95.5828 89.6957 95.5695 89.7166 95.5526 89.7344C95.5338 89.7619 95.5133 89.7881 95.491 89.8128C95.4518 89.8688 95.4014 89.9248 95.3566 89.9808L95.3062 90.0312C95.2794 90.0674 95.2494 90.1011 95.2166 90.132C95.1153 90.2296 95.0067 90.3195 94.8918 90.4008L87.3598 95.2336C87.3002 95.2716 87.244 95.3147 87.1918 95.3624C87.1574 95.3893 87.1256 95.4193 87.0966 95.452L87.0294 95.5248C86.9897 95.562 86.954 95.6033 86.923 95.648C86.8794 95.7027 86.84 95.7608 86.8054 95.8216L86.7214 95.9616L86.6486 96.1128C86.6224 96.1607 86.6017 96.2114 86.587 96.264C86.5708 96.2977 86.5595 96.3335 86.5534 96.3704C86.5534 96.432 86.5198 96.4936 86.503 96.5496C86.4981 96.6186 86.4981 96.6878 86.503 96.7568L86.0942 105.952C86.0884 106.002 86.0884 106.053 86.0942 106.103V106.187C86.0969 106.227 86.1084 106.265 86.1278 106.299C86.1427 106.347 86.1675 106.391 86.2006 106.428C86.227 106.467 86.2614 106.499 86.3014 106.523L86.3518 106.551L95.2782 112.258L91.6158 118.888C91.5934 118.923 91.5764 118.96 91.5654 119C91.5203 119.109 91.4938 119.224 91.487 119.342C91.4789 119.41 91.4789 119.48 91.487 119.549C91.4985 119.615 91.5154 119.681 91.5374 119.745C91.5675 119.829 91.6069 119.91 91.655 119.986L91.739 120.098C91.8054 120.166 91.8785 120.228 91.9574 120.282L104.165 128.122C104.222 128.163 104.284 128.195 104.35 128.218L108.354 130.766C108.581 130.908 108.853 130.96 109.117 130.911C109.38 130.862 109.616 130.716 109.777 130.502L114.257 124.387L123.217 130.094C123.26 130.124 123.307 130.149 123.357 130.166C123.449 130.196 123.547 130.205 123.644 130.194C123.741 130.182 123.834 130.15 123.917 130.099L132.087 125.854C132.216 125.785 132.334 125.698 132.44 125.597C132.554 125.488 132.657 125.368 132.748 125.238C132.928 124.992 133.048 124.706 133.095 124.404L134.293 115.578C134.415 114.959 134.731 114.394 135.195 113.966C136.837 112.58 138.383 111.083 139.821 109.486C140.022 109.28 140.279 109.136 140.559 109.07C140.84 109.005 141.133 109.021 141.405 109.116L146.445 111.126C146.707 111.22 146.991 111.224 147.255 111.138C147.519 111.052 147.746 110.88 147.901 110.65L154.235 100.8C154.376 100.561 154.434 100.282 154.4 100.006C154.366 99.7302 154.241 99.4738 154.045 99.2768L150.08 95.5584C149.881 95.3497 149.746 95.0893 149.688 94.807C149.631 94.5248 149.654 94.2321 149.755 93.9624C150.598 91.9838 151.305 89.95 151.872 87.8752C152.066 87.2724 152.446 86.7468 152.958 86.3744L160.462 81.5808C160.709 81.4029 160.916 81.1747 161.068 80.9112C161.221 80.6477 161.316 80.3548 161.347 80.052L161.756 70.8512C161.773 70.8008 161.767 70.7504 161.767 70.7056ZM133.207 77.644C132.809 86.604 126.033 97.244 118.087 101.366C117.208 101.822 116.29 102.196 115.343 102.486C115.281 102.038 115.242 101.567 115.22 101.08C115.22 100.89 115.22 100.694 115.22 100.492V100.162C115.22 99.9488 115.22 99.7416 115.22 99.5288C115.617 90.5688 122.399 79.9288 130.368 75.8016C130.609 75.6728 130.844 75.5552 131.085 75.4488C131.202 75.3872 131.325 75.3368 131.437 75.2864L131.79 75.1408C132.22 74.9593 132.66 74.8004 133.106 74.6648C133.229 75.6528 133.265 76.6497 133.213 77.644H133.207Z" fill="#84C000"/>
<path opacity="0.3" d="M161.767 70.7056C161.757 70.5775 161.71 70.455 161.633 70.3528L161.554 70.2744L161.465 70.2184C161.393 70.1848 161.314 70.1658 161.235 70.1624C161.116 70.1578 160.998 70.1788 160.888 70.224L153.658 73.108C153.544 73.156 153.42 73.1783 153.296 73.1733C153.172 73.1682 153.051 73.136 152.941 73.0788C152.831 73.0216 152.735 72.9409 152.659 72.8424C152.584 72.7439 152.531 72.63 152.505 72.5088C152.432 72.24 152.353 71.9768 152.269 71.7136C152.185 71.4504 152.124 71.2824 152.051 71.0752C151.945 70.7672 151.821 70.4648 151.693 70.1792C151.631 70.0336 151.564 69.888 151.502 69.748L151.301 69.3336C151.233 69.1936 151.161 69.0648 151.088 68.9304C151.008 68.7828 150.949 68.6243 150.914 68.46C150.816 68.04 150.866 67.5991 151.054 67.2112L152.533 64.5288L156.201 57.8928C156.328 57.6567 156.362 57.3817 156.297 57.1216C156.231 56.8616 156.071 56.6353 155.848 56.4872L150.808 53.284L144.418 49.2072L139.44 46.0152C139.405 45.9866 139.365 45.9639 139.322 45.948L139.221 45.9088H139.182C139.139 45.9038 139.096 45.9038 139.053 45.9088C138.974 45.8978 138.893 45.8978 138.813 45.9088H138.717C138.711 45.9049 138.703 45.9028 138.695 45.9028C138.687 45.9028 138.679 45.9049 138.673 45.9088H138.589C138.572 45.904 138.555 45.904 138.538 45.9088H138.471H138.437H138.404C138.358 45.9269 138.316 45.9535 138.281 45.9872C138.245 46.0107 138.213 46.039 138.185 46.0712L138.096 46.172L133.616 52.2928L128.458 49L128.363 48.9328L126.801 47.936L124.684 46.5864C124.664 46.569 124.641 46.5556 124.617 46.5472H124.577C124.54 46.5418 124.503 46.5418 124.465 46.5472H124.258C124.188 46.568 124.121 46.5961 124.057 46.6312L115.741 50.96H115.707C115.689 50.9661 115.673 50.9779 115.662 50.9936H115.629L115.511 51.0776L115.449 51.1224L115.41 51.1672C115.41 51.1672 115.41 51.1672 115.377 51.1672L115.293 51.2456C115.269 51.2651 115.248 51.2877 115.231 51.3128L115.147 51.4136L115.063 51.52C115.024 51.5753 114.988 51.6333 114.957 51.6936C114.949 51.724 114.936 51.7525 114.917 51.7776V51.8112C114.917 51.8112 114.917 51.8112 114.917 51.8448C114.915 51.8671 114.915 51.8896 114.917 51.912C114.917 51.9736 114.867 52.0464 114.845 52.1192C114.84 52.1489 114.84 52.1791 114.845 52.2088C114.842 52.248 114.842 52.2872 114.845 52.3264L113.652 61.152C113.652 61.2304 113.618 61.3088 113.601 61.3872C113.591 61.429 113.578 61.4702 113.562 61.5104C113.545 61.5524 113.53 61.5954 113.517 61.6392C113.348 62.0649 113.086 62.4474 112.75 62.7592C112.347 63.1008 111.949 63.448 111.557 63.8064C111.261 64.0696 110.969 64.3664 110.673 64.624L109.687 65.52C109.396 65.8056 109.127 66.08 108.83 66.3936C108.533 66.7072 108.27 66.9872 107.99 67.2952C107.957 67.3348 107.919 67.3705 107.878 67.4016C107.841 67.4381 107.8 67.47 107.755 67.4968C107.71 67.5294 107.661 67.5557 107.609 67.5752C107.571 67.6046 107.527 67.6256 107.481 67.6368C107.443 67.6549 107.404 67.668 107.363 67.676H107.307H107.229C107.182 67.6813 107.135 67.6813 107.089 67.676C107.089 67.676 107.055 67.676 107.044 67.676C107.014 67.6838 106.984 67.6838 106.954 67.676C106.923 67.6843 106.89 67.6843 106.859 67.676C106.777 67.6845 106.695 67.6845 106.613 67.676C106.568 67.6708 106.525 67.6595 106.484 67.6424H106.422L101.382 65.6264C101.321 65.6018 101.257 65.5849 101.192 65.576H101.013C100.796 65.5583 100.578 65.5982 100.381 65.6916C100.185 65.785 100.016 65.9286 99.8926 66.108L93.587 75.9864C93.5493 76.0478 93.5192 76.1136 93.4974 76.1824V76.216C93.4747 76.2835 93.4578 76.3528 93.447 76.4232C93.447 76.4232 93.447 76.4232 93.447 76.468C93.4444 76.4978 93.4444 76.5278 93.447 76.5576C93.447 76.6248 93.447 76.692 93.447 76.7536C93.456 76.8238 93.471 76.8931 93.4918 76.9608C93.5258 77.083 93.5767 77.1999 93.643 77.308L93.7158 77.4088C93.7447 77.4433 93.7765 77.4751 93.811 77.504L97.731 81.2224C97.7702 81.2672 97.8094 81.3064 97.843 81.3512C97.8679 81.3757 97.8887 81.4041 97.9046 81.4352C97.9382 81.48 97.9662 81.536 97.9998 81.592C98.0334 81.648 98.039 81.6872 98.0558 81.7376C98.0584 81.7486 98.0584 81.7602 98.0558 81.7712C98.0893 81.8557 98.1119 81.9442 98.123 82.0344C98.1282 82.0546 98.1282 82.0758 98.123 82.096C98.1258 82.1221 98.1258 82.1483 98.123 82.1744C98.123 82.2024 98.123 82.2304 98.123 82.264C98.123 82.2976 98.123 82.3536 98.123 82.3984C98.123 82.4432 98.123 82.516 98.123 82.572V82.628C98.1103 82.6894 98.0915 82.7495 98.067 82.8072C97.2263 84.7886 96.5191 86.8241 95.9502 88.9C95.91 89.0432 95.8556 89.182 95.7878 89.3144C95.768 89.3614 95.7436 89.4065 95.715 89.4488V89.4824C95.715 89.5328 95.659 89.5832 95.6254 89.6336C95.6174 89.6491 95.6059 89.6625 95.5918 89.6728C95.5828 89.6957 95.5695 89.7166 95.5526 89.7344C95.5338 89.7619 95.5133 89.7881 95.491 89.8128C95.4518 89.8688 95.4014 89.9248 95.3566 89.9808L95.3062 90.0312C95.2794 90.0674 95.2494 90.1011 95.2166 90.132C95.1153 90.2296 95.0067 90.3195 94.8918 90.4008L87.3598 95.2336C87.3002 95.2716 87.244 95.3147 87.1918 95.3624C87.1574 95.3893 87.1256 95.4193 87.0966 95.452L87.0294 95.5248C86.9897 95.562 86.954 95.6033 86.923 95.648C86.8794 95.7027 86.84 95.7608 86.8054 95.8216L86.7214 95.9616L86.6486 96.1128C86.6224 96.1607 86.6017 96.2114 86.587 96.264C86.5708 96.2977 86.5595 96.3335 86.5534 96.3704C86.5534 96.432 86.5198 96.4936 86.503 96.5496C86.4981 96.6186 86.4981 96.6878 86.503 96.7568L86.0942 105.952C86.0884 106.002 86.0884 106.053 86.0942 106.103V106.187C86.0969 106.227 86.1084 106.265 86.1278 106.299C86.1427 106.347 86.1675 106.391 86.2006 106.428C86.227 106.467 86.2614 106.499 86.3014 106.523L86.3518 106.551L95.2782 112.258L91.6158 118.888C91.5934 118.923 91.5764 118.96 91.5654 119C91.5203 119.109 91.4938 119.224 91.487 119.342C91.4789 119.41 91.4789 119.48 91.487 119.549C91.4985 119.615 91.5154 119.681 91.5374 119.745C91.5675 119.829 91.6069 119.91 91.655 119.986L91.739 120.098C91.8054 120.166 91.8785 120.228 91.9574 120.282L104.165 128.122C104.222 128.163 104.284 128.195 104.35 128.218L108.354 130.766C108.581 130.908 108.853 130.96 109.117 130.911C109.38 130.862 109.616 130.716 109.777 130.502L114.257 124.387L123.217 130.094C123.26 130.124 123.307 130.149 123.357 130.166C123.449 130.196 123.547 130.205 123.644 130.194C123.741 130.182 123.834 130.15 123.917 130.099L132.087 125.854C132.216 125.785 132.334 125.698 132.44 125.597C132.554 125.488 132.657 125.368 132.748 125.238C132.928 124.992 133.048 124.706 133.095 124.404L134.293 115.578C134.415 114.959 134.731 114.394 135.195 113.966C136.837 112.58 138.383 111.083 139.821 109.486C140.022 109.28 140.279 109.136 140.559 109.07C140.84 109.005 141.133 109.021 141.405 109.116L146.445 111.126C146.707 111.22 146.991 111.224 147.255 111.138C147.519 111.052 147.746 110.88 147.901 110.65L154.235 100.8C154.376 100.561 154.434 100.282 154.4 100.006C154.366 99.7302 154.241 99.4738 154.045 99.2768L150.08 95.5584C149.881 95.3497 149.746 95.0893 149.688 94.807C149.631 94.5248 149.654 94.2321 149.755 93.9624C150.598 91.9838 151.305 89.95 151.872 87.8752C152.066 87.2724 152.446 86.7468 152.958 86.3744L160.462 81.5808C160.709 81.4029 160.916 81.1747 161.068 80.9112C161.221 80.6477 161.316 80.3548 161.347 80.052L161.756 70.8512C161.773 70.8008 161.767 70.7504 161.767 70.7056ZM133.207 77.644C132.809 86.604 126.033 97.244 118.087 101.366C117.208 101.822 116.29 102.196 115.343 102.486C115.281 102.038 115.242 101.567 115.22 101.08C115.22 100.89 115.22 100.694 115.22 100.492V100.162C115.22 99.9488 115.22 99.7416 115.22 99.5288C115.617 90.5688 122.399 79.9288 130.368 75.8016C130.609 75.6728 130.844 75.5552 131.085 75.4488C131.202 75.3872 131.325 75.3368 131.437 75.2864L131.79 75.1408C132.22 74.9593 132.66 74.8004 133.106 74.6648C133.229 75.6528 133.265 76.6497 133.213 77.644H133.207Z" fill="black"/>
<path opacity="0.05" d="M101.92 112.448L98.3637 113.865C98.2641 113.912 98.1542 113.935 98.0438 113.93C97.9335 113.925 97.826 113.893 97.7309 113.837L95.3117 112.297L91.6493 118.927C91.5228 119.164 91.4895 119.439 91.5558 119.7C91.6221 119.96 91.7833 120.185 92.0077 120.333L104.216 128.173C104.444 128.316 104.718 128.368 104.983 128.318L108.343 116.558L101.92 112.448Z" fill="black"/>
<path d="M109.58 89.6504L98.1676 82.3704C98.1785 82.1649 98.1468 81.9593 98.0745 81.7666C98.0022 81.5739 97.891 81.3982 97.7476 81.2504L93.8276 77.5376C93.6228 77.338 93.4958 77.072 93.4692 76.7872L104.876 84.0672C104.906 84.3435 105.031 84.6008 105.229 84.7952L109.149 88.5136C109.297 88.6623 109.411 88.8404 109.486 89.0362C109.56 89.2321 109.592 89.4413 109.58 89.6504Z" fill="#84C000"/>
<path opacity="0.4" d="M109.58 89.6504L98.1676 82.3704C98.1785 82.1649 98.1468 81.9593 98.0745 81.7666C98.0022 81.5739 97.891 81.3982 97.7476 81.2504L93.8276 77.5376C93.6228 77.338 93.4958 77.072 93.4692 76.7872L104.876 84.0672C104.906 84.3435 105.031 84.6008 105.229 84.7952L109.149 88.5136C109.297 88.6623 109.411 88.8404 109.486 89.0362C109.56 89.2321 109.592 89.4413 109.58 89.6504Z" fill="black"/>
<path d="M118.776 74.9672C118.463 75.0739 118.125 75.0739 117.812 74.9672L112.772 72.9568C112.655 72.9083 112.53 72.8818 112.403 72.8784L101.007 65.5984C101.131 65.6022 101.254 65.6268 101.371 65.6712L106.411 67.6816C106.719 67.7883 107.054 67.7883 107.363 67.6816L118.776 74.9672Z" fill="#84C000"/>
<path opacity="0.2" d="M118.776 74.9672C118.463 75.0739 118.125 75.0739 117.812 74.9672L112.772 72.9568C112.655 72.9083 112.53 72.8818 112.403 72.8784L101.007 65.5984C101.131 65.6022 101.254 65.6268 101.371 65.6712L106.411 67.6816C106.719 67.7883 107.054 67.7883 107.363 67.6816L118.776 74.9672Z" fill="black"/>
<path d="M126.274 59.1751C126.205 59.327 126.154 59.4869 126.123 59.6511L124.936 68.4823C124.91 68.65 124.863 68.8136 124.796 68.9695L113.394 61.6895C113.458 61.5328 113.503 61.3694 113.529 61.2023L114.721 52.3767C114.747 52.2094 114.798 52.0469 114.873 51.8951L126.274 59.1751Z" fill="#84C000"/>
<path opacity="0.2" d="M126.274 59.1751C126.205 59.327 126.154 59.4869 126.123 59.6511L124.936 68.4823C124.91 68.65 124.863 68.8136 124.796 68.9695L113.394 61.6895C113.458 61.5328 113.503 61.3694 113.529 61.2023L114.721 52.3767C114.747 52.2094 114.798 52.0469 114.873 51.8951L126.274 59.1751Z" fill="black"/>
<path d="M152.527 64.5232L161.487 70.2184C161.399 70.1785 161.304 70.1578 161.207 70.1578C161.11 70.1578 161.015 70.1785 160.927 70.2184L153.692 73.0968C153.577 73.1448 153.454 73.1671 153.33 73.1621C153.206 73.157 153.085 73.1248 152.974 73.0676C152.864 73.0104 152.768 72.9297 152.693 72.8312C152.617 72.7327 152.565 72.6188 152.538 72.4976C152.21 71.2493 151.73 70.0457 151.11 68.9136C150.98 68.6456 150.913 68.3518 150.913 68.054C150.913 67.7562 150.98 67.4623 151.11 67.1944L152.527 64.5232Z" fill="#84C000"/>
<path d="M150.825 53.2784C150.596 53.1453 150.328 53.1003 150.069 53.1519C149.81 53.2035 149.579 53.3481 149.419 53.5584L143.136 62.16C143.014 62.3187 142.861 62.4519 142.688 62.552L139.473 60.48L136.477 58.5592L136.248 54.4824C136.249 54.3717 136.223 54.2623 136.171 54.1645C136.119 54.0666 136.043 53.9834 135.951 53.9224H135.917L133.537 52.4104L138.017 46.2896C138.177 46.0791 138.409 45.9351 138.669 45.8855C138.928 45.8359 139.197 45.8841 139.423 46.0208L144.429 49.2184L150.825 53.2784Z" fill="#84C000"/>
<path d="M106.837 97.1824C106.681 97.3979 106.492 97.587 106.277 97.7424L98.7727 102.542C98.5455 102.683 98.3539 102.874 98.2127 103.102L86.8223 95.8216C86.9553 95.6009 87.1326 95.4102 87.3431 95.2616L94.8527 90.468C95.0658 90.3097 95.2544 90.121 95.4127 89.908L106.837 97.1824Z" fill="#84C000"/>
<path d="M112.224 72.8728C112.043 72.8954 111.869 72.9572 111.714 73.0539C111.559 73.1506 111.427 73.2799 111.328 73.4328L105.017 83.3168C104.87 83.5521 104.812 83.8323 104.854 84.1064L93.4526 76.8264C93.4151 76.5578 93.4725 76.2845 93.615 76.0536L99.915 66.1752C100.023 66.0104 100.169 65.8737 100.34 65.7764C100.512 65.679 100.704 65.6238 100.901 65.6152L112.224 72.8728Z" fill="#84C000"/>
<path d="M135.918 53.9112C135.819 53.8732 135.712 53.858 135.607 53.8667C135.501 53.8755 135.399 53.9079 135.307 53.9616L131.947 55.6976L127.12 58.2064C126.737 58.4311 126.433 58.7698 126.252 59.1752L114.845 51.8952C115.037 51.4986 115.348 51.1717 115.735 50.96L123.906 46.7208C124.029 46.6521 124.168 46.6173 124.309 46.62C124.393 46.6184 124.475 46.6439 124.544 46.6928L128.285 49.0672L128.38 49.1288L133.538 52.4272L135.918 53.9112Z" fill="#84C000"/>
<path opacity="0.1" d="M152.527 64.5232L161.487 70.2184C161.399 70.1785 161.304 70.1578 161.207 70.1578C161.11 70.1578 161.015 70.1785 160.927 70.2184L153.692 73.0968C153.577 73.1448 153.454 73.1671 153.33 73.1621C153.206 73.157 153.085 73.1248 152.974 73.0676C152.864 73.0104 152.768 72.9297 152.693 72.8312C152.617 72.7327 152.565 72.6188 152.538 72.4976C152.21 71.2493 151.73 70.0457 151.11 68.9136C150.98 68.6456 150.913 68.3518 150.913 68.054C150.913 67.7562 150.98 67.4623 151.11 67.1944L152.527 64.5232Z" fill="black"/>
<path opacity="0.2" d="M150.825 53.2784C150.596 53.1453 150.328 53.1003 150.069 53.1519C149.81 53.2035 149.579 53.3481 149.419 53.5584L143.136 62.16C143.014 62.3187 142.861 62.4519 142.688 62.552L139.473 60.48L136.477 58.5592L136.248 54.4824C136.249 54.3717 136.223 54.2623 136.171 54.1645C136.119 54.0666 136.043 53.9834 135.951 53.9224H135.917L133.537 52.4104L138.017 46.2896C138.177 46.0791 138.409 45.9351 138.669 45.8855C138.928 45.8359 139.197 45.8841 139.423 46.0208L144.429 49.2184L150.825 53.2784Z" fill="black"/>
<path opacity="0.2" d="M106.837 97.1824C106.681 97.3979 106.492 97.587 106.277 97.7424L98.7727 102.542C98.5455 102.683 98.3539 102.874 98.2127 103.102L86.8223 95.8216C86.9553 95.6009 87.1326 95.4102 87.3431 95.2616L94.8527 90.468C95.0658 90.3097 95.2544 90.121 95.4127 89.908L106.837 97.1824Z" fill="black"/>
<path opacity="0.1" d="M112.224 72.8728C112.043 72.8954 111.869 72.9572 111.714 73.0539C111.559 73.1506 111.427 73.2799 111.328 73.4328L105.017 83.3168C104.87 83.5521 104.812 83.8323 104.854 84.1064L93.4526 76.8264C93.4151 76.5578 93.4725 76.2845 93.615 76.0536L99.915 66.1752C100.023 66.0104 100.169 65.8737 100.34 65.7764C100.512 65.679 100.704 65.6238 100.901 65.6152L112.224 72.8728Z" fill="black"/>
<path opacity="0.1" d="M135.918 53.9112C135.819 53.8732 135.712 53.858 135.607 53.8667C135.501 53.8755 135.399 53.9079 135.307 53.9616L131.947 55.6976L127.12 58.2064C126.737 58.4311 126.433 58.7698 126.252 59.1752L114.845 51.8952C115.037 51.4986 115.348 51.1717 115.735 50.96L123.906 46.7208C124.029 46.6521 124.168 46.6173 124.309 46.62C124.393 46.6184 124.475 46.6439 124.544 46.6928L128.285 49.0672L128.38 49.1288L133.538 52.4272L135.918 53.9112Z" fill="black"/>
<path opacity="0.15" d="M108.332 116.536L101.92 112.448L105.588 110.986C105.702 110.936 105.826 110.912 105.951 110.916C106.075 110.92 106.198 110.951 106.309 111.008C106.42 111.065 106.516 111.146 106.592 111.244C106.668 111.343 106.721 111.458 106.747 111.58C107.074 112.831 107.554 114.036 108.175 115.17C108.388 115.592 108.443 116.076 108.332 116.536Z" fill="black"/>
<path opacity="0.15" d="M123.25 130.122L114.29 124.415L116.105 121.94C116.297 121.711 116.54 121.529 116.813 121.407C117.087 121.286 117.385 121.229 117.684 121.24C118.972 121.323 120.266 121.25 121.537 121.022C121.658 120.994 121.783 120.994 121.904 121.021C122.025 121.048 122.139 121.101 122.237 121.177C122.335 121.253 122.415 121.35 122.471 121.461C122.527 121.571 122.558 121.693 122.561 121.817L122.998 129.59C122.997 129.692 123.019 129.793 123.063 129.885C123.107 129.977 123.171 130.058 123.25 130.122Z" fill="black"/>
<path d="M161.767 70.7055C161.757 70.5774 161.71 70.4549 161.632 70.3527L161.554 70.2743L161.464 70.2183C161.392 70.1847 161.314 70.1657 161.235 70.1623C161.116 70.1577 160.998 70.1787 160.888 70.2239L153.658 73.1079C153.544 73.156 153.42 73.1783 153.296 73.1732C153.172 73.1682 153.051 73.1359 152.941 73.0787C152.831 73.0215 152.735 72.9408 152.659 72.8423C152.584 72.7438 152.531 72.6299 152.504 72.5087C152.432 72.2399 152.353 71.9767 152.269 71.7135C152.185 71.4503 152.124 71.2823 152.051 71.0751C151.944 70.7671 151.821 70.4647 151.692 70.1791C151.631 70.0335 151.564 69.8879 151.502 69.7479L151.3 69.3335C151.233 69.1935 151.16 69.0647 151.088 68.9303C151.007 68.7827 150.949 68.6243 150.914 68.4599C150.816 68.0399 150.866 67.5991 151.054 67.2111L152.532 64.5287L156.2 57.8927C156.327 57.6566 156.362 57.3816 156.296 57.1216C156.231 56.8615 156.071 56.6353 155.848 56.4871L150.847 53.2951H150.785H150.74L150.628 53.2503H150.572H150.511H150.382C150.228 53.2449 150.074 53.2714 149.93 53.3283C149.787 53.3852 149.656 53.4711 149.548 53.5807C149.515 53.6102 149.487 53.6442 149.464 53.6815L147.156 56.8343L143.136 62.1599C143.109 62.1993 143.077 62.2351 143.04 62.2663C143.019 62.2982 142.992 62.3265 142.962 62.3503C142.879 62.4286 142.787 62.4963 142.688 62.5519C142.351 62.759 141.963 62.8658 141.568 62.8599C141.142 62.8263 140.705 62.8151 140.263 62.8207C139.408 62.8408 138.557 62.925 137.715 63.0727C137.594 63.101 137.467 63.102 137.346 63.0755C137.224 63.049 137.11 62.9958 137.011 62.9197C136.912 62.8435 136.832 62.7464 136.775 62.6354C136.719 62.5243 136.688 62.4021 136.684 62.2775L136.477 58.5815L136.253 54.5047C136.249 54.4421 136.237 54.3802 136.22 54.3199C136.209 54.2632 136.191 54.2085 136.164 54.1575C136.142 54.1189 136.116 54.0832 136.085 54.0511C136.087 54.0467 136.088 54.042 136.088 54.0371C136.088 54.0323 136.087 54.0275 136.085 54.0231L135.973 53.9391H135.934L135.85 53.9111C135.676 53.8779 135.495 53.9077 135.34 53.9951L127.12 58.2063C127.012 58.2611 126.912 58.3309 126.823 58.4135L126.744 58.4863C126.639 58.589 126.543 58.7015 126.459 58.8223C126.408 58.8895 126.369 58.9511 126.324 59.0239L126.252 59.1751C126.214 59.253 126.182 59.3335 126.156 59.4159C126.131 59.4926 126.112 59.5713 126.1 59.6511L125.255 65.9399L124.913 68.4823C124.913 68.5719 124.874 68.6727 124.846 68.7735C124.829 68.8414 124.805 68.9071 124.773 68.9695C124.608 69.3962 124.348 69.7794 124.012 70.0895C122.367 71.4768 120.818 72.9735 119.375 74.5695C119.204 74.7508 118.987 74.8824 118.748 74.9503C118.658 74.9794 118.566 75 118.473 75.0119H118.339C118.148 75.026 117.957 74.9973 117.779 74.9279L112.739 72.9175C112.685 72.8949 112.628 72.878 112.571 72.8671C112.521 72.859 112.47 72.859 112.42 72.8671H112.364C112.31 72.8616 112.255 72.8616 112.201 72.8671C112.015 72.8845 111.835 72.944 111.675 73.041C111.515 73.138 111.379 73.27 111.277 73.4271L110 75.4319L106.26 81.3063L104.977 83.3111C104.881 83.4701 104.821 83.6487 104.802 83.8338C104.784 84.0189 104.807 84.2058 104.871 84.3807C104.93 84.5514 105.03 84.7051 105.162 84.8287L109.082 88.5471C109.281 88.7559 109.416 89.0162 109.474 89.2985C109.531 89.5807 109.508 89.8734 109.407 90.1431C108.566 92.1227 107.859 94.1563 107.29 96.2303C107.098 96.8339 106.717 97.3599 106.204 97.7311L104.12 99.1199L98.7725 102.542C98.5258 102.718 98.3198 102.945 98.1682 103.208C98.0165 103.471 97.9228 103.763 97.8933 104.065L97.4845 113.266C97.4628 113.377 97.4737 113.493 97.516 113.599C97.5582 113.704 97.6298 113.796 97.7225 113.862C97.8152 113.928 97.9248 113.966 98.0385 113.971C98.1522 113.977 98.2651 113.95 98.3637 113.893L105.593 111.014C105.708 110.965 105.831 110.942 105.956 110.946C106.08 110.95 106.202 110.982 106.312 111.039C106.423 111.095 106.52 111.176 106.596 111.274C106.672 111.373 106.726 111.487 106.752 111.608C106.969 112.435 107.25 113.244 107.592 114.027C107.772 114.436 107.962 114.822 108.152 115.198C108.29 115.462 108.365 115.755 108.371 116.053C108.377 116.351 108.314 116.647 108.186 116.917L103.04 126.202C102.912 126.438 102.878 126.714 102.944 126.974C103.011 127.235 103.173 127.461 103.398 127.607L108.393 130.794C108.62 130.936 108.892 130.988 109.156 130.939C109.419 130.89 109.655 130.744 109.816 130.53L114.296 124.415L116.11 121.94C116.302 121.711 116.543 121.529 116.816 121.408C117.089 121.287 117.385 121.229 117.684 121.24C118.972 121.323 120.266 121.25 121.536 121.022C121.658 120.994 121.783 120.994 121.905 121.021C122.026 121.048 122.14 121.101 122.238 121.177C122.337 121.253 122.417 121.35 122.474 121.46C122.531 121.571 122.562 121.693 122.567 121.817L123.004 129.59C123.002 129.687 123.021 129.784 123.06 129.874C123.098 129.964 123.156 130.044 123.228 130.11C123.27 130.142 123.317 130.164 123.368 130.178C123.46 130.207 123.558 130.217 123.655 130.205C123.752 130.193 123.845 130.161 123.928 130.11L132.098 125.866C132.227 125.796 132.345 125.709 132.451 125.608C132.565 125.499 132.668 125.379 132.759 125.25C132.94 125.003 133.059 124.717 133.106 124.415L134.304 115.59C134.426 114.97 134.742 114.405 135.206 113.977C136.848 112.591 138.394 111.094 139.832 109.497C140.033 109.291 140.29 109.147 140.57 109.082C140.851 109.016 141.144 109.032 141.416 109.127L146.456 111.138C146.718 111.231 147.002 111.235 147.266 111.149C147.53 111.063 147.757 110.891 147.912 110.662L154.235 100.8C154.376 100.561 154.434 100.281 154.4 100.006C154.365 99.7301 154.24 99.4737 154.044 99.2767L150.08 95.5583C149.881 95.3496 149.745 95.0892 149.688 94.807C149.631 94.5247 149.654 94.232 149.755 93.9623C150.598 91.9837 151.305 89.95 151.872 87.8751C152.065 87.2723 152.446 86.7467 152.958 86.3743L160.462 81.5807C160.709 81.4028 160.916 81.1746 161.068 80.9111C161.221 80.6476 161.316 80.3548 161.347 80.0519L161.756 70.8511C161.772 70.8007 161.767 70.7503 161.767 70.7055ZM142.268 92.4279C141.875 93.4362 141.431 94.4232 140.935 95.3847C139.939 97.341 138.756 99.1958 137.401 100.923C136.747 101.766 136.047 102.574 135.307 103.342C133.459 105.327 131.296 106.994 128.906 108.276C127.075 109.305 125.024 109.881 122.925 109.956C118.876 109.956 115.987 107.24 115.326 102.519C115.264 102.071 115.225 101.601 115.203 101.114C115.203 100.923 115.203 100.727 115.203 100.526V100.195C115.203 99.9823 115.203 99.7751 115.203 99.5623C115.6 90.6023 122.382 79.9623 130.351 75.8351C130.592 75.7063 130.827 75.5887 131.068 75.4823C131.185 75.4207 131.308 75.3703 131.42 75.3199L131.773 75.1743C132.203 74.9928 132.643 74.8339 133.089 74.6983C137.648 73.3095 141.316 74.7879 143.024 78.4559C143.846 80.3799 144.196 82.4731 144.043 84.5599C143.885 87.262 143.285 89.9198 142.268 92.4279Z" fill="#84C000"/>
<path d="M69.0481 84.3584L68.6001 94.4048C74.8049 90.9496 80.6569 85.736 85.6353 79.5648L80.7577 74.1664C77.5004 78.2414 73.5334 81.6942 69.0481 84.3584Z" fill="#84C000"/>
<path opacity="0.8" d="M69.0481 84.3584L68.6001 94.4048C74.8049 90.9496 80.6569 85.736 85.6353 79.5648L80.7577 74.1664C77.5004 78.2414 73.5334 81.6942 69.0481 84.3584Z" fill="white"/>
<path d="M62.821 80.3656L62.373 90.412L68.6002 94.4048L69.0483 84.3584L62.821 80.3656Z" fill="#84C000"/>
<path opacity="0.65" d="M62.821 80.3656L62.373 90.412L68.6002 94.4048L69.0483 84.3584L62.821 80.3656Z" fill="white"/>
<path d="M62.821 80.3656L62.373 90.412L68.6002 94.4048L69.0483 84.3584L62.821 80.3656Z" fill="#84C000"/>
<path opacity="0.05" d="M62.821 80.3656L62.373 90.412L68.6002 94.4048L69.0483 84.3584L62.821 80.3656Z" fill="black"/>
<path d="M69.048 84.3584C73.5333 81.6942 77.5003 78.2414 80.7576 74.1664L74.5248 70.1736C71.2681 74.2471 67.3033 77.6998 62.8208 80.3656L69.048 84.3584Z" fill="#84C000"/>
<path opacity="0.6" d="M69.048 84.3584C73.5333 81.6942 77.5003 78.2414 80.7576 74.1664L74.5248 70.1736C71.2681 74.2471 67.3033 77.6998 62.8208 80.3656L69.048 84.3584Z" fill="white"/>
<path d="M55.4906 87.2928L49.8906 98.1344C54.5442 99.3048 60.1946 98.5376 66.377 95.564L66.825 85.484C62.597 87.4832 58.7218 88.032 55.4906 87.2928Z" fill="#84C000"/>
<path opacity="0.65" d="M55.4906 87.2928L49.8906 98.1344C54.5442 99.3048 60.1946 98.5376 66.377 95.564L66.825 85.484C62.597 87.4832 58.7218 88.032 55.4906 87.2928Z" fill="white"/>
<path d="M49.2577 83.3L43.6577 94.1416L49.8905 98.1345L55.4905 87.2929L49.2577 83.3Z" fill="#84C000"/>
<path opacity="0.55" d="M49.2577 83.3L43.6577 94.1416L49.8905 98.1345L55.4905 87.2929L49.2577 83.3Z" fill="white"/>
<path d="M49.2577 83.3L43.6577 94.1416L49.8905 98.1345L55.4905 87.2929L49.2577 83.3Z" fill="#84C000"/>
<path opacity="0.1" d="M49.2577 83.3L43.6577 94.1416L49.8905 98.1345L55.4905 87.2929L49.2577 83.3Z" fill="black"/>
<path d="M60.5922 81.5192C56.3642 83.4904 52.489 84.0392 49.2578 83.3L55.4906 87.2928C58.7218 88.032 62.597 87.4832 66.825 85.512L60.5922 81.5192Z" fill="#84C000"/>
<path opacity="0.55" d="M60.5922 81.5192C56.3642 83.4904 52.489 84.0392 49.2578 83.3L55.4906 87.2928C58.7218 88.032 62.597 87.4832 66.825 85.512L60.5922 81.5192Z" fill="white"/>
<path d="M47.1352 79.4192L38.5 86.94C40.2864 92.2488 43.6744 95.9 48.16 97.58L53.76 86.7496C50.7136 85.5288 48.412 83.0088 47.1352 79.4192Z" fill="#84C000"/>
<path opacity="0.55" d="M47.1352 79.4192L38.5 86.94C40.2864 92.2488 43.6744 95.9 48.16 97.58L53.76 86.7496C50.7136 85.5288 48.412 83.0088 47.1352 79.4192Z" fill="white"/>
<path d="M38.5004 86.9399L32.2676 82.9471C33.6564 87.0631 36.0084 90.1599 39.0884 92.1647L45.3156 96.1575C42.2356 94.1751 39.8836 91.0559 38.5004 86.9399Z" fill="#84C000"/>
<path opacity="0.45" d="M38.5004 86.9399L32.2676 82.9471C33.6564 87.0631 36.0084 90.1599 39.0884 92.1647L45.3156 96.1575C42.2356 94.1751 39.8836 91.0559 38.5004 86.9399Z" fill="white"/>
<path d="M40.9028 75.4264L32.2676 82.9472L38.5004 86.94L47.1356 79.4192L40.9028 75.4264Z" fill="#84C000"/>
<path opacity="0.55" d="M40.9028 75.4264L32.2676 82.9472L38.5004 86.94L47.1356 79.4192L40.9028 75.4264Z" fill="white"/>
<path d="M40.9028 75.4264L32.2676 82.9472L38.5004 86.94L47.1356 79.4192L40.9028 75.4264Z" fill="#84C000"/>
<path opacity="0.1" d="M40.9028 75.4264L32.2676 82.9472L38.5004 86.94L47.1356 79.4192L40.9028 75.4264Z" fill="black"/>
<path d="M82.6226 71.7584L87.4946 77.1512C92.3325 70.6641 96.0709 63.4257 98.5602 55.7256L90.205 57.0304C88.459 62.3043 85.9008 67.2734 82.6226 71.7584Z" fill="#84C000"/>
<path opacity="0.85" d="M82.6226 71.7584L87.4946 77.1512C92.3325 70.6641 96.0709 63.4257 98.5602 55.7256L90.205 57.0304C88.459 62.3043 85.9008 67.2734 82.6226 71.7584Z" fill="white"/>
<path d="M92.3552 51.7328L84 53.0376L90.2272 57.0304L98.5824 55.7256L92.3552 51.7328Z" fill="#84C000"/>
<path opacity="0.75" d="M92.3552 51.7328L84 53.0376L90.2272 57.0304L98.5824 55.7256L92.3552 51.7328Z" fill="white"/>
<path d="M92.3552 51.7328L84 53.0376L90.2272 57.0304L98.5824 55.7256L92.3552 51.7328Z" fill="#84C000"/>
<path d="M84 53.0376C82.2495 58.3132 79.6815 63.2812 76.3896 67.76L82.6224 71.7528C85.9086 67.2692 88.4744 62.3001 90.2272 57.0248L84 53.0376Z" fill="#84C000"/>
<path opacity="0.65" d="M84 53.0376C82.2495 58.3132 79.6815 63.2812 76.3896 67.76L82.6224 71.7528C85.9086 67.2692 88.4744 62.3001 90.2272 57.0248L84 53.0376Z" fill="white"/>
<path d="M82.6224 71.7584L76.3896 67.7656L81.2616 73.1584L87.4944 77.1512L82.6224 71.7584Z" fill="#84C000"/>
<path opacity="0.75" d="M82.6224 71.7584L76.3896 67.7656L81.2616 73.1584L87.4944 77.1512L82.6224 71.7584Z" fill="white"/>
<path d="M82.6224 71.7584L76.3896 67.7656L81.2616 73.1584L87.4944 77.1512L82.6224 71.7584Z" fill="#84C000"/>
<path d="M101.058 42.4199C100.877 45.9922 100.313 49.5348 99.3777 52.9871L91.0225 54.3199C91.644 51.938 92.0193 49.4986 92.1425 47.0399C92.2108 45.5911 92.1546 44.1391 91.9745 42.6999L99.1705 29.8199C99.3497 30.2399 99.5065 30.6879 99.6633 31.1359C99.6633 31.1359 100.016 32.2167 100.223 33.1687C100.938 36.1974 101.219 39.3123 101.058 42.4199Z" fill="#84C000"/>
<path opacity="0.9" d="M101.058 42.4199C100.877 45.9922 100.313 49.5348 99.3777 52.9871L91.0225 54.3199C91.644 51.938 92.0193 49.4986 92.1425 47.0399C92.2108 45.5911 92.1546 44.1391 91.9745 42.6999L99.1705 29.8199C99.3497 30.2399 99.5065 30.6879 99.6633 31.1359C99.6633 31.1359 100.016 32.2167 100.223 33.1687C100.938 36.1974 101.219 39.3123 101.058 42.4199Z" fill="white"/>
<path d="M92.9548 25.8048L85.7588 38.7072L91.9916 42.7L99.1876 29.7976L92.9548 25.8048Z" fill="#84C000"/>
<path opacity="0.85" d="M92.9548 25.8048L85.7588 38.7072L91.9916 42.7L99.1876 29.7976L92.9548 25.8048Z" fill="white"/>
<path d="M92.9548 25.8048L85.7588 38.7072L91.9916 42.7L99.1876 29.7976L92.9548 25.8048Z" fill="#84C000"/>
<path d="M91.9912 42.7L85.7584 38.7072C85.9406 40.1462 85.9986 41.5982 85.932 43.0472C85.8068 45.4963 85.4315 47.9263 84.812 50.2992L91.0224 54.32C91.644 51.938 92.0193 49.4986 92.1424 47.04C92.2163 45.5916 92.1658 44.1396 91.9912 42.7Z" fill="#84C000"/>
<path opacity="0.7" d="M92.1987 42.8344L85.9715 38.8416C86.1545 40.2805 86.2107 41.7328 86.1395 43.1816C86.0191 45.6404 85.6438 48.0802 85.0195 50.4616L91.2467 54.4544C91.8681 52.0724 92.2434 49.6329 92.3667 47.1744C92.438 45.7256 92.3818 44.2733 92.1987 42.8344Z" fill="white"/>
<path d="M98.3306 23.7328C98.2746 23.6992 95.357 21.644 95.357 21.644C95.303 21.6057 95.2447 21.5738 95.1834 21.5488L89.3706 19.1464C89.083 19.0357 88.7654 19.0313 88.4749 19.134C88.1843 19.2366 87.94 19.4396 87.7858 19.7064L64.3106 61.796L54.9754 56.6664C54.7104 56.5246 54.4013 56.4891 54.1111 56.5671C53.8208 56.6451 53.5712 56.8308 53.413 57.0864L48.8322 64.3328C48.6839 64.5715 48.636 64.8591 48.6989 65.1329C48.7619 65.4067 48.9306 65.6445 49.1682 65.7944C49.1682 65.7944 51.677 67.592 52.1418 67.8832C52.1601 67.8995 52.1809 67.9127 52.2034 67.9224L68.4434 76.8824C68.5721 76.9538 68.7136 76.9992 68.8598 77.0159C69.006 77.0325 69.1541 77.0202 69.2955 76.9797C69.437 76.9391 69.5691 76.8711 69.6842 76.7794C69.7994 76.6878 69.8953 76.5744 69.9666 76.4456L98.633 25.0544C98.7655 24.8384 98.808 24.579 98.7515 24.3319C98.695 24.0849 98.5439 23.8698 98.3306 23.7328Z" fill="#263238"/>
<path d="M98.3306 23.7328C98.2746 23.6992 95.357 21.644 95.357 21.644C95.303 21.6057 95.2447 21.5738 95.1834 21.5488L89.3706 19.1464C89.1953 19.0777 89.0071 19.0486 88.8192 19.0612C88.6314 19.0738 88.4487 19.1278 88.2842 19.2192L98.4258 25.4464L98.6442 25.0488C98.7739 24.8319 98.8137 24.5729 98.7551 24.327C98.6965 24.0812 98.5442 23.8679 98.3306 23.7328Z" fill="#455A64"/>
<path d="M98.1571 23.6431L92.3387 21.2407C92.0518 21.1316 91.7354 21.1279 91.4461 21.2305C91.1568 21.3331 90.9135 21.5352 90.7595 21.8007L67.2787 63.8959L57.9491 58.7663C57.685 58.6226 57.376 58.5855 57.0854 58.6626C56.7948 58.7396 56.5448 58.9251 56.3867 59.1807L51.8059 66.4607C51.7287 66.5841 51.6777 66.722 51.656 66.8659C51.6342 67.0098 51.6423 67.1566 51.6795 67.2973C51.7168 67.4379 51.7825 67.5695 51.8726 67.6837C51.9627 67.798 52.0753 67.8925 52.2035 67.9615L68.4435 76.9215C68.5721 76.9929 68.7136 77.0383 68.8598 77.055C69.0061 77.0717 69.1541 77.0594 69.2956 77.0188C69.437 76.9782 69.5691 76.9102 69.6843 76.8186C69.7994 76.7269 69.8954 76.6135 69.9667 76.4847L98.6331 25.0935C98.7149 24.9713 98.7679 24.832 98.7879 24.6863C98.8079 24.5405 98.7945 24.3921 98.7486 24.2523C98.7028 24.1125 98.6256 23.985 98.5231 23.8795C98.4206 23.7739 98.2954 23.6931 98.1571 23.6431Z" fill="#37474F"/>
<path d="M64.3104 61.7904L67.2728 63.8904L57.9488 58.7552C57.6839 58.6091 57.3722 58.5729 57.0808 58.6544L54.1128 56.56C54.256 56.5186 54.4061 56.5061 54.5542 56.5234C54.7022 56.5408 54.8454 56.5875 54.9752 56.6608L64.3104 61.7904Z" fill="#455A64"/>
<path d="M46.0212 71.0136C46.1444 68.555 46.5197 66.1156 47.1412 63.7336L38.8084 65.0664C37.8727 68.5187 37.3095 72.0614 37.1284 75.6336C36.9564 78.7471 37.226 81.8693 37.9292 84.9072L46.5532 77.3976C46.0932 75.3027 45.9143 73.1558 46.0212 71.0136Z" fill="#84C000"/>
<path d="M46.0212 71.0136C46.1444 68.555 46.5197 66.1156 47.1412 63.7336L38.8084 65.0664C37.8727 68.5187 37.3095 72.0614 37.1284 75.6336C36.9564 78.7471 37.226 81.8693 37.9292 84.9072L46.5532 77.3976C46.0932 75.3027 45.9143 73.1558 46.0212 71.0136Z" fill="#84C000"/>
<path d="M40.9248 59.7688L32.5752 61.0736L38.808 65.0664L47.1576 63.7616L40.9248 59.7688Z" fill="#84C000"/>
<path opacity="0.15" d="M40.9248 59.7688L32.5752 61.0736L38.808 65.0664L47.1576 63.7616L40.9248 59.7688Z" fill="black"/>
<path d="M38.8082 65.0664L32.5754 61.0736C31.6451 64.5271 31.0819 68.0691 30.8954 71.6408C30.7252 74.7546 30.9967 77.8768 31.7018 80.9144L37.929 84.9072C37.2258 81.8693 36.9562 78.7471 37.1282 75.6336C37.3093 72.0613 37.8725 68.5187 38.8082 65.0664Z" fill="#84C000"/>
<path opacity="0.3" d="M38.8082 65.0664L32.5754 61.0736C31.6451 64.5271 31.0819 68.0691 30.8954 71.6408C30.7252 74.7546 30.9967 77.8768 31.7018 80.9144L37.929 84.9072C37.2258 81.8693 36.9562 78.7471 37.1282 75.6336C37.3093 72.0613 37.8725 68.5187 38.8082 65.0664Z" fill="white"/>
<path d="M82.6842 30.7664L88.2842 19.9024C83.4458 18.7096 77.7058 19.6672 71.7866 22.5064L71.3442 32.5304C75.4098 30.6432 79.3298 30.016 82.6842 30.7664Z" fill="#84C000"/>
<path opacity="0.3" d="M82.6842 30.7664L88.2842 19.9024C83.4458 18.7096 77.7058 19.6672 71.7866 22.5064L71.3442 32.5304C75.4098 30.6432 79.3298 30.016 82.6842 30.7664Z" fill="black"/>
<path d="M65.5706 18.5135L65.1226 28.5375L71.3554 32.5303L71.8034 22.5063L65.5706 18.5135Z" fill="#84C000"/>
<path opacity="0.42" d="M65.5706 18.5135L65.1226 28.5375L71.3554 32.5303L71.8034 22.5063L65.5706 18.5135Z" fill="black"/>
<path d="M71.798 22.5064C77.7172 19.6672 83.4572 18.7096 88.2956 19.9024L82.0684 15.9096C77.23 14.7168 71.4844 15.6744 65.5708 18.5136L71.798 22.5064Z" fill="#84C000"/>
<path opacity="0.2" d="M71.798 22.5064C77.7172 19.6672 83.4572 18.7096 88.2956 19.9024L82.0684 15.9096C77.23 14.7168 71.4844 15.6744 65.5708 18.5136L71.798 22.5064Z" fill="black"/>
<path d="M69.1321 33.6952L69.5745 23.6488C63.3753 27.104 57.5233 32.312 52.5449 38.4888L57.4225 43.8816C60.6815 39.8097 64.6482 36.359 69.1321 33.6952Z" fill="#84C000"/>
<path opacity="0.2" d="M69.1321 33.6952L69.5745 23.6488C63.3753 27.104 57.5233 32.312 52.5449 38.4888L57.4225 43.8816C60.6815 39.8097 64.6482 36.359 69.1321 33.6952Z" fill="black"/>
<path d="M63.3472 19.656C57.12 23.1112 51.2904 28.3192 46.312 34.496L52.5448 38.4888C57.5232 32.3288 63.3752 27.104 69.5744 23.6488L63.3472 19.656Z" fill="#84C000"/>
<path opacity="0.1" d="M63.3472 19.656C57.12 23.1112 51.2904 28.3192 46.312 34.496L52.5448 38.4888C57.5232 32.3288 63.3752 27.104 69.5744 23.6488L63.3472 19.656Z" fill="black"/>
<path d="M52.5448 38.4888L46.312 34.496L51.1896 39.8888L57.4224 43.8816L52.5448 38.4888Z" fill="#84C000"/>
<path opacity="0.35" d="M52.5448 38.4888L46.312 34.496L51.1896 39.8888L57.4224 43.8816L52.5448 38.4888Z" fill="black"/>
<path d="M55.5579 46.2896L50.6859 40.88C45.8384 47.3735 42.0906 54.6194 39.5923 62.328L47.9531 61.04C49.7031 55.7566 52.2691 50.7796 55.5579 46.2896Z" fill="#84C000"/>
<path opacity="0.1" d="M55.5579 46.2896L50.6859 40.88C45.8384 47.3735 42.0906 54.6194 39.5923 62.328L47.9531 61.04C49.7031 55.7566 52.2691 50.7796 55.5579 46.2896Z" fill="black"/>
<path d="M39.5924 62.3279C42.0907 54.6193 45.8385 47.3735 50.686 40.8799L44.4532 36.9095C39.6074 43.3951 35.8614 50.6336 33.3652 58.3351L39.5924 62.3279Z" fill="#84C000"/>
<path d="M79.128 112.526L79.0831 112.498L68.32 105.437L68.2527 105.403C63.2127 102.474 56.2015 102.866 48.4456 107.274C32.872 116.122 20.1431 137.822 20.0199 155.736C19.9583 164.696 23.0439 170.968 28.0783 173.953L28.1231 173.981L38.9088 181.042L38.9591 181.076C43.9991 184.01 51.0215 183.618 58.7831 179.211C74.3568 170.358 87.0855 148.663 87.2087 130.749C87.2479 121.811 84.1624 115.511 79.128 112.526Z" fill="#37474F"/>
<path d="M38.5108 180.813L28.0948 173.975L28.0444 173.942C23.0044 170.957 19.93 164.651 19.9916 155.736C20.0476 147.745 22.6124 139.009 26.8124 130.995L37.598 138.057C33.3924 146.065 30.8332 154.801 30.7828 162.792C30.7156 171.534 33.6668 177.75 38.5108 180.813Z" fill="#263238"/>
<path d="M78.77 158.373C89.8692 139.447 90.0084 118.91 79.0809 112.501C68.1534 106.093 50.2972 116.24 39.198 135.165C28.0988 154.091 27.9596 174.629 38.8871 181.037C49.8146 187.446 67.6708 177.299 78.77 158.373Z" fill="#455A64"/>
<path d="M46.228 177.263C37.3352 177.201 36.4448 167.149 36.4728 162.831C36.5792 147.034 48.2776 127.087 62.02 119.28C65.5144 117.298 68.8744 116.256 71.736 116.273C80.6288 116.335 81.5192 126.386 81.4912 130.704C81.3792 146.502 69.6808 166.449 55.944 174.255C52.4496 176.243 49.0896 177.279 46.228 177.263Z" fill="#FAFAFA"/>
<path d="M60.558 149.817C60.4505 149.811 60.3447 149.789 60.2444 149.75C60.0578 149.673 59.8999 149.54 59.7924 149.37C59.685 149.199 59.6335 148.999 59.6452 148.798L60.9108 126C60.9374 125.753 61.0577 125.526 61.2468 125.366C61.4359 125.205 61.6795 125.123 61.9272 125.137C62.175 125.15 62.4081 125.259 62.5784 125.439C62.7488 125.619 62.8434 125.858 62.8428 126.106L61.7228 146.093L73.1132 133.028C73.1934 132.922 73.2945 132.834 73.4104 132.768C73.5262 132.703 73.6542 132.662 73.7865 132.649C73.9187 132.635 74.0523 132.649 74.179 132.689C74.3057 132.729 74.4228 132.795 74.5229 132.883C74.6231 132.97 74.7042 133.077 74.7611 133.197C74.8181 133.318 74.8497 133.448 74.8541 133.581C74.8584 133.714 74.8353 133.846 74.7863 133.97C74.7373 134.093 74.6634 134.205 74.5692 134.299L61.342 149.52C61.2411 149.624 61.1186 149.705 60.9831 149.756C60.8476 149.807 60.7024 149.828 60.558 149.817Z" fill="#37474F"/>
<path d="M54.1797 166.354C54.1353 166.362 54.0898 166.362 54.0453 166.354C53.9946 166.336 53.9479 166.309 53.908 166.273C53.868 166.237 53.8356 166.194 53.8127 166.145C53.7897 166.097 53.7767 166.044 53.7743 165.99C53.772 165.937 53.7803 165.883 53.7989 165.833L60.1493 148.098C60.1673 148.048 60.195 148.002 60.2308 147.962C60.2666 147.923 60.3098 147.891 60.3579 147.869C60.406 147.846 60.4581 147.833 60.5112 147.831C60.5642 147.828 60.6173 147.836 60.6673 147.854C60.7173 147.872 60.7633 147.9 60.8026 147.936C60.8419 147.971 60.8738 148.014 60.8964 148.063C60.919 148.111 60.9319 148.163 60.9344 148.216C60.9369 148.269 60.9289 148.322 60.9109 148.372L54.5661 166.085C54.5373 166.164 54.4847 166.232 54.4155 166.28C54.3463 166.329 54.264 166.354 54.1797 166.354Z" fill="#84C000"/>
<path d="M60.5584 144.279C62.3896 143.237 63.8624 144.099 63.8512 146.205C63.7791 147.353 63.4372 148.468 62.8535 149.46C62.2697 150.451 61.4603 151.291 60.4912 151.911C58.6544 152.953 57.1816 152.085 57.1984 149.979C57.2683 148.831 57.6092 147.716 58.1932 146.725C58.7773 145.734 59.5878 144.896 60.5584 144.279Z" fill="#84C000"/>
<path opacity="0.2" d="M60.5584 144.279C62.3896 143.237 63.8624 144.099 63.8512 146.205C63.7791 147.353 63.4372 148.468 62.8535 149.46C62.2697 150.451 61.4603 151.291 60.4912 151.911C58.6544 152.953 57.1816 152.085 57.1984 149.979C57.2683 148.831 57.6092 147.716 58.1932 146.725C58.7773 145.734 59.5878 144.896 60.5584 144.279Z" fill="black"/>
<path d="M146.283 202.11L142.722 204.165C142.521 204.267 142.298 204.321 142.072 204.321C141.846 204.321 141.624 204.267 141.423 204.165L140.303 203.51C140.121 203.391 139.977 203.222 139.89 203.023C139.802 202.824 139.774 202.604 139.81 202.39L151.659 146.306C151.776 145.845 152.062 145.445 152.46 145.186L156.027 143.125C156.229 143.026 156.45 142.974 156.674 142.974C156.899 142.974 157.12 143.026 157.321 143.125L158.441 143.786C158.627 143.901 158.773 144.069 158.861 144.269C158.949 144.469 158.974 144.691 158.934 144.906L147.09 201.001C146.967 201.457 146.679 201.852 146.283 202.11Z" fill="#455A64"/>
<path d="M146.283 202.11L142.722 204.165C142.363 204.372 142.162 204.215 142.223 203.806L154.073 147.722C154.19 147.262 154.476 146.862 154.874 146.602L158.441 144.542C158.799 144.334 159.001 144.497 158.934 144.9L147.09 201.001C146.967 201.457 146.679 201.852 146.283 202.11Z" fill="#263238"/>
<path d="M144.385 198.447L145.438 193.441L147.868 192.041L170.386 205.039L171.439 211.266L169.014 212.666L144.385 198.447Z" fill="#37474F"/>
<path d="M169.014 212.666L144.385 198.447L145.438 193.441L167.955 206.438L169.014 212.666Z" fill="#455A64"/>
<path d="M173.04 217.549L169.473 219.604C169.273 219.706 169.051 219.76 168.826 219.76C168.601 219.76 168.38 219.706 168.179 219.604L167.059 218.949C166.665 218.691 166.388 218.289 166.287 217.829L154.353 147.728C154.325 147.511 154.359 147.291 154.451 147.092C154.543 146.894 154.69 146.726 154.874 146.608L158.441 144.547C158.642 144.445 158.865 144.392 159.091 144.392C159.316 144.392 159.539 144.445 159.74 144.547L160.86 145.202C161.255 145.46 161.532 145.862 161.633 146.322L173.539 216.429C173.57 216.644 173.54 216.863 173.451 217.061C173.363 217.259 173.221 217.428 173.04 217.549Z" fill="#37474F"/>
<path d="M154.353 147.728L154.801 150.382L166.259 217.84C166.358 218.299 166.634 218.701 167.026 218.96L168.146 219.621C168.347 219.72 168.568 219.772 168.793 219.772C169.017 219.772 169.238 219.72 169.44 219.621L173.001 217.56C173.185 217.442 173.332 217.274 173.425 217.076C173.518 216.878 173.554 216.657 173.528 216.44L161.689 146.569L161.65 146.328C161.545 145.87 161.268 145.469 160.877 145.208L159.757 144.553C159.556 144.451 159.333 144.397 159.108 144.397C158.882 144.397 158.659 144.451 158.458 144.553L154.891 146.608C154.705 146.725 154.555 146.892 154.46 147.09C154.365 147.289 154.328 147.51 154.353 147.728Z" fill="#37474F"/>
<path d="M161.644 146.328L173.55 216.434C173.579 216.651 173.545 216.872 173.453 217.07C173.361 217.269 173.214 217.437 173.029 217.554L169.462 219.61C169.391 219.661 169.308 219.692 169.221 219.701C169.134 219.709 169.047 219.694 168.968 219.656C168.889 219.619 168.821 219.561 168.772 219.489C168.723 219.417 168.694 219.333 168.689 219.246L156.8 149.134C156.774 148.917 156.809 148.697 156.901 148.499C156.993 148.301 157.138 148.133 157.321 148.014L160.888 145.958C160.959 145.911 161.041 145.883 161.126 145.878C161.211 145.872 161.296 145.889 161.372 145.926C161.449 145.964 161.514 146.02 161.562 146.091C161.61 146.161 161.638 146.243 161.644 146.328Z" fill="#455A64"/>
<path opacity="0.15" d="M151.066 149.05L152.936 150.13C153.511 150.424 154.169 150.513 154.801 150.382C155.054 150.338 155.298 150.253 155.524 150.13L161.684 146.569L161.644 146.328C161.539 145.87 161.263 145.469 160.872 145.208L159.752 144.553C159.55 144.451 159.328 144.397 159.102 144.397C158.876 144.397 158.654 144.451 158.452 144.553C158.542 144.15 158.811 143.993 158.452 143.802L157.332 143.153C157.132 143.048 156.909 142.993 156.683 142.993C156.456 142.993 156.234 143.048 156.033 143.153L152.466 145.208C152.068 145.468 151.782 145.867 151.665 146.328L151.066 149.05Z" fill="black"/>
<path d="M148.904 144.682C148.919 144.516 148.979 144.357 149.078 144.223C149.177 144.088 149.31 143.984 149.464 143.92L156.599 139.804C157 139.6 157.445 139.494 157.895 139.494C158.346 139.494 158.79 139.6 159.192 139.804L162.686 141.82C162.836 141.882 162.968 141.984 163.066 142.114C163.165 142.244 163.227 142.397 163.246 142.559V144.183C163.23 144.347 163.169 144.504 163.07 144.636C162.972 144.768 162.839 144.871 162.686 144.934L155.552 149.05C155.15 149.254 154.706 149.36 154.255 149.36C153.805 149.36 153.36 149.254 152.959 149.05L149.464 147.034C149.312 146.973 149.18 146.872 149.081 146.742C148.983 146.612 148.921 146.457 148.904 146.294C148.899 146.02 148.904 144.945 148.904 144.682Z" fill="#37474F"/>
<path d="M148.904 144.682C148.919 144.516 148.979 144.357 149.078 144.223C149.177 144.089 149.31 143.984 149.464 143.92L154.258 141.159V149.363C153.805 149.371 153.358 149.263 152.959 149.05L149.464 147.034C149.312 146.973 149.18 146.872 149.081 146.742C148.983 146.612 148.921 146.457 148.904 146.294C148.899 146.02 148.904 144.945 148.904 144.682Z" fill="#263238"/>
<path d="M155.523 147.437L162.658 143.315C163.375 142.901 163.375 142.234 162.658 141.82L159.163 139.804C158.762 139.6 158.318 139.494 157.867 139.494C157.416 139.494 156.972 139.6 156.571 139.804L149.436 143.92C148.725 144.334 148.725 145.006 149.436 145.415L152.931 147.437C153.333 147.638 153.777 147.743 154.227 147.743C154.677 147.743 155.121 147.638 155.523 147.437Z" fill="#455A64"/>
<path d="M159.998 136.002L157.59 134.585C156.901 134.232 155.977 134.333 154.98 134.977C153.932 135.735 153.077 136.731 152.485 137.882C151.893 139.033 151.582 140.307 151.575 141.602C151.631 142.783 152.085 143.595 152.774 143.954L155.187 145.37C155.876 145.723 156.8 145.617 157.797 144.978C158.846 144.22 159.702 143.225 160.294 142.074C160.887 140.923 161.2 139.648 161.207 138.354C161.14 137.2 160.687 136.36 159.998 136.002Z" fill="#455A64"/>
<path d="M155.12 145.342L152.757 143.948C152.068 143.59 151.637 142.778 151.559 141.602C151.537 140.452 151.785 139.313 152.281 138.275L154.689 139.692C154.193 140.73 153.945 141.869 153.967 143.018C154 144.166 154.459 144.973 155.12 145.342Z" fill="#263238"/>
<path d="M157.791 144.978C158.84 144.22 159.696 143.225 160.288 142.074C160.881 140.923 161.194 139.648 161.202 138.354C161.084 135.979 159.371 135.1 157.377 136.388C156.328 137.146 155.472 138.141 154.879 139.292C154.287 140.444 153.974 141.718 153.967 143.013C154.084 145.382 155.792 146.266 157.791 144.978Z" fill="#37474F"/>
<path d="M156.117 144.81C154.941 144.872 154.751 143.545 154.723 142.974C154.739 141.812 155.025 140.671 155.556 139.638C156.087 138.605 156.851 137.709 157.786 137.021C158.16 136.762 158.593 136.601 159.046 136.55C160.227 136.494 160.418 137.822 160.446 138.393C160.427 139.556 160.138 140.699 159.603 141.732C159.067 142.765 158.3 143.659 157.36 144.346C156.985 144.606 156.549 144.767 156.095 144.81H156.117Z" fill="#263238"/>
<path d="M157.786 137.021C158.122 136.792 158.504 136.639 158.906 136.573C159.107 136.961 159.218 137.39 159.231 137.827C159.213 138.988 158.927 140.13 158.396 141.162C157.864 142.195 157.102 143.091 156.167 143.78C155.831 144.009 155.449 144.162 155.047 144.228C154.844 143.841 154.733 143.411 154.723 142.974C154.739 141.812 155.025 140.671 155.556 139.638C156.087 138.605 156.851 137.709 157.786 137.021Z" fill="#84C000"/>
<path d="M90.3562 234.394L86.8002 236.454C86.6 236.557 86.3783 236.61 86.1534 236.61C85.9286 236.61 85.7069 236.557 85.5066 236.454L84.3866 235.799C84.2047 235.681 84.0613 235.511 83.9738 235.313C83.8863 235.114 83.8585 234.894 83.8938 234.679L95.7154 178.64C95.8323 178.179 96.1182 177.78 96.5162 177.52L100.083 175.459C100.284 175.357 100.505 175.304 100.73 175.304C100.955 175.304 101.177 175.357 101.377 175.459L102.497 176.114C102.679 176.233 102.822 176.402 102.91 176.601C102.997 176.8 103.025 177.02 102.99 177.234L91.1626 233.29C91.0386 233.745 90.7515 234.138 90.3562 234.394Z" fill="#455A64"/>
<path d="M90.3563 234.394L86.8003 236.454C86.4475 236.662 86.2403 236.499 86.3075 236.096L98.1571 180.012C98.2745 179.552 98.5602 179.152 98.9579 178.892L102.525 176.831C102.884 176.624 103.085 176.786 103.018 177.19L91.1627 233.29C91.0387 233.745 90.7516 234.138 90.3563 234.394Z" fill="#263238"/>
<path d="M88.3906 230.821L89.449 225.814L91.8794 224.414L114.391 237.412L115.45 243.639L113.019 245.039L88.3906 230.821Z" fill="#37474F"/>
<path d="M113.019 245.039L88.3906 230.821L89.449 225.814L111.967 238.812L113.019 245.039Z" fill="#455A64"/>
<path d="M117.102 249.838L113.535 251.894C113.334 251.996 113.113 252.049 112.888 252.049C112.663 252.049 112.441 251.996 112.241 251.894L111.121 251.238C110.727 250.98 110.45 250.578 110.348 250.118L98.4426 180.006C98.41 179.789 98.442 179.567 98.5346 179.368C98.6272 179.169 98.7763 179.002 98.9634 178.886L102.531 176.826C102.732 176.723 102.954 176.67 103.18 176.67C103.406 176.67 103.628 176.723 103.83 176.826L104.95 177.481C105.344 177.738 105.622 178.141 105.723 178.601L117.6 248.724C117.629 248.938 117.598 249.155 117.51 249.352C117.421 249.549 117.28 249.717 117.102 249.838Z" fill="#37474F"/>
<path d="M98.4257 180.018L98.8737 182.666L110.32 250.124C110.42 250.583 110.695 250.985 111.087 251.244L112.207 251.905C112.409 252.004 112.632 252.056 112.857 252.056C113.082 252.056 113.304 252.004 113.506 251.905L117.068 249.844C117.252 249.726 117.399 249.558 117.492 249.36C117.585 249.162 117.621 248.941 117.594 248.724L105.762 178.858L105.722 178.618C105.619 178.159 105.342 177.757 104.95 177.498L103.83 176.842C103.628 176.74 103.406 176.687 103.18 176.687C102.954 176.687 102.732 176.74 102.53 176.842L98.9633 178.898C98.7771 179.015 98.6278 179.182 98.5327 179.38C98.4375 179.578 98.4004 179.799 98.4257 180.018Z" fill="#37474F"/>
<path d="M105.717 178.64L117.6 248.724C117.628 248.941 117.594 249.161 117.502 249.359C117.409 249.557 117.263 249.725 117.08 249.844L113.512 251.899C113.442 251.951 113.359 251.982 113.272 251.99C113.185 251.998 113.097 251.983 113.018 251.946C112.939 251.909 112.872 251.851 112.823 251.779C112.774 251.707 112.745 251.622 112.74 251.535L100.856 181.44C100.829 181.223 100.863 181.003 100.955 180.805C101.047 180.607 101.194 180.439 101.377 180.32L104.944 178.265C105.016 178.213 105.1 178.182 105.188 178.174C105.276 178.166 105.364 178.183 105.443 178.221C105.523 178.26 105.59 178.319 105.638 178.393C105.686 178.466 105.714 178.552 105.717 178.64Z" fill="#455A64"/>
<path opacity="0.15" d="M95.1387 181.339L97.0091 182.42C97.5837 182.715 98.2425 182.802 98.8739 182.666C99.127 182.626 99.3713 182.543 99.5963 182.42L105.756 178.858L105.717 178.618C105.613 178.159 105.337 177.757 104.944 177.498L103.824 176.842C103.623 176.74 103.4 176.687 103.175 176.687C102.949 176.687 102.726 176.74 102.525 176.842C102.615 176.439 102.883 176.282 102.525 176.092L101.405 175.437C101.204 175.335 100.981 175.281 100.755 175.281C100.53 175.281 100.307 175.335 100.106 175.437L96.5163 177.52C96.117 177.778 95.8308 178.179 95.7155 178.64L95.1387 181.339Z" fill="black"/>
<path d="M92.9604 176.96C92.9728 176.797 93.0287 176.64 93.1223 176.507C93.2159 176.373 93.3437 176.266 93.4924 176.198L100.627 172.082C101.029 171.878 101.473 171.772 101.923 171.772C102.374 171.772 102.818 171.878 103.22 172.082L106.714 174.098C106.865 174.161 106.996 174.262 107.094 174.392C107.193 174.522 107.255 174.676 107.274 174.838V176.462C107.258 176.626 107.197 176.782 107.098 176.915C107 177.047 106.867 177.15 106.714 177.212L99.5797 181.328C99.178 181.532 98.7338 181.639 98.2833 181.639C97.8327 181.639 97.3885 181.532 96.9869 181.328L93.4924 179.312C93.3458 179.248 93.2191 179.145 93.1255 179.015C93.032 178.885 92.975 178.732 92.9604 178.573C92.9604 178.31 92.9604 177.234 92.9604 176.96Z" fill="#37474F"/>
<path d="M92.9604 176.96C92.9728 176.797 93.0287 176.64 93.1223 176.506C93.2159 176.372 93.3437 176.266 93.4924 176.198L98.286 173.432V181.642C97.8333 181.65 97.3861 181.542 96.9869 181.328L93.4924 179.312C93.3458 179.248 93.2191 179.145 93.1255 179.015C93.032 178.885 92.975 178.732 92.9604 178.573C92.9604 178.31 92.9604 177.234 92.9604 176.96Z" fill="#263238"/>
<path d="M99.5962 179.721L106.731 175.605C107.442 175.19 107.442 174.524 106.731 174.11L103.236 172.094C102.835 171.889 102.39 171.783 101.94 171.783C101.489 171.783 101.045 171.889 100.643 172.094L93.5202 176.21C92.809 176.624 92.809 177.296 93.5202 177.705L97.0146 179.721C97.4148 179.923 97.857 180.028 98.3054 180.028C98.7538 180.028 99.196 179.923 99.5962 179.721Z" fill="#455A64"/>
<path d="M104.07 168.291L101.662 166.874C100.974 166.527 100.05 166.628 99.0528 167.272C98.0049 168.03 97.1505 169.024 96.5589 170.175C95.9673 171.325 95.6552 172.598 95.6479 173.891C95.7039 175.078 96.1575 175.89 96.8463 176.243L99.2544 177.66C99.9432 178.013 100.867 177.906 101.864 177.268C102.915 176.511 103.772 175.516 104.366 174.365C104.96 173.214 105.273 171.939 105.28 170.643C105.213 169.462 104.759 168.65 104.07 168.291Z" fill="#455A64"/>
<path d="M99.1985 177.626L96.8353 176.238C96.1465 175.879 95.7153 175.067 95.6369 173.891C95.6164 172.742 95.8617 171.604 96.3537 170.565L98.7673 171.982C98.271 173.019 98.0237 174.158 98.0449 175.308C98.0953 176.456 98.5601 177.257 99.1985 177.626Z" fill="#263238"/>
<path d="M101.864 177.268C102.915 176.511 103.773 175.516 104.366 174.365C104.96 173.214 105.273 171.939 105.28 170.643C105.168 168.269 103.455 167.39 101.461 168.678C100.413 169.433 99.5567 170.424 98.9623 171.571C98.3679 172.717 98.0518 173.988 98.0396 175.28C98.1572 177.671 99.8651 178.556 101.864 177.268Z" fill="#37474F"/>
<path d="M100.19 177.1C99.0138 177.162 98.8234 175.835 98.7954 175.263C98.8116 174.102 99.0967 172.96 99.6281 171.927C100.16 170.894 100.923 169.999 101.859 169.311C102.233 169.052 102.666 168.89 103.119 168.84C104.3 168.784 104.491 170.106 104.519 170.683C104.502 171.844 104.217 172.986 103.685 174.018C103.154 175.051 102.391 175.947 101.455 176.635C101.08 176.896 100.645 177.056 100.19 177.1Z" fill="#263238"/>
<path d="M101.859 169.31C102.195 169.081 102.577 168.929 102.979 168.862C103.18 169.251 103.291 169.68 103.303 170.117C103.285 171.278 103 172.419 102.468 173.452C101.937 174.484 101.175 175.38 100.24 176.07C99.9039 176.299 99.5217 176.451 99.1202 176.518C98.914 176.131 98.8026 175.701 98.7954 175.263C98.8116 174.102 99.0967 172.96 99.6281 171.927C100.16 170.894 100.923 169.999 101.859 169.31Z" fill="#84C000"/>
<path d="M95.8665 189.106L171.231 145.594L170.005 144.889L94.6401 188.401L95.8665 189.106Z" fill="#84C000"/>
<path opacity="0.4" d="M95.8665 189.106L171.231 145.594L170.005 144.889L94.6401 188.401L95.8665 189.106Z" fill="white"/>
<path d="M95.8667 189.106L99.5291 210.868L174.894 167.356L171.231 145.594L95.8667 189.106Z" fill="#84C000"/>
<path d="M94.6401 188.401L98.3025 210.162L99.5289 210.868L95.8665 189.106L94.6401 188.401Z" fill="#37474F"/>
<path d="M95.4072 192.937L97.4288 204.971L98.6552 205.677L96.6336 193.642L95.4072 192.937Z" fill="#84C000"/>
<path opacity="0.2" d="M95.4072 192.937L97.4288 204.971L98.6552 205.677L96.6336 193.642" fill="black"/>
<path d="M102.783 185.114L99.5291 210.868L95.8667 189.106L102.783 185.114Z" fill="#37474F"/>
<path d="M167.978 171.349L171.231 145.594L174.894 167.356L167.978 171.349Z" fill="#37474F"/>
<path d="M112.179 203.566L115.439 177.806L107.951 182.123L104.698 207.878L112.179 203.566Z" fill="#37474F"/>
<path d="M124.835 196.258L128.095 170.503L120.607 174.821L117.354 200.575L124.835 196.258Z" fill="#37474F"/>
<path d="M137.491 188.95L140.751 163.195L133.263 167.513L130.01 193.267L137.491 188.95Z" fill="#37474F"/>
<path d="M150.147 181.647L153.407 155.887L145.919 160.205L142.666 185.959L150.147 181.647Z" fill="#37474F"/>
<path d="M162.809 174.339L166.063 148.585L158.575 152.902L155.322 178.657L162.809 174.339Z" fill="#37474F"/>
<path d="M107.951 182.123L106.725 181.418L114.212 177.1L115.439 177.806L107.951 182.123Z" fill="#455A64"/>
<path d="M120.608 174.821L119.381 174.11L126.868 169.792L128.095 170.503L120.608 174.821Z" fill="#455A64"/>
<path d="M133.264 167.513L132.037 166.807L139.524 162.49L140.751 163.195L133.264 167.513Z" fill="#455A64"/>
<path d="M145.92 160.205L144.693 159.499L152.18 155.182L153.407 155.887L145.92 160.205Z" fill="#455A64"/>
<path d="M158.576 152.902L157.349 152.191L164.836 147.874L166.063 148.585L158.576 152.902Z" fill="#455A64"/>
<path d="M95.8665 189.106L94.6401 188.401L101.556 184.408L102.783 185.114L95.8665 189.106Z" fill="#455A64"/>
<path d="M96.6338 193.643L98.6554 205.677L174.02 162.165L171.999 150.13L96.6338 193.643Z" fill="#84C000"/>
<path d="M108.786 197.03C108.761 197.044 108.733 197.051 108.704 197.051C108.676 197.051 108.648 197.044 108.623 197.03C108.598 197.015 108.577 196.994 108.561 196.968C108.546 196.943 108.536 196.914 108.534 196.885L107.554 190.691C107.544 190.617 107.553 190.542 107.582 190.473C107.61 190.405 107.659 190.348 107.722 190.31L108.752 189.717C108.775 189.702 108.803 189.694 108.83 189.694C108.858 189.694 108.885 189.702 108.909 189.717C108.935 189.731 108.958 189.752 108.975 189.778C108.991 189.803 109.001 189.832 109.004 189.862L109.984 196.056C109.994 196.131 109.983 196.207 109.95 196.274C109.923 196.342 109.874 196.399 109.81 196.437L108.786 197.03Z" fill="#FAFAFA"/>
<path d="M115.086 193.39C115.053 193.415 115.016 193.431 114.976 193.437C114.936 193.444 114.895 193.442 114.856 193.43C114.81 193.412 114.766 193.387 114.727 193.357L112.415 191.117L112.924 194.359C112.935 194.432 112.923 194.506 112.891 194.572C112.866 194.64 112.819 194.698 112.756 194.734L111.726 195.334C111.702 195.347 111.675 195.355 111.647 195.355C111.62 195.355 111.593 195.347 111.569 195.334C111.542 195.319 111.52 195.298 111.503 195.273C111.487 195.247 111.477 195.218 111.474 195.188L110.494 188.994C110.484 188.92 110.495 188.844 110.527 188.776C110.555 188.71 110.602 188.653 110.662 188.614L111.479 188.143C111.513 188.121 111.55 188.105 111.59 188.099C111.63 188.092 111.67 188.094 111.709 188.104C111.756 188.12 111.8 188.145 111.838 188.177L114.156 190.417L113.641 187.18C113.63 187.106 113.642 187.029 113.675 186.962C113.701 186.893 113.75 186.835 113.815 186.799L114.839 186.206C114.864 186.191 114.892 186.183 114.921 186.183C114.949 186.183 114.977 186.191 115.002 186.206C115.027 186.221 115.048 186.243 115.064 186.268C115.079 186.293 115.089 186.322 115.091 186.351L116.071 192.545C116.082 192.619 116.07 192.695 116.038 192.763C116.012 192.831 115.965 192.888 115.903 192.926L115.086 193.39Z" fill="#FAFAFA"/>
<path d="M121.055 182.622C121.342 182.448 121.654 182.319 121.979 182.241C122.227 182.176 122.488 182.185 122.73 182.269C122.961 182.354 123.158 182.514 123.29 182.722C123.453 182.993 123.558 183.294 123.598 183.607C123.654 183.965 123.654 184.33 123.598 184.688C123.545 185.02 123.435 185.34 123.273 185.634C123.107 185.947 122.894 186.233 122.64 186.48C122.377 186.739 122.082 186.963 121.761 187.146L120.759 187.706L121.067 189.666C121.077 189.741 121.065 189.817 121.033 189.885C121.005 189.951 120.959 190.008 120.899 190.047L119.868 190.641C119.844 190.656 119.816 190.663 119.787 190.663C119.758 190.663 119.73 190.656 119.706 190.641C119.68 190.626 119.658 190.605 119.642 190.58C119.626 190.554 119.617 190.525 119.616 190.495L118.636 184.302C118.626 184.227 118.638 184.151 118.67 184.083C118.697 184.017 118.744 183.96 118.804 183.921L121.055 182.622ZM120.523 186.2L121.492 185.64C121.702 185.521 121.879 185.352 122.007 185.147C122.134 184.935 122.178 184.684 122.131 184.442C122.091 184.173 121.985 184.022 121.823 183.988C121.626 183.962 121.426 184.01 121.263 184.122L120.294 184.682L120.523 186.2Z" fill="#FAFAFA"/>
<path d="M126.711 179.357C127.007 179.176 127.328 179.04 127.663 178.954C127.911 178.886 128.172 178.886 128.419 178.954C128.65 179.028 128.848 179.181 128.979 179.385C129.142 179.656 129.246 179.957 129.287 180.27C129.363 180.715 129.344 181.171 129.231 181.608C129.125 182.016 128.935 182.398 128.671 182.728L130.004 184.447C130.027 184.475 130.042 184.507 130.049 184.542C130.056 184.602 130.046 184.662 130.021 184.716C129.998 184.771 129.959 184.818 129.909 184.85L128.839 185.466C128.733 185.528 128.655 185.539 128.604 185.511C128.553 185.483 128.507 185.445 128.47 185.399L127.271 183.848L126.549 184.268L126.874 186.318C126.885 186.392 126.873 186.468 126.84 186.536C126.814 186.603 126.767 186.66 126.706 186.698L125.675 187.292C125.651 187.307 125.623 187.315 125.594 187.315C125.566 187.315 125.538 187.307 125.513 187.292C125.489 187.276 125.468 187.254 125.453 187.229C125.437 187.204 125.427 187.176 125.423 187.146L124.443 180.953C124.432 180.878 124.444 180.802 124.477 180.734C124.505 180.666 124.554 180.609 124.617 180.572L126.711 179.357ZM126.286 182.773L127.171 182.258C127.379 182.147 127.558 181.988 127.691 181.793C127.757 181.693 127.803 181.582 127.825 181.464C127.847 181.347 127.845 181.226 127.82 181.11C127.781 180.841 127.68 180.695 127.518 180.678C127.319 180.674 127.124 180.731 126.958 180.841L126.073 181.35L126.286 182.773Z" fill="#FAFAFA"/>
<path d="M130.435 179.934C130.397 179.561 130.408 179.184 130.469 178.814C130.53 178.426 130.647 178.048 130.816 177.694C130.99 177.333 131.215 177 131.483 176.702C131.769 176.386 132.103 176.118 132.474 175.907C132.795 175.709 133.153 175.58 133.527 175.526C133.814 175.483 134.108 175.524 134.372 175.644C134.627 175.766 134.839 175.961 134.983 176.204C135.154 176.479 135.274 176.782 135.335 177.1C135.388 177.369 135.438 177.654 135.487 177.957C135.531 178.259 135.576 178.517 135.604 178.808C135.643 179.181 135.632 179.558 135.571 179.928C135.51 180.316 135.393 180.693 135.223 181.048C135.051 181.411 134.826 181.747 134.557 182.045C134.267 182.355 133.933 182.621 133.566 182.834C133.244 183.032 132.886 183.164 132.513 183.221C132.226 183.262 131.933 183.221 131.667 183.103C131.417 182.978 131.207 182.784 131.063 182.543C130.889 182.268 130.769 181.962 130.71 181.642C130.654 181.384 130.609 181.11 130.559 180.807C130.508 180.505 130.48 180.219 130.435 179.934ZM134.143 179.603C134.143 179.486 134.143 179.357 134.098 179.211C134.053 179.066 134.064 178.926 134.042 178.774C134.019 178.623 133.991 178.489 133.963 178.354L133.891 177.996C133.858 177.858 133.807 177.724 133.74 177.598C133.678 177.5 133.593 177.417 133.493 177.358C133.39 177.305 133.272 177.285 133.157 177.302C133 177.32 132.849 177.374 132.715 177.458C132.561 177.545 132.423 177.657 132.306 177.789C132.199 177.912 132.11 178.049 132.043 178.198C131.975 178.343 131.93 178.498 131.908 178.657C131.889 178.819 131.889 178.982 131.908 179.144C131.914 179.272 131.927 179.399 131.947 179.525C131.947 179.665 131.987 179.805 132.009 179.956C132.031 180.107 132.059 180.247 132.082 180.382C132.104 180.516 132.132 180.645 132.166 180.757C132.184 180.884 132.229 181.007 132.296 181.117C132.363 181.226 132.453 181.321 132.558 181.395C132.685 181.451 132.824 181.471 132.961 181.453C133.098 181.435 133.228 181.38 133.336 181.294C133.637 181.133 133.873 180.874 134.008 180.561C134.129 180.257 134.175 179.929 134.143 179.603Z" fill="#FAFAFA"/>
<path d="M138.729 173.986C138.564 174.075 138.417 174.195 138.298 174.339C138.189 174.462 138.102 174.602 138.04 174.754C137.978 174.896 137.94 175.047 137.928 175.202C137.914 175.358 137.914 175.516 137.928 175.672C137.931 175.79 137.942 175.908 137.962 176.025L138.029 176.484C138.029 176.641 138.079 176.792 138.113 176.938C138.147 177.083 138.163 177.201 138.18 177.279C138.212 177.412 138.261 177.54 138.326 177.66C138.376 177.763 138.453 177.851 138.55 177.912C138.652 177.974 138.773 178 138.891 177.985C139.053 177.967 139.209 177.911 139.345 177.822C139.481 177.745 139.607 177.651 139.72 177.542C139.835 177.438 139.932 177.315 140.006 177.178C140.085 177.039 140.14 176.888 140.168 176.73C140.197 176.554 140.197 176.375 140.168 176.198L139.507 176.579C139.484 176.594 139.457 176.602 139.429 176.602C139.401 176.602 139.374 176.594 139.351 176.579C139.324 176.565 139.301 176.544 139.284 176.519C139.268 176.493 139.258 176.464 139.255 176.434L139.093 175.42C139.082 175.346 139.094 175.269 139.127 175.202C139.156 175.135 139.205 175.078 139.267 175.039L141.165 173.919C141.19 173.904 141.218 173.897 141.246 173.897C141.275 173.897 141.303 173.904 141.327 173.919C141.353 173.935 141.374 173.956 141.39 173.981C141.405 174.007 141.415 174.035 141.417 174.065L141.613 175.291C141.686 175.693 141.686 176.105 141.613 176.506C141.542 176.897 141.411 177.275 141.227 177.626C140.855 178.327 140.294 178.909 139.608 179.306C139.291 179.502 138.936 179.629 138.567 179.682C138.279 179.721 137.986 179.678 137.721 179.558C137.468 179.433 137.254 179.239 137.105 178.998C136.933 178.724 136.814 178.42 136.752 178.102C136.702 177.85 136.651 177.57 136.607 177.268C136.562 176.966 136.517 176.68 136.483 176.4C136.439 176.027 136.449 175.65 136.511 175.28C136.577 174.892 136.696 174.515 136.864 174.16C137.038 173.795 137.265 173.457 137.536 173.158C137.817 172.844 138.146 172.578 138.511 172.368C138.823 172.178 139.169 172.05 139.53 171.993C139.808 171.956 140.09 171.979 140.359 172.06C140.574 172.141 140.766 172.274 140.919 172.446C141.063 172.606 141.165 172.798 141.215 173.006C141.237 173.064 141.237 173.128 141.215 173.186C141.192 173.242 141.151 173.289 141.098 173.32L140.056 173.919C140.026 173.938 139.991 173.947 139.955 173.947C139.92 173.947 139.885 173.938 139.855 173.919L139.698 173.824C139.598 173.744 139.478 173.693 139.351 173.678C139.114 173.705 138.894 173.814 138.729 173.986Z" fill="#FAFAFA"/>
<path d="M144.559 169.053C144.853 168.873 145.172 168.737 145.505 168.65C145.754 168.579 146.018 168.579 146.267 168.65C146.498 168.724 146.696 168.876 146.827 169.081C146.991 169.35 147.094 169.652 147.129 169.966C147.211 170.395 147.197 170.838 147.088 171.262C146.98 171.686 146.78 172.081 146.502 172.418L147.84 174.16C147.86 174.188 147.874 174.221 147.879 174.255C147.889 174.316 147.879 174.379 147.851 174.434C147.831 174.49 147.791 174.536 147.739 174.563L146.675 175.179C146.569 175.241 146.491 175.258 146.44 175.224C146.388 175.196 146.343 175.158 146.306 175.112L145.107 173.561L144.385 173.981L144.71 176.03C144.721 176.105 144.709 176.181 144.676 176.249C144.65 176.316 144.603 176.373 144.542 176.411L143.511 177.005C143.487 177.02 143.459 177.027 143.43 177.027C143.402 177.027 143.373 177.02 143.349 177.005C143.323 176.99 143.301 176.969 143.286 176.943C143.27 176.918 143.261 176.889 143.259 176.859L142.24 170.66C142.23 170.585 142.241 170.509 142.274 170.442C142.301 170.375 142.348 170.319 142.408 170.279L144.559 169.053ZM144.133 172.469L145.018 171.959C145.223 171.842 145.401 171.681 145.539 171.489C145.604 171.389 145.65 171.278 145.672 171.16C145.694 171.043 145.692 170.922 145.667 170.806C145.623 170.537 145.522 170.397 145.365 170.374C145.166 170.369 144.97 170.425 144.805 170.537L143.92 171.052L144.133 172.469Z" fill="#FAFAFA"/>
<path d="M152.819 169.932C152.844 169.918 152.872 169.911 152.9 169.911C152.928 169.911 152.956 169.918 152.981 169.932C153.006 169.948 153.028 169.969 153.043 169.994C153.059 170.02 153.068 170.048 153.071 170.078L153.233 171.097C153.244 171.171 153.232 171.247 153.2 171.315C153.173 171.384 153.124 171.442 153.06 171.478L149.341 173.6C149.316 173.614 149.288 173.621 149.26 173.621C149.232 173.621 149.204 173.614 149.179 173.6C149.153 173.585 149.131 173.564 149.115 173.539C149.1 173.513 149.091 173.484 149.089 173.454L148.109 167.261C148.099 167.186 148.11 167.11 148.143 167.042C148.17 166.976 148.217 166.919 148.277 166.88L151.934 164.769C151.959 164.755 151.987 164.748 152.015 164.748C152.043 164.748 152.071 164.755 152.096 164.769C152.122 164.786 152.144 164.808 152.161 164.834C152.177 164.86 152.188 164.889 152.191 164.92L152.348 165.934C152.359 166.008 152.348 166.084 152.315 166.152C152.287 166.218 152.24 166.275 152.18 166.314L149.761 167.709L149.924 168.745L152.164 167.451C152.188 167.436 152.216 167.429 152.245 167.429C152.273 167.429 152.301 167.436 152.326 167.451C152.351 167.467 152.372 167.488 152.388 167.513C152.404 167.539 152.413 167.567 152.416 167.597L152.578 168.616C152.588 168.691 152.577 168.766 152.544 168.834C152.517 168.901 152.47 168.957 152.41 168.997L150.17 170.29L150.338 171.366L152.819 169.932Z" fill="#FAFAFA"/>
<path d="M155.529 162.613C155.821 162.434 156.144 162.313 156.481 162.254C156.746 162.212 157.017 162.226 157.276 162.294C157.489 162.354 157.682 162.47 157.836 162.63C157.986 162.783 158.086 162.978 158.122 163.19C158.129 163.251 158.119 163.313 158.094 163.369C158.074 163.423 158.036 163.468 157.987 163.498L156.979 164.08C156.928 164.111 156.869 164.127 156.809 164.127C156.749 164.127 156.69 164.111 156.638 164.08L156.548 164.024C156.496 163.997 156.439 163.98 156.38 163.974C156.297 163.957 156.211 163.957 156.128 163.974C156.003 164.002 155.884 164.051 155.775 164.119C155.675 164.174 155.579 164.238 155.49 164.31C155.406 164.372 155.329 164.443 155.26 164.522C155.195 164.597 155.144 164.682 155.109 164.774C155.075 164.862 155.065 164.956 155.081 165.049C155.085 165.088 155.096 165.127 155.116 165.161C155.135 165.196 155.161 165.226 155.193 165.25C155.281 165.288 155.379 165.298 155.473 165.278C155.641 165.257 155.806 165.22 155.966 165.166C156.167 165.11 156.419 165.032 156.716 164.931C156.973 164.843 157.24 164.789 157.511 164.769C157.718 164.749 157.926 164.781 158.116 164.864C158.292 164.947 158.435 165.084 158.525 165.256C158.646 165.478 158.724 165.721 158.755 165.973C158.809 166.299 158.795 166.632 158.715 166.953C158.632 167.288 158.496 167.607 158.312 167.899C158.116 168.217 157.879 168.507 157.607 168.762C157.321 169.033 157.003 169.268 156.66 169.462C156.353 169.649 156.016 169.782 155.663 169.854C155.391 169.916 155.107 169.916 154.835 169.854C154.606 169.794 154.398 169.672 154.235 169.501C154.077 169.331 153.972 169.119 153.933 168.89C153.927 168.833 153.936 168.776 153.959 168.723C153.981 168.67 154.017 168.623 154.062 168.588L155.12 168C155.173 167.962 155.235 167.939 155.299 167.933C155.348 167.932 155.395 167.941 155.439 167.961L155.551 168.028C155.612 168.066 155.678 168.094 155.747 168.112C155.844 168.129 155.942 168.129 156.039 168.112C156.183 168.086 156.322 168.032 156.447 167.955C156.697 167.817 156.925 167.644 157.125 167.44C157.203 167.371 157.264 167.284 157.302 167.187C157.34 167.089 157.354 166.984 157.343 166.88C157.34 166.839 157.324 166.8 157.298 166.768C157.272 166.736 157.237 166.713 157.198 166.701C157.089 166.678 156.976 166.678 156.867 166.701C156.677 166.735 156.49 166.783 156.307 166.846L155.529 167.087C155.325 167.177 155.105 167.224 154.882 167.224C154.659 167.224 154.439 167.177 154.235 167.087C154.067 166.952 153.93 166.782 153.833 166.588C153.736 166.395 153.683 166.183 153.675 165.967C153.623 165.676 153.623 165.379 153.675 165.088C153.744 164.769 153.859 164.461 154.017 164.175C154.185 163.86 154.396 163.569 154.644 163.313C154.905 163.04 155.203 162.804 155.529 162.613Z" fill="#FAFAFA"/>
<path d="M161.213 159.331C161.505 159.157 161.825 159.038 162.159 158.978C162.428 158.941 162.701 158.962 162.96 159.04C163.173 159.101 163.366 159.217 163.52 159.376C163.671 159.528 163.769 159.724 163.8 159.936C163.819 159.994 163.819 160.057 163.8 160.115C163.781 160.167 163.745 160.212 163.699 160.244L162.669 160.838C162.616 160.874 162.554 160.895 162.49 160.899C162.436 160.898 162.383 160.887 162.333 160.866L162.243 160.815C162.192 160.785 162.135 160.766 162.075 160.759C161.99 160.743 161.903 160.743 161.818 160.759C161.693 160.789 161.574 160.838 161.465 160.905C161.368 160.963 161.275 161.027 161.185 161.095C161.101 161.157 161.024 161.229 160.955 161.308C160.891 161.382 160.839 161.468 160.804 161.56C160.77 161.649 160.76 161.746 160.776 161.84C160.779 161.879 160.791 161.917 160.81 161.951C160.83 161.985 160.856 162.014 160.888 162.036C160.976 162.074 161.074 162.084 161.168 162.064C161.333 162.043 161.496 162.007 161.655 161.958L162.411 161.722C162.669 161.635 162.936 161.579 163.207 161.554C163.411 161.534 163.618 161.567 163.806 161.65C163.982 161.734 164.127 161.871 164.22 162.042C164.341 162.264 164.419 162.507 164.45 162.758C164.501 163.084 164.488 163.418 164.411 163.738C164.323 164.072 164.187 164.39 164.007 164.685C163.81 165.001 163.573 165.291 163.302 165.547C163.015 165.819 162.697 166.055 162.355 166.253C162.046 166.438 161.707 166.568 161.353 166.639C161.08 166.702 160.797 166.702 160.524 166.639C160.297 166.58 160.09 166.46 159.925 166.292C159.767 166.12 159.662 165.906 159.623 165.676C159.616 165.617 159.626 165.557 159.651 165.502C159.67 165.449 159.708 165.403 159.757 165.374L160.782 164.78C160.835 164.743 160.897 164.72 160.961 164.713C161.009 164.711 161.057 164.721 161.101 164.741C161.142 164.762 161.181 164.786 161.219 164.814C161.365 164.9 161.539 164.93 161.706 164.898C161.85 164.866 161.988 164.812 162.115 164.735C162.363 164.596 162.591 164.422 162.792 164.22C162.872 164.152 162.933 164.065 162.97 163.967C163.007 163.869 163.019 163.764 163.005 163.66C163.003 163.619 162.988 163.579 162.963 163.546C162.938 163.513 162.904 163.489 162.865 163.475C162.754 163.452 162.64 163.452 162.529 163.475C162.339 163.512 162.152 163.56 161.969 163.621L161.191 163.862C160.987 163.952 160.767 163.999 160.544 163.999C160.321 163.999 160.101 163.952 159.897 163.862C159.727 163.728 159.589 163.558 159.492 163.364C159.395 163.171 159.342 162.958 159.337 162.742C159.294 162.451 159.303 162.155 159.365 161.868C159.431 161.547 159.544 161.237 159.701 160.95C159.874 160.636 160.087 160.346 160.334 160.087C160.588 159.794 160.885 159.539 161.213 159.331Z" fill="#FAFAFA"/>
<path d="M254.487 139.67C254.722 139.488 254.985 139.344 255.265 139.244C255.75 139.019 256.259 138.85 256.783 138.74C257.312 138.632 257.862 138.712 258.339 138.964C259.039 139.378 259.353 140.213 259.594 140.991C259.952 142.15 260.266 143.321 260.714 144.446C261.428 146.04 262.371 147.521 263.514 148.842C264.139 149.799 264.546 150.881 264.706 152.013C264.866 153.144 264.774 154.297 264.438 155.389C264.284 155.994 263.963 156.543 263.511 156.974C263.06 157.405 262.496 157.7 261.884 157.825L260.131 153.905C258.922 151.202 257.714 148.495 256.508 145.785C256.045 144.736 255.579 143.689 255.108 142.643C254.907 142.19 254.705 141.73 254.498 141.277C254.246 140.717 253.831 140.274 254.414 139.737L254.487 139.67Z" fill="#37474F"/>
<path d="M254.128 139.003L254.246 138.975C255.242 138.706 256.278 138.27 257.242 138.869C257.843 139.275 258.297 139.864 258.535 140.549C258.772 141.23 258.948 141.931 259.062 142.643C259.198 143.294 259.385 143.932 259.622 144.553C259.875 145.123 260.197 145.661 260.579 146.154C261.106 146.955 262.528 148.585 262.987 149.43C263.346 150.113 263.601 150.845 263.743 151.603C263.931 152.43 263.975 153.282 263.872 154.123C263.676 155.422 262.926 157.237 261.778 157.892C261.476 158.087 261.134 158.211 260.777 158.255C260.421 158.299 260.059 158.263 259.719 158.147C259.378 158.032 259.069 157.842 258.812 157.59C258.556 157.338 258.36 157.032 258.238 156.694C258.031 156.195 257.824 155.697 257.645 155.182C257.297 154.2 256.838 153.26 256.278 152.382C255.549 151.274 254.689 150.257 253.719 149.352C253.613 149.257 253.506 149.145 253.4 149.061C252.174 148.109 250.897 147.252 250.813 146.72C250.746 146.278 251.334 141.814 250.449 140.661C250.359 140.517 250.325 140.346 250.354 140.179C250.398 139.938 250.404 139.972 250.678 139.894L251.888 139.569L254.128 139.003Z" fill="#455A64"/>
<path d="M204.025 101.164C202.709 108.662 202.272 110.729 201.158 115.164C199.515 122.812 198.305 130.547 197.535 138.331C197.344 140.297 199.215 145.023 200.004 146.821C204.719 157.304 212.464 174.037 212.464 174.037C213.118 175.451 213.4 177.008 213.282 178.562C213.065 180.887 212.514 183.169 211.647 185.338C211.37 186.104 211.044 186.853 210.672 187.578C209.821 189.739 211.187 190.042 213.282 188.983C215.488 187.863 216.804 185.399 217.336 183.635C218.126 181.003 219.688 176.842 219.548 175.532L219.498 175.386L219.039 172.805C219.039 172.805 216.922 164.87 215.147 155.742C213.562 147.627 212.733 144.967 208.707 139.255L222.046 107.106L204.025 101.164Z" fill="#FFA8A7"/>
<path d="M222.527 177.335C222.862 177.774 223.057 178.302 223.087 178.853C222.807 180.779 220.802 182.213 220.035 183.45C219.268 184.688 218.54 187.37 218.075 188.944C217.972 189.288 217.834 189.62 217.661 189.935C217.536 190.222 217.395 190.503 217.241 190.775C216.738 191.358 216.116 191.824 215.415 192.142C214.042 192.84 212.514 193.181 210.974 193.133C209.808 193.173 208.662 192.824 207.715 192.142C207.511 192.006 207.347 191.818 207.241 191.597C207.135 191.377 207.09 191.131 207.11 190.887C207.222 190.366 207.777 190.092 208.275 189.896C209.317 189.493 210.381 189.14 211.4 188.681C212.251 188.314 213.045 187.828 213.758 187.236C214.397 186.635 214.979 185.975 215.494 185.265C216.614 183.865 217.734 182.465 218.904 181.093C219.134 180.83 222.208 177.033 222.527 177.335Z" fill="#37474F"/>
<path d="M220.898 174.244C221.581 175.185 223.138 176.613 222.544 178.343C222.012 179.844 220.573 181.317 219.626 182.532C219.189 183.199 218.858 183.93 218.646 184.699C218.165 185.948 217.896 187.275 217.409 188.524C216.798 190.058 215.118 191.05 213.578 191.475C212.037 191.86 210.43 191.908 208.869 191.615C208.241 191.577 207.646 191.319 207.189 190.887C207.001 190.646 206.876 190.361 206.825 190.059C206.774 189.757 206.799 189.447 206.898 189.157C207.104 188.58 207.439 188.057 207.878 187.628C208.533 186.922 209.3 186.323 209.972 185.634C211.21 184.363 211.602 182.834 212.038 181.154C212.341 179.978 212.789 178.287 212.598 177.526C212.466 177.153 212.388 176.762 212.369 176.366C212.387 176.245 212.435 176.13 212.509 176.032C212.584 175.934 212.682 175.856 212.794 175.806C213.388 175.57 214.03 175.483 214.665 175.554C215.225 175.554 215.785 175.689 216.345 175.717C216.718 175.71 217.086 175.628 217.427 175.477C217.768 175.325 218.075 175.107 218.331 174.836C218.587 174.564 218.785 174.244 218.915 173.894C219.046 173.544 219.105 173.172 219.089 172.799L218.915 172.267C219.419 171.802 220.125 173.186 220.898 174.244Z" fill="#455A64"/>
<path d="M252.678 143.153C252.258 140.946 251.295 140.627 251.295 140.627L244.267 140.762V140.918L244.143 148.03L251.502 146.72C251.981 146.271 252.339 145.71 252.545 145.086C252.75 144.463 252.796 143.798 252.678 143.153Z" fill="#FFA8A7"/>
<path d="M244.462 140.454L228.105 140.622C228.105 140.622 231.078 118.675 230.093 105.829L215.488 104.149L204.131 100.419C202.793 104.474 198.845 124.701 198.845 124.701C198.078 130.402 197.574 132.854 197.165 137.228C196.756 141.602 197.854 143.198 200.088 148.025C202.322 152.852 211.226 171.427 211.226 171.427C211.226 171.427 212.346 172.323 214.833 171.248C216.199 170.725 217.335 169.732 218.036 168.448C218.036 168.448 215.376 156.027 214.435 150.774C213.494 145.522 210.392 140.381 209.093 139.244L214.906 125.244C215.275 130.934 215.65 141.176 216.86 147.022C217.661 150.903 219.962 153.149 224.207 152.471C230.121 151.53 245.745 148.025 245.745 148.025C248.898 147.594 248.114 141.73 244.462 140.454Z" fill="#37474F"/>
<path d="M228.105 140.622C228.105 140.622 228.329 143.584 227.063 145.796C227.955 144.961 228.65 143.937 229.096 142.8C229.768 140.969 235.015 141.406 238.935 140.532L228.105 140.622Z" fill="#263238"/>
<path d="M214.889 125.306L214.474 117.466C212.226 116.183 210.228 114.504 208.578 112.51C209.846 114.527 211.424 116.331 213.254 117.858L213.769 125.138L209.11 139.238L214.889 125.306Z" fill="#263238"/>
<path d="M194.146 31.164C194.123 30.1535 194.176 29.1427 194.303 28.14C194.555 26.3256 195.182 23.8448 197.148 23.2064C197.523 23.144 197.884 23.013 198.212 22.82C198.531 22.5624 198.654 22.1032 198.996 21.8736C199.528 21.5208 200.267 21.8736 200.861 21.6776H200.928C201.368 21.4201 201.688 20.9995 201.818 20.5072C202.169 19.6598 202.518 18.8142 202.866 17.9704L203.386 16.7048C203.493 16.4416 203.538 15.988 203.795 15.8256C203.87 15.7859 203.954 15.7651 204.039 15.7651C204.124 15.7651 204.207 15.7859 204.282 15.8256C204.496 15.9695 204.671 16.165 204.789 16.394C204.907 16.6231 204.966 16.8783 204.96 17.136C204.969 18.3852 204.725 19.6234 204.243 20.776C203.784 22.0965 203.41 23.4452 203.123 24.8136C203.045 25.172 202.776 26.46 203.403 26.3648C203.891 26.2303 204.325 25.9487 204.646 25.5584C204.992 25.236 205.402 24.9916 205.85 24.8416C206.298 24.6904 207.334 24.7184 207.038 25.4576C206.97 25.6085 206.877 25.7467 206.763 25.8664C206.175 26.5608 205.643 27.2776 205.033 27.9552C204.736 28.2912 204.428 28.6216 204.109 28.9408C203.941 29.1088 203.773 29.2712 203.605 29.428C203.487 29.5344 203.168 29.7248 203.118 29.8648C202.668 30.2449 202.258 30.671 201.897 31.136C201.27 31.9256 201.219 32.816 201.102 33.936C201.057 34.3672 200.939 36.0304 200.939 36.0304C200.654 39.8888 201.152 51.9288 201.298 52.9648C201.359 53.5291 201.532 54.0754 201.807 54.572C202.961 56.5208 209.815 68.432 209.815 68.432C209.815 68.432 214.34 76.4176 207.547 79.3184C205.15 75.796 195.384 61.796 194.337 59.8304C193.392 58.1618 192.869 56.2874 192.814 54.3704C192.685 47.5328 194.158 32.3176 194.146 31.164Z" fill="#FFA8A7"/>
<path d="M201.303 22.4617C201.992 23.1225 202.457 23.9345 202.39 24.5785C202.238 25.569 202.009 26.5463 201.706 27.5017C201.538 27.9049 201.186 28.4257 200.586 28.2689C200.447 28.4605 200.254 28.6074 200.033 28.6919C199.811 28.7764 199.57 28.7948 199.338 28.7449C199.185 28.9404 198.981 29.0896 198.749 29.1757C198.516 29.2618 198.265 29.2813 198.022 29.2321C197.881 29.3824 197.704 29.495 197.509 29.5596C197.313 29.6242 197.104 29.6386 196.902 29.6017C197.097 29.7124 197.32 29.7634 197.544 29.7485C197.768 29.7336 197.983 29.6533 198.162 29.5177C198.397 29.5806 198.647 29.5679 198.875 29.4815C199.103 29.3951 199.298 29.2393 199.433 29.0361C199.654 29.0986 199.889 29.0953 200.109 29.0267C200.329 28.9581 200.524 28.8271 200.67 28.6497C200.916 28.6944 201.169 28.6592 201.393 28.5493C201.616 28.4394 201.799 28.2607 201.914 28.0393C202.319 27.1529 202.582 26.2078 202.692 25.2393C202.838 24.4105 203.034 23.5201 201.303 22.4617Z" fill="#F28F8F"/>
<path d="M198.47 66.8696C200.631 69.804 204.814 75.8576 205.895 79.2344C206.802 81.1328 209.21 79.5256 210.252 75.544C211.702 69.9944 216.054 67.2 214.138 66.9144C211.781 66.5672 204.954 58.5144 204.954 58.5144C203.633 56.8344 201.566 53.4744 201.566 53.4744L200.883 41.0424C200.883 41.0424 197.68 42.5264 193.463 40.2864C193.463 40.2864 192.774 45.0184 192.466 50.4728C192.158 55.9272 192.231 57.3272 193.368 59.3096C194.926 61.9227 196.629 64.4467 198.47 66.8696Z" fill="#84C000"/>
<path d="M234.282 77.1064L230.866 93.7664L230.446 108.259C222.701 111.882 210.538 110.634 202.754 104.373C202.754 104.373 203.93 78.8648 205.554 73.2144C207.178 67.564 210.034 66.4048 214.032 66.5336C218.26 66.6624 223.692 67.2616 223.692 67.2616L231.157 68.7232C231.157 68.7232 234.377 75.096 234.282 77.1064Z" fill="#455A64"/>
<path d="M249.536 93.156C249.536 93.156 248.59 100.503 247.649 104.037C246.994 106.49 245.454 111.647 243.858 113.803C239.893 119.151 236.247 116.822 235.334 116.144C234.287 115.36 234.214 114.262 236.639 111.569C237.179 110.96 237.655 110.297 238.062 109.592C238.269 109.239 239.03 108.254 238.302 108.074C238.076 108.04 237.845 108.071 237.636 108.164L236.107 108.674C235.783 108.813 235.428 108.868 235.077 108.83C234.903 108.808 234.742 108.723 234.627 108.591C234.511 108.459 234.448 108.289 234.45 108.114C234.489 107.806 234.774 107.604 235.01 107.442C236.589 106.467 238.205 105.556 239.859 104.709C240.195 104.535 240.839 104.384 241.03 104.054C241.13 103.848 241.201 103.629 241.242 103.404C241.31 102.956 241.366 102.508 241.422 102.054C241.562 100.839 241.69 99.6184 241.808 98.4032C241.976 96.7232 242.015 93.3632 242.161 91.6832L232.154 80.3936C232.154 80.3936 229.622 77.1176 229.622 68.4152C231.339 68.5141 233.023 68.922 234.595 69.6192C237.474 70.9632 247.027 85.2992 248.282 86.7104C249.536 88.1216 250.012 89.0064 249.536 93.156Z" fill="#FFA8A7"/>
<path d="M228.995 68.3201C229.65 68.4489 232.176 68.3201 233.85 69.0425C235.525 69.7649 236.824 70.6833 238.958 73.5561C241.091 76.4289 247.918 85.5121 248.954 86.9065C249.99 88.3009 250.348 88.9673 249.995 91.7225C249.642 94.4777 248.343 100.85 248.343 100.85C246.072 101.044 243.789 100.659 241.707 99.7305L241.819 91.7841L231.14 80.0689C231.14 80.0689 227.746 75.6001 228.995 68.3201Z" fill="#84C000"/>
<path d="M222.432 49.2801C222.365 50.7107 221.875 52.0893 221.025 53.2415C220.174 54.3938 219.001 55.268 217.654 55.7536C216.307 56.2392 214.846 56.3143 213.456 55.9695C212.066 55.6248 210.809 54.8755 209.845 53.8166C208.881 52.7576 208.252 51.4365 208.039 50.0204C207.826 48.6042 208.037 47.1566 208.647 45.8606C209.256 44.5646 210.236 43.4784 211.463 42.7394C212.689 42.0004 214.108 41.6418 215.538 41.7089C217.456 41.8003 219.259 42.6489 220.551 44.0685C221.844 45.488 222.52 47.3623 222.432 49.2801Z" fill="#263238"/>
<path d="M227.461 54.6504C227.461 54.6504 226.027 60.1048 225.518 60.9896C225.184 61.5435 224.648 61.9454 224.022 62.1096L224.286 58.24L227.461 54.6504Z" fill="#263238"/>
<path d="M226.363 46.6928C226.776 46.6647 227.189 46.7308 227.573 46.886C227.956 47.0412 228.299 47.2816 228.575 47.5888C229.494 48.6192 228.805 51.6824 227.455 54.6504L225.215 54.8016L226.363 46.6928Z" fill="#263238"/>
<path d="M224.56 54.7736C224.991 55.0592 225.68 54.2136 226.24 53.6928C226.8 53.172 228.631 52.4496 229.432 54.3648C230.233 56.28 228.435 58.7608 227.013 59.136C224.56 59.78 224.269 58.212 224.269 58.212L223.664 67.172C220.478 70.8848 212.061 70.8792 215.729 67.0152L215.947 63.6552C214.86 63.7732 213.764 63.7732 212.677 63.6552C211.788 63.4781 210.976 63.0269 210.356 62.3651C209.737 61.7032 209.34 60.8638 209.222 59.9648C208.662 56.4872 208.662 54.2752 209.496 48.2048C210.42 41.5464 218.378 41.8712 222.438 44.7048C226.498 47.5384 224.56 54.7736 224.56 54.7736Z" fill="#FFA8A7"/>
<path d="M224.56 55.5184C224.784 55.5184 225.68 54.1688 226.273 53.6928C227.069 53.032 226.38 46.6928 226.38 46.6928C226.67 46.152 226.791 45.5362 226.726 44.9258C226.661 44.3154 226.414 43.7388 226.016 43.2712C225.061 42.0668 223.687 41.2669 222.169 41.0312C219.839 40.6336 217.448 40.7624 215.286 39.6312C214.875 39.38 214.437 39.1735 213.981 39.0152C213.753 38.9355 213.51 38.9093 213.27 38.9384C213.031 38.9675 212.801 39.0513 212.598 39.1832C212.42 39.3269 212.276 39.5096 212.179 39.7174C212.082 39.9251 212.034 40.1523 212.038 40.3816C212.051 40.8341 212.134 41.282 212.285 41.7088C211.675 41.5832 211.047 41.5661 210.431 41.6584C210.121 41.7066 209.829 41.8354 209.584 42.032C209.339 42.2286 209.151 42.4859 209.037 42.7784C208.912 43.4274 209.032 44.0996 209.373 44.6656C210.185 46.4688 212.397 46.8496 214.161 47.152C216.761 47.4698 219.386 47.5429 222.001 47.3704C222.824 47.2976 222.964 48.104 223.306 50.2992C223.625 52.2144 223.798 55.468 224.56 55.5184Z" fill="#263238"/>
<path d="M226.335 47.1801L229.079 45.8697C229.002 45.6855 228.889 45.5189 228.746 45.3798C228.602 45.2407 228.433 45.132 228.246 45.0603C228.06 44.9886 227.861 44.9554 227.662 44.9626C227.462 44.9699 227.266 45.0175 227.086 45.1025C226.719 45.2873 226.437 45.6055 226.297 45.9919C226.157 46.3783 226.171 46.8035 226.335 47.1801Z" fill="#263238"/>
<path d="M215.964 63.672C215.964 63.672 219.968 63.0616 221.396 62.384C222.232 62.0004 222.931 61.3714 223.401 60.5808C223.154 61.3818 222.749 62.1247 222.208 62.7648C221.127 64.0192 215.891 64.7472 215.891 64.7472L215.964 63.672Z" fill="#F28F8F"/>
<path d="M217.403 53.4408C217.394 53.5484 217.407 53.6567 217.44 53.7594C217.473 53.8622 217.526 53.9573 217.597 54.0391C217.667 54.121 217.753 54.188 217.85 54.2362C217.946 54.2845 218.052 54.3129 218.159 54.32C218.324 54.3344 218.489 54.2991 218.634 54.2187C218.779 54.1383 218.896 54.0165 218.971 53.8689C219.045 53.7214 219.074 53.5548 219.054 53.3907C219.033 53.2266 218.964 53.0724 218.855 52.948C218.745 52.8236 218.602 52.7347 218.442 52.6927C218.282 52.6507 218.113 52.6575 217.957 52.7123C217.801 52.7672 217.665 52.8674 217.566 53.0002C217.467 53.133 217.411 53.2923 217.403 53.4576V53.4408Z" fill="#263238"/>
<path d="M218.4 50.4728L220.08 51.4976C220.212 51.2689 220.251 50.998 220.189 50.7413C220.126 50.4846 219.967 50.262 219.744 50.12C219.634 50.0498 219.511 50.0032 219.382 49.983C219.253 49.9628 219.121 49.9694 218.995 50.0026C218.869 50.0357 218.751 50.0946 218.648 50.1755C218.546 50.2564 218.461 50.3576 218.4 50.4728Z" fill="#263238"/>
<path d="M217.202 58.4304L214.687 59.2424C214.733 59.4107 214.813 59.5679 214.921 59.7047C215.03 59.8415 215.164 59.9551 215.317 60.0388C215.471 60.1224 215.639 60.1743 215.813 60.1914C215.986 60.2085 216.162 60.1905 216.328 60.1384C216.665 60.0196 216.943 59.7763 217.105 59.4585C217.268 59.1408 217.302 58.7728 217.202 58.4304Z" fill="#F28F8F"/>
<path d="M210.414 50.764L212.022 49.644C211.954 49.5359 211.865 49.4427 211.759 49.3701C211.654 49.2976 211.535 49.2472 211.41 49.222C211.285 49.1969 211.156 49.1975 211.031 49.2238C210.906 49.2502 210.788 49.3017 210.683 49.3752C210.47 49.5287 210.323 49.758 210.273 50.0162C210.223 50.2744 210.274 50.542 210.414 50.764Z" fill="#263238"/>
<path d="M210.795 52.9033C210.783 53.1169 210.856 53.3267 210.997 53.4871C211.139 53.6476 211.338 53.7457 211.551 53.7601C211.716 53.7744 211.881 53.7392 212.026 53.6588C212.171 53.5784 212.288 53.4566 212.363 53.309C212.437 53.1614 212.466 52.9949 212.446 52.8308C212.425 52.6666 212.356 52.5124 212.247 52.388C212.137 52.2637 211.994 52.1747 211.834 52.1327C211.674 52.0907 211.505 52.0976 211.349 52.1524C211.193 52.2072 211.056 52.3075 210.958 52.4403C210.859 52.5731 210.803 52.7324 210.795 52.8977V52.9033Z" fill="#263238"/>
<path d="M214.883 52.3376L214.396 57.1088L211.938 56.14L214.883 52.3376Z" fill="#F28F8F"/>
</svg>
