<svg width="274" height="274" viewBox="0 0 274 274" fill="none" xmlns="http://www.w3.org/2000/svg">
<rect x="37" y="37" width="200" height="200" rx="12" fill="#84C000"/>
<rect x="6" y="83" width="200" height="200" rx="12" transform="rotate(-22.5 6 83)" fill="#84C000" fill-opacity="0.6"/>
<rect x="-4" y="137" width="200" height="200" rx="12" transform="rotate(-45 -4 137)" fill="#84C000" fill-opacity="0.2"/>
<path d="M118.833 184.464C116.881 186.417 113.715 186.417 111.762 184.464L75.4291 148.131C73.4765 146.179 73.4765 143.013 75.4291 141.06L83.5495 132.94C85.5021 130.987 88.668 130.987 90.6206 132.94L111.762 154.081C113.715 156.034 116.881 156.034 118.833 154.081L183.379 89.5355C185.332 87.5829 188.498 87.5829 190.45 89.5355L198.571 97.656C200.523 99.6086 200.523 102.774 198.571 104.727L118.833 184.464Z" fill="#FAFBF9"/>
</svg>
