<svg width="20" height="20" viewBox="0 0 20 20" fill="none" xmlns="http://www.w3.org/2000/svg">
<path d="M12.4999 10H8.33325" stroke="#84C000" stroke-width="1.5" stroke-linecap="round" stroke-linejoin="round"/>
<path d="M12.4999 6.66663H8.33325" stroke="#84C000" stroke-width="1.5" stroke-linecap="round" stroke-linejoin="round"/>
<path d="M15.8333 14.1667V4.16667C15.8333 3.72464 15.6577 3.30072 15.3451 2.98816C15.0325 2.67559 14.6086 2.5 14.1666 2.5H3.33325" stroke="#84C000" stroke-width="1.5" stroke-linecap="round" stroke-linejoin="round"/>
<path d="M6.66675 17.5H16.6667C17.1088 17.5 17.5327 17.3244 17.8453 17.0118C18.1578 16.6993 18.3334 16.2754 18.3334 15.8333V15C18.3334 14.779 18.2456 14.567 18.0893 14.4107C17.9331 14.2545 17.7211 14.1667 17.5001 14.1667H9.16675C8.94573 14.1667 8.73377 14.2545 8.57749 14.4107C8.42121 14.567 8.33341 14.779 8.33341 15V15.8333C8.33341 16.2754 8.15782 16.6993 7.84526 17.0118C7.5327 17.3244 7.10878 17.5 6.66675 17.5ZM6.66675 17.5C6.22472 17.5 5.8008 17.3244 5.48824 17.0118C5.17568 16.6993 5.00008 16.2754 5.00008 15.8333V4.16667C5.00008 3.72464 4.82449 3.30072 4.51193 2.98816C4.19937 2.67559 3.77544 2.5 3.33341 2.5C2.89139 2.5 2.46746 2.67559 2.1549 2.98816C1.84234 3.30072 1.66675 3.72464 1.66675 4.16667V5.83333C1.66675 6.05435 1.75455 6.26631 1.91083 6.42259C2.06711 6.57887 2.27907 6.66667 2.50008 6.66667H5.00008" stroke="#84C000" stroke-width="1.5" stroke-linecap="round" stroke-linejoin="round"/>
</svg>
