<svg width="16" height="16" viewBox="0 0 16 16" fill="none" xmlns="http://www.w3.org/2000/svg">
<g opacity="0.5" clip-path="url(#clip0_9029_2991)">
<path d="M8.16667 8C8.03406 8 7.90688 7.94732 7.81311 7.85355C7.71935 7.75979 7.66667 7.63261 7.66667 7.5V7H3V7.5C3 7.63261 2.94732 7.75979 2.85355 7.85355C2.75979 7.94732 2.63261 8 2.5 8C2.36739 8 2.24021 7.94732 2.14645 7.85355C2.05268 7.75979 2 7.63261 2 7.5V6.5C2 6.36739 2.05268 6.24022 2.14645 6.14645C2.24021 6.05268 2.36739 6 2.5 6H8.16667C8.29927 6 8.42645 6.05268 8.52022 6.14645C8.61399 6.24022 8.66667 6.36739 8.66667 6.5V7.5C8.66667 7.63261 8.61399 7.75979 8.52022 7.85355C8.42645 7.94732 8.29927 8 8.16667 8Z" fill="#84C000"/>
<path d="M5.33337 12.5C5.20077 12.5 5.07359 12.4473 4.97982 12.3535C4.88605 12.2597 4.83337 12.1326 4.83337 12V6.66663C4.83337 6.53402 4.88605 6.40684 4.97982 6.31307C5.07359 6.2193 5.20077 6.16663 5.33337 6.16663C5.46598 6.16663 5.59316 6.2193 5.68693 6.31307C5.7807 6.40684 5.83337 6.53402 5.83337 6.66663V12C5.83337 12.1326 5.7807 12.2597 5.68693 12.3535C5.59316 12.4473 5.46598 12.5 5.33337 12.5Z" fill="#84C000"/>
<path d="M6.16667 12.6667H4.5C4.36739 12.6667 4.24021 12.614 4.14645 12.5202C4.05268 12.4265 4 12.2993 4 12.1667C4 12.0341 4.05268 11.9069 4.14645 11.8131C4.24021 11.7193 4.36739 11.6667 4.5 11.6667H6.16667C6.29927 11.6667 6.42645 11.7193 6.52022 11.8131C6.61399 11.9069 6.66667 12.0341 6.66667 12.1667C6.66667 12.2993 6.61399 12.4265 6.52022 12.5202C6.42645 12.614 6.29927 12.6667 6.16667 12.6667ZM13.5 7H10.5C10.3674 7 10.2402 6.94732 10.1464 6.85355C10.0527 6.75978 10 6.63261 10 6.5C10 6.36739 10.0527 6.24022 10.1464 6.14645C10.2402 6.05268 10.3674 6 10.5 6H13.5C13.6326 6 13.7598 6.05268 13.8536 6.14645C13.9473 6.24022 14 6.36739 14 6.5C14 6.63261 13.9473 6.75978 13.8536 6.85355C13.7598 6.94732 13.6326 7 13.5 7ZM13.5 9.66667H10.5C10.3674 9.66667 10.2402 9.61399 10.1464 9.52022C10.0527 9.42645 10 9.29927 10 9.16667C10 9.03406 10.0527 8.90688 10.1464 8.81311C10.2402 8.71935 10.3674 8.66667 10.5 8.66667H13.5C13.6326 8.66667 13.7598 8.71935 13.8536 8.81311C13.9473 8.90688 14 9.03406 14 9.16667C14 9.29927 13.9473 9.42645 13.8536 9.52022C13.7598 9.61399 13.6326 9.66667 13.5 9.66667ZM13.5 12.3333H10.5C10.3674 12.3333 10.2402 12.2807 10.1464 12.1869C10.0527 12.0931 10 11.9659 10 11.8333C10 11.7007 10.0527 11.5735 10.1464 11.4798C10.2402 11.386 10.3674 11.3333 10.5 11.3333H13.5C13.6326 11.3333 13.7598 11.386 13.8536 11.4798C13.9473 11.5735 14 11.7007 14 11.8333C14 11.9659 13.9473 12.0931 13.8536 12.1869C13.7598 12.2807 13.6326 12.3333 13.5 12.3333Z" fill="#84C000"/>
<path d="M14.1667 15.3333H1.83333C1.34721 15.3329 0.881101 15.1397 0.537361 14.7959C0.193621 14.4522 0.000353158 13.9861 0 13.5L0 2.49996C0.000353158 2.01384 0.193621 1.54773 0.537361 1.20399C0.881101 0.860247 1.34721 0.666979 1.83333 0.666626H14.1667C14.6528 0.666979 15.1189 0.860247 15.4626 1.20399C15.8064 1.54773 15.9996 2.01384 16 2.49996V13.5C15.9996 13.9861 15.8064 14.4522 15.4626 14.7959C15.1189 15.1397 14.6528 15.3329 14.1667 15.3333ZM1.83333 1.66663C1.374 1.66663 1 2.04063 1 2.49996V13.5C1 13.9593 1.374 14.3333 1.83333 14.3333H14.1667C14.626 14.3333 15 13.9593 15 13.5V2.49996C15 2.04063 14.626 1.66663 14.1667 1.66663H1.83333Z" fill="#84C000"/>
<path d="M15.5 4H0.5C0.367392 4 0.240215 3.94732 0.146447 3.85355C0.0526784 3.75979 0 3.63261 0 3.5C0 3.36739 0.0526784 3.24021 0.146447 3.14645C0.240215 3.05268 0.367392 3 0.5 3H15.5C15.6326 3 15.7598 3.05268 15.8536 3.14645C15.9473 3.24021 16 3.36739 16 3.5C16 3.63261 15.9473 3.75979 15.8536 3.85355C15.7598 3.94732 15.6326 4 15.5 4Z" fill="#84C000"/>
</g>
<defs>
<clipPath id="clip0_9029_2991">
<rect width="16" height="16" fill="white"/>
</clipPath>
</defs>
</svg>
